<?xml version="1.0" encoding="UTF-8"?><svg id="Calque_2" xmlns="http://www.w3.org/2000/svg" viewBox="0 0 69.11 53.54"><defs><style>.cls-1{fill:#ededed;}.cls-1,.cls-2{stroke-width:0px;}.cls-2{fill:#36a9e1;}</style></defs><g id="Calque_1-2"><path class="cls-2" d="m42.34,53.54h-15.57C11.99,53.54,0,41.56,0,26.77S11.99,0,26.77,0h15.57c14.78,0,26.77,11.99,26.77,26.77s-11.99,26.77-26.77,26.77"/><path class="cls-1" d="m53.44,34.47c-.14.16-.34.29-.57.36.02,0,.03-.01.05-.02.32-.13.59-.37.74-.72.3-.68-.02-1.47-.7-1.77l-1.71-.74c-.48-.21-.69-.31-.33-.17-.52-.23-.99-.43-1.39-.6.35-.12.65-.23.89-.32.22-.08.38-.14.5-.18l.46-.16s.04-.01.06-.02c.67-.26,1.01-1,.78-1.69,0,0,0,0,0-.01.03.09.06.19.07.29.03.19,0,.41-.06.61-.07.2-.18.38-.31.5-.12.13-.25.21-.34.26-.09.04-.14.07-.12.06.02-.01.12-.04.28-.14.02-.01.04-.03.06-.04.02-.02.04-.04.07-.05.02-.02.05-.04.07-.07.02-.03.05-.05.07-.08.1-.11.19-.26.26-.46,0,0,.01-.04.03-.1,0-.03.02-.08.02-.12,0-.05.01-.1.01-.16,0-.12-.01-.26-.05-.4-.04-.14-.1-.29-.19-.42-.09-.13-.2-.24-.32-.33-.12-.09-.24-.15-.35-.19-.06-.02-.11-.03-.15-.04-.05,0-.09-.02-.12-.02-.07,0-.11-.01-.11-.01-.03,0-.07,0-.12,0-.03,0-.06,0-.09,0-.03,0-.07,0-.1.01-.04,0-.08.01-.12.02-.04.01-.08.02-.13.04-.09.03-.18.06-.28.09-.4.13-.89.3-1.36.46-.95.32-1.82.61-1.74.57-.31.11-.55.19-.76.27-.2.07-.37.13-.52.19-.18-.07-.34-.14-.52-.22-.19-.08-.41-.17-.68-.28-.95-.43-1.65-.75-2.89-1.26,2.36,1.04,3.36,1.48,4.09,1.8.53-.18.97-.33,1.6-.54.63-.22,1.46-.5,2.78-.95-.03.01-.12.05-.24.09l-4.14,1.43-7.59-3.3c-.07-.03-.07-.04-.04-.03.02,0,.06.02.12.04.05.02.12.05.19.07.31.12.73.3.83.33-.46-.2-.84-.36-1.15-.5.38-.15.69-.28.97-.39.31-.13.59-.24.88-.36.58-.24,1.2-.49,2.22-.88-3.81,1.54,1.39-.52,2.65-1-.7.24-1.98.72-4.47,1.69l5.5-2.17,4.62,1.77c.33.12.67.11.97,0,.34-.13.62-.4.76-.77.27-.69-.08-1.47-.77-1.74l-1.88-.72,3.54-1.39c.69-.27,1.03-1.05.76-1.74-.27-.69-1.05-1.03-1.74-.76l-3.54,1.4.88-1.81c.23-.47.16-1-.13-1.4-.01-.02-.02-.03,0-.02-.01-.02-.03-.04-.05-.06-.01-.02-.03-.03-.05-.05-.11-.11-.23-.21-.38-.28-.67-.32-1.47-.05-1.8.62l-.69,1.43c.06-.13.13-.28.21-.46.07-.14.14-.3.23-.48.04-.09.09-.19.14-.29.05-.1.1-.21.16-.32-.02.04-.04.08-.06.11-.02.04-.04.08-.06.12-.04.08-.08.16-.12.24-.08.17-.17.34-.26.51-.17.35-.36.72-.55,1.11-.38.77-.78,1.59-1.19,2.43-.72.28-1.44.57-2.15.85-.71.28-1.41.56-2.07.82-1.25.5-2.34.94-3.08,1.25l-.27.11c-.1.04-.19.07-.26.1.28-.61.21-.43.05-.05.84-.34,2.82-1.15,3.66-1.48-1.28.5-2.49.98-3.57,1.4,1.17-2.68,2.24-5.15,3.3-7.57.82-.36,1.64-.73,2.46-1.09.41-.19.83-.37,1.25-.56.21-.09.42-.19.63-.28l.16-.07.08-.04s.06-.03.08-.04l.08-.05s.05-.04.07-.06c.05-.04.09-.08.14-.12.08-.09.16-.19.22-.3.06-.11.1-.22.14-.34l.02-.09s0-.06.01-.09c.01-.06.01-.12.01-.19,0-.12-.02-.25-.05-.37-.03-.12-.08-.23-.14-.34-.03-.05-.06-.11-.11-.15-.02-.02-.04-.05-.06-.07l-.07-.07s-.04-.04-.07-.06c-.02-.02-.05-.04-.07-.06-.05-.03-.1-.07-.16-.1-.11-.06-.23-.11-.35-.14-.12-.03-.25-.04-.38-.05-.03,0-.06,0-.09,0h-.05s-.05.01-.05.01l-.09.02-.09.02h-.05s-.04.03-.04.03l-.09.03-.17.07c-.11.05-.22.1-.33.15-.38.17-.76.34-1.15.51.25-.57.5-1.16.76-1.76.15-.33.29-.67.44-1.01.07-.17.15-.34.22-.51.08-.18.12-.39.12-.59,0-.02-.01-.06-.02-.1-.01-.04-.02-.1-.04-.17-.03-.13-.09-.31-.22-.49-.02-.02-.03-.05-.05-.07-.02-.02-.04-.05-.06-.07-.04-.05-.09-.09-.13-.13-.1-.08-.22-.16-.36-.22-.14-.06-.3-.1-.46-.1-.17,0-.35.02-.52.08,0,0-.01,0-.04.01-.02,0-.06.02-.1.04-.08.03-.18.09-.27.16-.02.02-.04.04-.07.05-.02.02-.04.03-.06.06-.04.04-.08.07-.1.11-.03.03-.05.06-.07.08-.01.02-.02.03-.02.03.03-.05.05-.07.06-.07,0,0,0,0-.01.03-.02.04-.06.11-.07.13,0,.01,0,.01.01,0,0,0,0,0,.01-.01-.03.05-.06.1-.08.16l-1.52,3.49-.66-1.9c-.24-.7-1.01-1.07-1.71-.83-.7.24-1.08,1.01-.83,1.71l1.35,3.9c-.06-.16-.12-.32-.19-.5-.18-.49-.39-1.06-.64-1.75.2.57.39,1.1.56,1.6.17.5.34.97.49,1.42-.57,1.31-1.07,2.46-1.6,3.67-.27.61-.54,1.24-.83,1.9-.28.64-.57,1.33-.9,2.08-.18-.44-.36-.9-.56-1.4.04.09.12.28.22.53.09.22.21.5.34.82.07-.17.15-.35.23-.54.1-.23.2-.47.31-.72.21-.49.43-1,.64-1.49.42-.97.79-1.85.99-2.3-.38.89-.92,2.13-1.37,3.16-.22.52-.43.98-.58,1.33-.04.09-.07.17-.1.24-.01.03-.02.05-.03.07,0,.01-.01.03-.02.04-.02.05-.04.07-.04.07v.05s-.06-.06-.09-.11c-.15-.38-.26-.66-.34-.86-.08-.21-.13-.33-.15-.4-.05-.13,0,0,.08.17.16.37.42,1,.23.48-1.45-3.68-1.6-3.98-1.68-4.08-.04-.05-.05-.05-.2-.39-.04-.09-.09-.21-.16-.37l-.82-2.08.38-.99c.1-.25.22-.56.35-.9l.88-2.28c-.03.1-.05.16-.06.19-.03.1.06-.09.12-.22.05-.14.1-.27.14-.4.04-.13.07-.26.08-.39,0-.26-.05-.5-.15-.71-.1-.21-.26-.38-.44-.51-.18-.13-.4-.21-.64-.24h-.04s-.04,0-.04,0c-.03,0-.06,0-.09,0-.06,0-.12,0-.18.02-.12.02-.24.06-.36.11-.12.05-.23.13-.34.23-.06.05-.1.1-.15.16-.02.03-.04.06-.07.09-.02.03-.04.07-.06.1-.08.14-.13.29-.19.44-.06.15-.12.31-.19.48-.12.31-.25.64-.39,1.01-.17-.42-.35-.89-.56-1.42,0-.03.08.17.2.46.06.15.13.32.21.5.03.07.06.14.09.21.02.05.04.1.06.15.05-.14.1-.28.14-.38.06-.16.1-.27.11-.32-.08.21-.16.43-.25.66-.1-.24-.19-.49-.3-.74-.13-.33-.26-.65-.39-.98-.13-.33-.26-.65-.39-.97-.06-.16-.13-.31-.19-.47-.06-.15-.12-.31-.22-.44-.19-.27-.46-.45-.73-.54-.14-.04-.27-.06-.4-.06-.06,0-.13,0-.19.01-.03,0-.06,0-.09.01-.03,0-.06.01-.08.02-.22.06-.39.16-.51.26-.12.1-.19.19-.23.25-.08.1-.14.21-.19.32-.05.11-.08.23-.1.35-.03.24,0,.49.1.7.17.43.33.85.49,1.25.3.78.59,1.51.86,2.18-.46-.22-.9-.44-1.32-.65-.11-.06-.22-.11-.33-.16-.11-.06-.22-.1-.34-.14l-.09-.02h-.05s-.05-.01-.05-.01h-.09s-.09,0-.09,0h-.09s-.09.01-.09.01c-.06.01-.12.02-.17.04-.11.03-.22.08-.32.13-.1.06-.19.13-.27.21-.04.04-.08.08-.11.13-.04.04-.07.09-.1.14-.06.1-.11.2-.14.3-.07.21-.08.43-.05.64.04.21.12.41.24.58-.13-.18-.2-.36-.23-.53-.03-.17-.04-.32-.02-.45,0-.03,0-.06.01-.09,0-.03.01-.06.02-.09.02-.05.03-.1.05-.15.02-.04.03-.08.05-.12.02-.03.04-.07.05-.1.03-.06.06-.1.09-.14.03-.03.05-.06.06-.08.03-.04.04-.05.05-.06,0-.01,0-.02.02-.03.01-.02.03-.05.09-.1.02-.01.03-.03.05-.04.02-.02.04-.03.07-.05.05-.04.11-.07.19-.11.08-.04.18-.08.3-.1.02,0,.05,0,.07-.01-.01,0-.03,0-.04,0-.14.02-.28.08-.42.15-.13.07-.26.17-.37.29-.11.12-.2.26-.27.42-.14.31-.16.69-.03,1.04.06.17.16.34.29.48.13.14.3.26.47.34,1.36.64,2.88,1.37,4.42,2.1.26.64.52,1.28.78,1.92l2.14,5.44s-.06-.1-.17-.33c.11.28.2.53.29.75-.45-.2-.8-.35-1.08-.47-.3-.13-.53-.23-.7-.3-.35-.15-.49-.2-.66-.27-.33-.13-.75-.3-3.04-1.3l2.25.99c-.07-.03-.15-.06-.22-.09l-4.4-1.91-1.15-2.58c.07.14.21.42-.11-.3-.19-.39-.42-.9-.69-1.49-.02-.04-.03-.07-.05-.11v-.03c-.18-.36-.48-.62-.83-.73,0,0,0,0,0,0-.02,0-.03-.01-.05-.02,0,0-.02,0-.03,0-.01,0-.02,0-.03,0-.02,0-.03,0-.05,0,0,0,0,0-.01,0-.21-.04-.43-.03-.64.04-.18.05-.35.15-.49.27-.14.12-.26.28-.34.45-.08.17-.12.36-.13.55,0,.19.03.38.11.55.28.64.55,1.25.78,1.78-.29-.12-.55-.24-.77-.34l.66.28-3.01-1.34s0,0-.01,0c-.05-.02-.11-.04-.15-.05-.16-.07-.35-.11-.57-.11-.21,0-.45.06-.66.18-.22.12-.42.31-.55.55-.07.12-.12.26-.15.4-.03.14-.04.3-.02.45.03.31.17.61.4.85.12.12.26.22.41.29.04.02.08.03.11.05.04.02.07.03.11.05.07.03.15.06.22.1.6.26,1.22.53,1.87.81.09.03.23.09.41.17.12.05.28.12.45.19-.23.08-.5.17-.79.28-.19.06-.38.13-.57.2-.1.03-.2.07-.3.1-.05.02-.11.04-.16.06-.05.03-.1.05-.15.08-.4.24-.68.71-.67,1.2,0,.24.06.49.18.7.11.22.29.39.49.52.2.12.43.2.66.21.12,0,.23,0,.34-.02.03,0,.06-.01.08-.02s.05-.01.08-.02c.05-.01.1-.03.15-.05.39-.14.76-.26,1.09-.38.66-.23,1.16-.41,1.41-.5-.56.19-1.07.37-1.62.57-.27.09-.56.19-.86.3-.04.01-.08.03-.11.04-.04.01-.08.02-.12.04-.08.02-.17.03-.26.04-.18.01-.37-.01-.55-.08,0,0,.01,0,.04,0,.02,0,.05.01.08.01.03,0,.06,0,.08,0,.02,0,.04,0,.04,0,.17.03.32.02.44,0,.03,0,.06-.01.09-.02.03,0,.06-.02.08-.02.06-.02.1-.03.15-.05.18-.06.3-.1.39-.13.17-.05.19-.06.2-.06.03,0,.04,0,1.23-.43-.11.02-.38.11-.75.24-.19.06-.4.14-.62.21-.12.04-.23.08-.36.12-.06.02-.12.04-.19.07-.03.01-.06.02-.1.03l-.05.02h-.05c-.13.04-.28.04-.42.03-.14-.02-.28-.05-.42-.11-.13-.06-.25-.14-.36-.24-.11-.1-.2-.22-.27-.34-.02-.03-.04-.06-.05-.1-.01-.03-.03-.07-.04-.1-.01-.03-.02-.07-.03-.1-.01-.03-.02-.07-.02-.1-.02-.07-.02-.14-.03-.21,0-.07,0-.14.01-.21,0-.07.02-.13.04-.2.02-.06.04-.13.07-.18.02-.06.06-.11.08-.17.02-.03.03-.05.05-.08.02-.02.03-.05.05-.07-.1.14-.19.31-.25.5-.05.2-.06.42,0,.65,0,.03.02.06.02.09,0,.03.01.06.03.08.02.06.04.11.08.17.06.11.13.21.22.31.09.1.2.18.32.24.03.01.06.03.09.05.03.01.06.03.1.04.04.01.07.02.11.03-.04-.01-.07-.02-.1-.04.08.03.16.05.24.07-.01,0-.03,0-.04,0,.21.05.43.03.64-.03.05-.01.1-.03.15-.05l.15-.05.31-.1c.4-.14.8-.28,1.19-.42l1.67-.57c-.13.06-.08.05.38-.11.34-.11.64-.22.89-.3.32.14.6.26.85.37.26.11.48.21.69.3.41.17.73.31,1.03.43.28.12.54.22.83.34l2.35,1.02c.12.06.19.09.27.13.1.05.23.11.49.23.14.06.31.14.53.24.2.09.45.2.76.33-.16.06-.41.16-.69.27l.67-.27-1.43-.6c.35.16.64.29.89.4.11.05.21.09.3.13.06.02.1.05.15.07-.33.14-.57.24-.83.35-.33.14-.71.29-1.31.52.27-.1.42-.15.72-.26.15-.06.34-.13.6-.23.24-.09.55-.22.97-.38-.03-.01-.09-.04-.16-.07-.04-.02.03,0,.2.07-.09.04-.2.08-.34.14-.15.06-.32.13-.49.2-.34.14-.7.28-.96.38l.47-.18s-.08.03-.11.05l-6.01,2.37s-.06.02-.08.03l.65-.26c-.37.15-.74.3-1.1.44-.63-.24-1.25-.48-1.83-.7l-1.9-.73.05.02c-.1-.04-.19-.07-.28-.1l-.66-.25c-.61-.23-1.28,0-1.61.53.03-.06.05-.08.01-.03-.01.02-.03.05-.06.09-.01.02-.03.04-.04.07-.01.03-.03.06-.04.1-.01.04-.03.08-.04.12-.01.05-.02.1-.03.15-.01.11-.03.24,0,.39,0-.04-.02-.12-.02-.23,0-.11.02-.25.08-.41.06-.16.15-.33.3-.48.15-.15.35-.29.58-.36.12-.04.25-.06.38-.06.13,0,.26.01.4.05.13.04.25.09.38.14.13.05.26.1.39.15.52.2,1.04.4,1.55.6-2-.78-3-1.2-.54-.26-.33-.14-.91-.36-1.57-.61l-.06-.02-.07-.02-.07-.02h-.07s-.07-.03-.07-.03h-.07s-.07-.01-.07-.01h-.07c-.19,0-.39.04-.57.11-.18.08-.35.19-.48.33-.13.14-.23.3-.3.48.06-.12.04-.07.01,0-.01.06-.03.12-.03.12,0,0,0,.01,0,.02,0,.02-.01.05-.02.09-.02.08-.03.19-.03.32,0,.14.03.3.1.47.07.17.17.34.33.49.04.04.08.07.12.11.02.02.04.03.07.05.02.02.05.03.07.05.05.03.1.06.15.08.03.01.05.02.08.03l.08.03c.2.08.41.16.62.23.21.08.42.16.61.23.16.06.31.11.45.16-.26.11-.49.2-.66.27-.2.08-.31.13-.33.14l1.03-.42-1.21-.45s.13.03.39.12c.26.09.6.22.91.33-.1.04-.21.09-.3.13l-3.07,1.21c-.69.27-1.03,1.05-.76,1.74.27.69,1.05,1.03,1.74.76l3.39-1.34-.88,1.81c-.32.67-.05,1.47.62,1.8.35.17.74.18,1.08.04.3-.12.56-.35.72-.66l1.19-2.45s0,0,0,0c-.01.06-.22.52.14-.17.22-.45.4-.81.54-1.11.07-.15.14-.28.19-.4.05-.11.1-.21.14-.29.13-.05.23-.09.31-.13.08-.03.14-.06.19-.08.09-.04.12-.06.14-.08.02-.01.03-.02.06-.04l7.3-2.88-3.44,7.91-3.02,1.35s.1-.06.38-.19c-1.74.77-.96.44-.73.35l-1.14.51c-.51.23-.81.73-.8,1.25,0,0,0,0,0,0,0,.02,0,.03,0,.04,0,.02,0,.03,0,0,0-.02,0-.04,0-.08v-.06s0-.05,0-.08c.01-.12.05-.31.18-.55-.07.11-.11.22-.15.33-.03.11-.05.21-.05.31,0,.19.02.36.07.49.1.26.22.41.31.49.02.02.04.04.06.06.02.02.04.03.05.04.02.01.03.02.05.03.01,0,.03.02.04.02,0,0,0,0,0,0,.36.26.84.33,1.28.16.02,0,.04-.02.06-.02l1.84-.82-.76,1.74c-.14.31-.26.57-.35.76-.14.32-.27.61-.37.87-.11.27-.11.53-.07.75.05.22.14.4.24.54.1.14.22.24.32.31.03.02.06.04.09.05.05.03.1.05.15.08.34.15.71.14,1.03.02.32-.13.59-.37.74-.72l.2-.46c-.16.38-.25.62-.21.56.3-.71.55-1.3.78-1.85.23-.55.45-1.05.68-1.59,0,0,0,0,0,0l.66,1.9c.24.7,1.01,1.07,1.71.83.02,0,.04-.01.06-.02.67-.26,1.01-1.01.78-1.69l-1.61-4.68,3.44-7.91,3.16,8.02-1.77,4.62c-.26.69.08,1.47.77,1.74.33.13.67.11.97,0,.34-.13.62-.4.76-.77l.72-1.88,1.34,3.39c.27.69,1.05,1.03,1.74.76.69-.27,1.03-1.05.76-1.74l-.79-2s0,0,0,0c-.13-.33-.23-.61-.32-.83-.09-.22-.15-.39-.21-.54.23.11.39.18.53.25.02.01.04.02.07.03l1.2.59c.2.09.4.14.61.14-.12,0-.23,0-.34-.03-.07-.02-.14-.04-.21-.06-.07-.03-.13-.06-.19-.08-.25-.11-.5-.23-.78-.36.21.1.4.19.57.27.09.04.17.08.25.12.08.04.15.07.23.1.31.1.58.08.8.02.22-.06.39-.16.53-.29.07-.06.13-.13.19-.21.06-.07.11-.15.15-.24.23-.48.16-1.03-.15-1.42-.04-.06.02,0-.02-.06-.09-.1-.19-.19-.3-.25-.05-.03-.11-.06-.16-.09-.05-.02-.1-.05-.15-.07-.2-.09-.37-.18-.54-.25-.03-.01-.05-.02-.08-.03l-3.67-1.79-.29-.74c-.02-.06-.11-.28-.33-.83l-2.55-6.46,2.24.97c.08.03.15.07.22.1.28.13.47.21.54.25.08.03.22.08.41.16l4.33,1.88h.02s1.51,3.44,1.51,3.44c.17.42-.05-.05-.39-.82-.17-.38-.38-.84-.58-1.3-.2-.45-.4-.9-.57-1.27-.11-.05-.2-.08-.28-.12.11.05.21.09.28.12.4.91.67,1.52.88,1.97.2.46.34.75.46,1.02s.24.52.41.89c.08.18.18.39.3.65.06.13.15.26.28.38.12.12.28.23.47.3.15.06.32.09.5.09.18,0,.37-.04.54-.12.35-.16.65-.5.75-.91.05-.2.05-.42,0-.62,0,0,0-.01,0-.02-.02-.08-.04-.15-.08-.23l-.82-1.84,1.94.84c-.09-.04-.18-.07-.27-.11.69.3,1.12.49,1.43.63.15.07.28.12.38.17.11.05.2.08.3.1.1.02.2.03.32.03s.25-.02.41-.08c.16-.06.34-.16.52-.35.09-.1.17-.21.24-.35.06-.14.11-.31.12-.5,0,.13-.04.27-.1.41-.06.14-.14.28-.26.4"/></g></svg>