<?xml version="1.0" encoding="UTF-8"?><svg id="Calque_2" xmlns="http://www.w3.org/2000/svg" viewBox="0 0 160.97 104.54"><defs><style>.cls-1{fill:#009dd9;}.cls-1,.cls-2{stroke-width:0px;}.cls-2{fill:#fff;}</style></defs><g id="Calque_1-2"><path class="cls-1" d="m106.62,53.35c0,8.83,0,17.66,0,26.49,0,.99,0,1.99-.25,2.97-.56,2.11-1.79,3.29-3.93,3.38-3.27.14-6.54.14-9.82.24-.68.02-1-.43-1.38-.8-5.66-5.47-10.88-11.35-16.17-17.18-6.2-6.83-12.39-13.67-19.42-19.68-5.03-4.3-10.36-8.15-16.66-10.38-4.35-1.54-8.78-2.35-13.38-1.16-6.29,1.63-10.53,7.08-11.27,13.71-.9,8.07,1.28,15.54,4.67,22.75,1.04,2.2,2.24,4.31,3.6,6.34.26.38.53.7.02,1.11-3.03,2.41-6.36,3.96-10.35,3.43-1.89-.25-3.26-1.42-4.41-2.86-2.24-2.82-3.6-6.1-4.78-9.45C.93,66.18-.08,59.89,0,53.47c.09-6.92,1.27-13.63,4.74-19.77,4.34-7.69,10.9-12.2,19.58-13.68,8.68-1.47,16.5.97,23.91,5.25,7.28,4.2,13.54,9.71,19.54,15.53,6.71,6.51,12.9,13.52,19.45,20.19.89.91,1.84,1.77,2.71,2.71.46.5,1.02.54,1.52.36.52-.18.26-.77.26-1.16-.02-6.99-.03-13.98-.12-20.97-.08-5.55-.25-11.09-.42-16.64-.12-3.79,1.25-5.29,5.03-5.33,2.35-.02,4.71-.02,7.06.07,2.3.09,3.13.97,3.27,3.25.29,4.75.09,9.5.1,14.25,0,5.27,0,10.55,0,15.82h-.03Z"/><path class="cls-2" d="m109.06,25.89c-.12-1.56-.17-3.1-.6-4.59-.49-1.66-1.48-2.88-3.21-3.18-4.47-.75-8.94-.87-13.44.37-.11-2.67-.23-5.39-.34-8.11-.07-1.95-.6-3.87-.3-5.84.26-1.68.99-2.59,2.64-2.99,2.3-.56,4.66-.73,7.01-.45,3.18.39,5.26,2.93,5.5,6.55.12,1.84.04,3.67-.24,5.49-.04.25-.42.62.07.81.49.19.7-.17.92-.53,2.19-3.53,5.1-6.35,8.66-8.44,11.59-6.8,28.75-6.15,38.27,10.04,3.17,5.39,4.99,11.25,5.99,17.39.96,5.89,1.29,11.83.69,17.77-1.06,10.46-4.47,19.88-12.63,27.02-11.68,10.22-29.57,8.01-38.39-4.7-.49-.71-.76-1.42-.75-2.31.04-4.35.02-8.7.02-13.35.86,1.41,1.52,2.59,2.28,3.73,2.61,3.92,5.75,7.28,10.2,9.11,8.58,3.54,17.38-.21,21.08-8.94,1.85-4.35,2.56-8.92,2.69-13.62.17-6.13-.22-12.19-2.02-18.1-1.13-3.73-2.76-7.22-5.37-10.16-6.07-6.82-16.09-7.2-23-.91-2.46,2.24-4.26,4.93-5.72,7.93Z"/><path class="cls-2" d="m9.2,86.33c5.31,3.37,10.12,1.74,14.82-1.06,1.68-1,1.62-1.1,2.78.39,5.95,7.6,16.19,8.47,23.7,1.99,4.25-3.67,6.55-8.43,7.64-13.86.51-2.52.59-5.06.59-7.62,0-3.86,0-7.73,0-11.86,1.7,1.65,3.28,3.13,4.81,4.67,3.17,3.21,6.26,6.49,9.28,9.84.47.52.64,1.03.64,1.7-.03,7.66.04,15.33.29,22.99.07,2.19.53,4.35.48,6.56-.06,2.38-.96,3.57-3.28,3.97-2.32.39-4.65.77-7,.2-2.51-.61-3.96-2.25-4.6-4.67-.62-2.36-.46-4.74-.08-7.12.05-.31.32-.76-.1-.97-.47-.23-.68.2-.91.54-5.02,7.64-12.21,11.67-21.2,12.36-11.68.9-20.02-4.53-25.87-14.3-.73-1.21-1.33-2.5-1.99-3.76Z"/><path class="cls-2" d="m62.24,32.54c-.4-.33-.78-.63-1.21-.98-2.19-2.28-1.92-3.55-2.15-8.14-.32-6.2-.32-9.88-.7-15.68-.09-1.29-.21-2.59,0-3.88.26-1.69,1.21-2.83,2.88-3.31,3.02-.87,6.02-.69,8.93.4,3.04,1.14,4.45,3.78,4.34,7.5-.18,6.22-.34,12.45-.42,18.68-.07,5.39-.01,10.79-.01,16.18-3.74-3.74-7.55-7.4-11.64-10.77Z"/><path class="cls-2" d="m97.14,88.6c1.72-.12,3.76.13,5.78-.22,1.23-.21,2.41-.54,3.41-1.34.2-.16.62-.59.6.05-.09,4.58.75,9.15.09,13.73-.24,1.65-1.33,2.64-2.95,2.86-3.05.43-6.14.38-9.19.08-2.52-.25-3.83-1.89-3.85-4.52-.03-3.35.12-6.7.18-10.05,0-.43.09-.62.61-.61,1.67.05,3.35.02,5.33.02Z"/></g></svg>