<?xml version="1.0" encoding="UTF-8"?><svg id="Calque_2" xmlns="http://www.w3.org/2000/svg" viewBox="0 0 630.76 589.41"><defs><style>.cls-1{fill:#FFF;}.cls-1,.cls-2,.cls-3{stroke-width:0px;}.cls-2{fill:#f8921d;}.cls-3{fill:#00a99e;}</style></defs><g id="Calque_2-2"><g id="Calque_1-2"><path class="cls-3" d="m256.37,254.61s3.95-7.41,2.36-14.49c-1.6-7.09-11.1-20.77-27.19-20.87-16.08-.1-37.69,3.83-42.34-2.57,0,0,22.74,58.18,56.37,50.6,1.1-.25,2.53-1.05,3.86-1.99.68-.61,1.62-1.31,1.95-2.54.33-1.22-.61-2.89-.61-2.89-10.48-16.89-13.17-28.02-42.29-28.92,0,0,30.57-6.88,47.89,23.66h0Z"/><path class="cls-2" d="m479.67,124.94c-38.69,5.42-43.15,25.72-58.4,57.35,0,0-1.39,3.11-1.04,5.26.34,2.15,1.53,3.29,2.39,4.29,1.69,1.5,3.52,2.75,4.96,3.05,44.01,9.14,78.81-98.05,78.81-98.05-6.68,12.07-35.03,7.87-56.37,10.16-21.35,2.3-35.05,28.05-37.73,40.96-2.68,12.9,1.98,25.65,1.98,25.65,25.4-56.98,65.42-48.67,65.42-48.67h-.02Z"/><path class="cls-3" d="m445.27,28.68c-39.49,5.53-44.03,26.25-59.6,58.53,0,0-1.42,3.17-1.07,5.37.35,2.19,1.56,3.36,2.44,4.37,1.73,1.53,3.59,2.81,5.06,3.11C437.03,109.4,472.53,0,472.53,0c-6.82,12.32-35.75,8.03-57.53,10.37-21.79,2.34-35.77,28.63-38.5,41.8-2.74,13.17,2.02,26.18,2.02,26.18,25.93-58.15,66.76-49.67,66.76-49.67h-.01Z"/><path class="cls-3" d="m327.91,39.07c-31.91,21.05-27.31,40.86-27.5,75.22,0,0,.08,3.33,1.29,5.09,1.21,1.76,2.74,2.26,3.91,2.78,2.12.61,4.27.95,5.66.61,42.73-10.42,28.42-119.75,28.42-119.75-.83,13.48-27.64,21.67-45.54,32.67-17.9,11-19.18,39.52-16.12,52.05,3.05,12.53,12.53,21.83,12.53,21.83-1.5-61.02,37.35-70.49,37.35-70.49h0Z"/><path class="cls-2" d="m367.33,134.84c-23.14,9.61-22.63,22.93-26.99,45.03,0,0-.36,2.15.2,3.43s1.48,1.79,2.17,2.27c1.29.66,2.63,1.14,3.57,1.09,28.8-1.43,33.09-73.59,33.09-73.59-2.2,8.57-20.47,10.54-33.35,15.41-12.88,4.87-17.22,23.07-16.81,31.52.42,8.44,5.37,15.6,5.37,15.6,6.57-39.47,32.75-40.77,32.75-40.77h0Z"/><path class="cls-3" d="m290.82,199.87c-12.24.5-14.26,6.7-20,16.1,0,0-.53.93-.49,1.61s.38,1.07.61,1.41c.48.52,1.01.97,1.45,1.1,13.46,4.21,27.62-28.17,27.62-28.17-2.46,3.56-11.18,1.37-17.91,1.43s-11.8,7.68-13.04,11.62c-1.24,3.95-.17,8.07-.17,8.07,9.69-17,21.92-13.17,21.92-13.17h0Z"/><path class="cls-2" d="m353.8,228.3s1.21-4.71-.2-9.22c-1.41-4.51-7.21-13.22-14.91-13.28-7.7-.07-17.66,2.43-20.48-1.64,0,0,16.2,37.02,31.58,32.21.5-.16,1.11-.67,1.66-1.26.27-.39.65-.83.7-1.61s-.56-1.84-.56-1.84c-6.56-10.75-8.86-17.83-22.86-18.4,0,0,13.99-4.38,25.06,15.06v-.02Z"/><path class="cls-2" d="m263.12,184.5s5.6-6.3,6.99-14.37-.64-26.08-12.46-32.28c-11.81-6.2-29.15-10.23-30.26-18.74,0,0-4.35,69.89,23.17,74.65.9.16,2.24-.15,3.56-.63.72-.38,1.67-.77,2.36-1.93.69-1.16.6-3.28.6-3.28-1.6-21.76.46-34.51-20.67-46.47,0,0,25.02,4.33,26.7,43.05h.01Z"/><path class="cls-2" d="m232.83,78.92s5.27-9.66,4.68-20.34c-.59-10.68-8.48-32.99-25.33-37.41-16.85-4.42-40.1-4.46-44-14.95,0,0,14.98,90.19,51.4,88.16,1.19-.07,2.81-.85,4.35-1.85.81-.7,1.9-1.47,2.43-3.15s-.2-4.34-.2-4.34c-8.42-27.21-9.55-44.04-39.93-53.05,0,0,33.1-1.84,46.61,46.93h0Z"/><path class="cls-3" d="m146.75,344.13s-9.38-8.28-21.35-10.31c-11.98-2.03-38.69,1.07-47.83,18.62s-15.05,43.29-27.66,44.97c0,0,103.69,6.15,110.62-34.7.23-1.34-.24-3.33-.95-5.28-.57-1.07-1.15-2.47-2.88-3.49s-4.86-.87-4.86-.87c-32.27,2.47-51.19-.53-68.84,30.86,0,0,6.31-37.13,63.74-39.8h.01Z"/><path class="cls-3" d="m222.25,453.33s-12.63-11.15-28.76-13.89c-16.13-2.74-52.11,1.44-64.42,25.08-12.31,23.64-20.28,58.31-37.26,60.58,0,0,139.67,8.28,149.01-46.74.31-1.8-.32-4.48-1.28-7.11-.77-1.44-1.54-3.33-3.87-4.7-2.33-1.37-6.55-1.17-6.55-1.17-43.47,3.32-68.95-.71-92.73,41.57,0,0,8.5-50.02,85.87-53.61h0Z"/><path class="cls-2" d="m231.48,313.83s-1.81-8.92-7.87-15.35c-6.06-6.44-22.92-16.36-35.93-10.18-13.01,6.17-27.73,18.52-35.79,13.96,0,0,57.48,49.07,79.43,28.41.72-.68,1.32-2.03,1.77-3.48.14-.87.42-1.94-.14-3.29-.56-1.35-2.44-2.64-2.44-2.64-19.81-12.73-29.48-22.77-53.49-12.3,0,0,19.96-18.78,54.46,4.88h0Z"/><path class="cls-2" d="m74.54,302.13s-1.69-8.35-7.37-14.38c-5.67-6.03-21.47-15.32-33.65-9.54s-25.97,17.34-33.52,13.07c0,0,53.83,45.96,74.39,26.61.67-.63,1.24-1.9,1.65-3.26.13-.81.39-1.81-.13-3.08-.52-1.26-2.29-2.47-2.29-2.47-18.55-11.92-27.6-21.33-50.1-11.52,0,0,18.69-17.59,51,4.57h.02Z"/><path class="cls-2" d="m256,378.87s-6.38-6.47-14.96-8.54-28.1-1.16-35.6,11.11c-7.5,12.26-13.07,30.63-22.3,31.21,0,0,74.85,9.64,81.92-19.62.23-.96,0-2.42-.43-3.88-.36-.8-.71-1.85-1.91-2.67-1.2-.82-3.48-.87-3.48-.87-23.51.17-37.08-2.94-51.44,18.93,0,0,6.43-26.6,48.19-25.66h0Z"/><path class="cls-2" d="m89.46,446.12s-6.76-6.85-15.84-9.04-29.75-1.23-37.69,11.76c-7.94,12.99-13.84,32.43-23.61,33.05,0,0,79.25,10.21,86.74-20.78.24-1.01,0-2.56-.45-4.1-.38-.85-.75-1.96-2.02-2.83s-3.69-.93-3.69-.93c-24.9.19-39.26-3.11-54.47,20.04,0,0,6.81-28.17,51.03-27.17Z"/><path class="cls-3" d="m198.88,173.34s6.86-12.57,6.08-26.45c-.77-13.88-11.02-42.9-32.93-48.65-21.91-5.74-52.14-5.8-57.22-19.44,0,0,19.48,117.28,66.83,114.65,1.55-.09,3.65-1.11,5.65-2.4,1.05-.91,2.47-1.91,3.16-4.1s-.26-5.65-.26-5.65c-10.95-35.39-12.42-57.26-51.93-68.99,0,0,43.05-2.4,60.61,61.03h.01Z"/><path class="cls-3" d="m162.25,259.21s.2-13.78-6.69-25.25-28.64-31.58-49.87-26.64-46.99,18.46-57.44,9.12c0,0,69.21,91.11,108.35,67.62,1.28-.77,2.61-2.58,3.73-4.58.49-1.24,1.25-2.73.86-4.91s-2.76-4.69-2.76-4.69c-25.2-25.22-36.26-43.18-75.17-35.44,0,0,35.58-21.36,78.99,24.77h0Z"/><path class="cls-2" d="m115.79,175.2s.87-8.03-2.91-14.34c-3.79-6.31-16.62-16.84-30.48-12.82-13.86,4.03-31.08,13.29-37.26,8.42,0,0,39.37,49.32,65.69,33.52.86-.52,1.81-1.65,2.64-2.87.38-.75.95-1.66.81-2.9-.13-1.25-1.51-2.58-1.51-2.58-14.77-13.32-20.88-23.19-46.2-16.57,0,0,23.93-14.36,49.22,10.15h0Z"/><path class="cls-3" d="m593.97,119.89c-39.49,5.53-44.03,26.25-59.6,58.53,0,0-1.42,3.17-1.07,5.37.35,2.19,1.56,3.36,2.44,4.37,1.73,1.53,3.59,2.81,5.06,3.11,44.92,9.33,80.42-100.06,80.42-100.06-6.82,12.32-35.75,8.03-57.53,10.37-21.79,2.34-35.77,28.63-38.5,41.8-2.74,13.17,2.02,26.18,2.02,26.18,25.93-58.15,66.76-49.67,66.76-49.67Z"/><path class="cls-2" d="m566.73,231.55c-39.21-9.89-51.39,7.84-78.35,32.21,0,0-2.54,2.44-3.05,4.63s.19,3.75.62,5.04c1.04,2.09,2.3,4.01,3.57,4.86,38.63,25.93,113.78-63.27,113.78-63.27-11.11,8.97-36.65-6.12-58.01-12.24-21.36-6.12-44.54,13.23-52.14,24.56-7.6,11.33-8.11,25.36-8.11,25.36,46.57-44.72,81.69-21.15,81.69-21.15h0Z"/><path class="cls-3" d="m453.35,222.13c-25.26.72-29.57,13.46-41.64,32.7,0,0-1.11,1.9-1.05,3.31.07,1.41.75,2.22,1.23,2.93.98,1.08,2.07,2.02,2.97,2.31,27.64,9.02,57.66-57.41,57.66-57.41-5.16,7.28-23.08,2.56-36.97,2.51-13.89-.05-24.53,15.53-27.18,23.64-2.64,8.1-.56,16.63-.56,16.63,20.4-34.82,45.53-26.62,45.53-26.62h.01Z"/><path class="cls-2" d="m413.46,302.41c-24.36-7.66-32.68,3.07-50.56,17.45,0,0-1.69,1.45-2.09,2.81-.4,1.37-.02,2.37.21,3.2.58,1.36,1.3,2.61,2.07,3.19,23.41,17.75,74.03-35.74,74.03-35.74-7.33,5.25-22.88-5.19-36.12-9.83-13.24-4.64-28.56,6.72-33.76,13.58s-6.04,15.69-6.04,15.69c30.99-26.49,52.27-10.35,52.27-10.35h-.01Z"/><path class="cls-2" d="m604.43,320.89c-23.79-10.67-33.52-.78-53.37,11.67,0,0-1.89,1.26-2.46,2.6s-.3,2.4-.17,3.27c.43,1.45,1.01,2.8,1.72,3.48,21.63,20.79,79.35-27.43,79.35-27.43-8.06,4.45-22.59-7.99-35.47-14.27s-29.77,3.41-35.86,9.75c-6.1,6.34-7.99,15.2-7.99,15.2,34.59-23.18,54.25-4.28,54.25-4.28h0Z"/><path class="cls-3" d="m512.38,376.45c-18.96-32.56-38.7-29.13-72.5-31.21,0,0-3.28-.1-5.08.99s-2.38,2.57-2.95,3.7c-.72,2.06-1.17,4.14-.91,5.54,7.9,42.63,116.28,34.57,116.28,34.57-13.22-1.56-19.8-28.4-29.64-46.62s-37.83-21.05-50.33-18.73c-12.5,2.32-22.18,11.12-22.18,11.12,60.13,1.89,67.31,40.64,67.31,40.64h0Z"/><path class="cls-3" d="m414.59,411.15c-11-23.39-24.7-22.23-47.68-25.68,0,0-2.24-.27-3.53.37s-1.78,1.61-2.24,2.35c-.61,1.36-1.05,2.76-.96,3.73,2.84,29.61,77.39,30.61,77.39,30.61-8.94-1.86-11.83-20.6-17.46-33.64s-24.59-16.66-33.27-15.82c-8.68.83-15.82,6.27-15.82,6.27,40.98,4.9,43.57,31.81,43.57,31.81h0Z"/><path class="cls-2" d="m501.37,506.14c-22.51-40.99-47.12-37.35-89-40.97,0,0-4.07-.23-6.33,1.07-2.26,1.3-3.03,3.11-3.78,4.49-.95,2.53-1.58,5.11-1.3,6.85,8.48,53.14,143.21,46.51,143.21,46.51-16.35-2.35-23.69-35.85-35.33-58.76s-46.29-27.29-61.87-24.81c-15.58,2.49-27.86,13.11-27.86,13.11,74.56,4.21,82.26,52.51,82.26,52.51Z"/><path class="cls-3" d="m605.6,476.2c-14.42-22.62-28.37-19.61-52.47-20.12,0,0-2.34.02-3.58.85-1.25.83-1.62,1.89-2,2.71-.45,1.48-.71,2.98-.49,3.97,6.84,30.1,83.7,21.27,83.7,21.27-9.45-.73-14.9-19.63-22.42-32.31-7.52-12.68-27.51-13.89-36.34-11.89-8.82,2-15.46,8.55-15.46,8.55,42.83-.38,49.04,26.98,49.04,26.98h.02Z"/><path class="cls-1" d="m309.87,242.32c18.82,1.95,30.8,11.64,30.6,30.95-.19,18.97-11.72,30.66-30.62,30.61-18.84-.05-30.45-11.53-30.47-30.68-.02-19.2,11.53-29.2,30.49-30.89h0Z"/><path class="cls-1" d="m349.77,533.69c17.68,12.22,41.13,30.79,76.38,55.72-74.45-119-82.42-134.2-116.78-270.3-34.36,136.1-42.33,151.3-116.78,270.3,29.33-20.75,50.49-37.08,66.95-49.02,22.95-16.65,38.73-41.76,42.05-69.92.33-2.77,4.75-25.58,5.01-27.76,1.87-15.77.96,19.56,3.15,35.37,3.23,23.27,20.7,42.25,40.02,55.61h0Z"/></g></g></svg>