<svg width="293" height="150" viewBox="0 0 293 150" fill="none" xmlns="http://www.w3.org/2000/svg">
<g clip-path="url(#clip0_115_404)">
<mask id="mask0_115_404" style="mask-type:luminance" maskUnits="userSpaceOnUse" x="0" y="0" width="293" height="150">
<path d="M292.412 0H0V150H292.412V0Z" fill="white"/>
</mask>
<g mask="url(#mask0_115_404)">
<path d="M249.599 76.6932C264.874 124.028 231.851 146.817 187.81 137.952C154.497 131.252 126.41 110.142 126.558 76.1626C126.591 68.083 128.216 60.0891 131.339 52.6376C134.463 45.1861 139.024 38.4231 144.762 32.7348C150.5 27.0466 157.302 22.5447 164.781 19.4863C172.259 16.4279 180.267 14.873 188.347 14.9103C222.326 15.0522 239.173 44.3613 249.599 76.6932Z" fill="#CDDE00"/>
<path d="M17.6496 55.7185C16.4756 55.7025 15.3126 55.9469 14.2443 56.4341C13.2243 56.9045 12.3111 57.5784 11.5608 58.4143C10.7891 59.2715 10.1844 60.2653 9.77793 61.3446C8.92248 63.6108 8.92248 66.1111 9.77793 68.3773C10.1848 69.4426 10.785 70.4235 11.5484 71.2706C12.2915 72.0912 13.1886 72.7578 14.1888 73.2323C15.2537 73.725 16.4146 73.9757 17.5879 73.9665C18.8029 73.9735 20.0062 73.7299 21.1228 73.2508C22.2139 72.7885 23.2096 72.1275 24.0592 71.3014C24.9032 70.4787 25.5798 69.5004 26.0518 68.4205C26.5365 67.3161 26.7844 66.1225 26.7798 64.9165C26.7883 63.704 26.5468 62.5028 26.0703 61.3878C25.1237 59.1675 23.3554 57.3992 21.1351 56.4526C20.0218 55.9681 18.8206 55.7182 17.6064 55.7185M17.6064 46.4649C20.0377 46.4599 22.442 46.9752 24.6576 47.9763C29.0707 49.9349 32.5915 53.4734 34.5281 57.8961C35.514 60.1197 36.0166 62.5273 36.0025 64.9597L35.9593 82.5846H26.7058V80.5241C25.3244 81.1492 23.8921 81.6549 22.4244 82.0355C20.8199 82.4135 19.1744 82.5897 17.5262 82.5599C15.1546 82.5795 12.8045 82.109 10.6231 81.1781C7.43458 79.8138 4.72288 77.5337 2.83169 74.6266C0.940501 71.7195 -0.0450298 68.3164 1.29582e-05 64.8486C-0.0062069 62.4284 0.463312 60.0305 1.38188 57.7913C2.26353 55.6159 3.54636 53.6258 5.16349 51.9245C6.76011 50.2498 8.65844 48.8915 10.7588 47.9208C12.926 46.9222 15.2883 46.4186 17.6743 46.4464" fill="white"/>
<path d="M115.318 34.929L112.751 40.2591C112.588 40.5867 112.304 40.8383 111.959 40.9613C111.614 41.0843 111.235 41.0692 110.901 40.9192L105.577 38.3528C105.268 38.2067 104.99 38.001 104.761 37.7475C104.532 37.494 104.355 37.1977 104.24 36.8756C104.125 36.5534 104.075 36.2119 104.093 35.8704C104.111 35.529 104.196 35.1944 104.343 34.8858L106.915 29.5373C107.078 29.2086 107.363 28.9566 107.709 28.8355C108.055 28.7143 108.434 28.7338 108.766 28.8895L114.127 31.462C114.751 31.7596 115.231 32.2924 115.462 32.9435C115.693 33.5946 115.657 34.3109 115.361 34.9352" fill="#CDDE00"/>
<path d="M92.4492 65.0891C92.4536 63.867 92.2124 62.6565 91.7397 61.5295C91.2766 60.4223 90.6042 59.4148 89.7595 58.5622C88.909 57.7118 87.9149 57.0184 86.823 56.5141C85.7161 56.0059 84.5124 55.7428 83.2943 55.7428C82.0763 55.7428 80.8726 56.0059 79.7656 56.5141C78.6684 57.0073 77.6694 57.6949 76.8168 58.5437C75.9653 59.3989 75.2737 60.3997 74.7749 61.4987C74.2615 62.6153 73.9943 63.8292 73.9914 65.0582L73.9483 82.7387H65.5954L65.6447 65.052C65.6483 63.8244 65.3874 62.6103 64.8798 61.4925C64.3877 60.3891 63.7001 59.3838 62.8502 58.5252C61.9997 57.6748 61.0056 56.9814 59.9137 56.4771C58.8084 55.9633 57.6039 55.6979 56.385 55.6998C55.1742 55.687 53.9763 55.9485 52.881 56.4647C51.8006 56.9549 50.815 57.6315 49.9692 58.4635C49.1191 59.3095 48.4422 60.3132 47.9766 61.4185C47.4928 62.5428 47.243 63.754 47.2425 64.978L47.1932 82.6646H38.6367L38.6799 64.9842C38.6731 62.5459 39.1425 60.1297 40.0618 57.8713C40.9415 55.7023 42.2248 53.7199 43.8434 52.0292C45.4498 50.3648 47.3594 49.0227 49.4695 48.0749C51.6508 47.0953 54.0187 46.6006 56.4097 46.6251C59.0434 46.5871 61.643 47.2243 63.9606 48.4759C66.1423 49.683 68.127 51.2161 69.8458 53.0224C70.7326 52.1224 71.692 51.2971 72.7144 50.5548C73.7598 49.7857 74.8752 49.1165 76.0457 48.556C77.1947 47.9974 78.3951 47.5512 79.6299 47.2235C80.8366 46.8978 82.0815 46.736 83.3313 46.7424C85.7619 46.7386 88.1662 47.2451 90.3887 48.2291C92.5601 49.1629 94.5422 50.4864 96.237 52.1341C97.9277 53.8202 99.2878 55.8079 100.247 57.9947C101.239 60.2359 101.742 62.6629 101.721 65.1137L101.678 82.7942H92.4245L92.4492 65.0891Z" fill="white"/>
</g>
<path d="M105.162 46.714L105.081 82.8027L113.588 82.822L113.67 46.7333L105.162 46.714Z" fill="white"/>
<mask id="mask1_115_404" style="mask-type:luminance" maskUnits="userSpaceOnUse" x="0" y="0" width="293" height="150">
<path d="M292.412 0H0V150H292.412V0Z" fill="white"/>
</mask>
<g mask="url(#mask1_115_404)">
<path d="M156.527 65.2562C156.527 62.8328 157.002 60.4328 157.927 58.1927C158.803 56.0217 160.075 54.0324 161.678 52.326C163.274 50.6415 165.186 49.2874 167.304 48.3408C169.49 47.3612 171.861 46.8646 174.257 46.8849C176.767 46.8879 179.25 47.4109 181.548 48.421C183.853 49.3994 185.948 50.8132 187.717 52.5851L184.701 55.5709C183.842 56.3984 182.76 56.9563 181.588 57.1756C180.416 57.3949 179.206 57.2659 178.106 56.8047H178.069C176.841 56.3511 175.541 56.1254 174.232 56.1384C173.057 56.1246 171.895 56.3777 170.833 56.8787C169.811 57.3607 168.897 58.0424 168.143 58.8836C167.378 59.7322 166.782 60.7182 166.385 61.7893C165.967 62.9097 165.758 64.0974 165.768 65.2933L165.725 82.9737H156.471L156.527 65.2562Z" fill="white"/>
<path d="M203.578 56.2431C202.404 56.2296 201.242 56.4738 200.173 56.9587C199.151 57.4291 198.236 58.1029 197.483 58.939C196.716 59.7998 196.112 60.7927 195.7 61.8693C195.268 62.9957 195.047 64.1917 195.046 65.398C195.029 66.5964 195.239 67.7873 195.663 68.9081C196.069 69.974 196.669 70.9551 197.434 71.8014C198.188 72.6274 199.098 73.2961 200.111 73.7693C201.177 74.2576 202.338 74.5061 203.51 74.4973C204.725 74.5044 205.929 74.2608 207.045 73.7817C208.137 73.3177 209.135 72.6569 209.988 71.8323C210.834 71.009 211.511 70.0282 211.98 68.9452C212.466 67.8432 212.714 66.6514 212.708 65.4473C212.718 64.2321 212.475 63.0281 211.993 61.9125C211.057 59.6957 209.299 57.9271 207.088 56.9772C205.98 56.4981 204.786 56.2484 203.578 56.2431ZM203.578 46.9896C206.012 46.9867 208.418 47.5041 210.635 48.5072C215.055 50.4562 218.579 53.9977 220.506 58.427C221.494 60.652 221.997 63.0621 221.98 65.4967L221.937 83.1216H212.684V81.0611C211.302 81.6845 209.869 82.1901 208.402 82.5726C206.797 82.9475 205.152 83.1236 203.504 83.0969C201.131 83.1103 198.78 82.6402 196.595 81.7151C194.509 80.8241 192.613 79.5402 191.012 77.9334C189.373 76.2855 188.079 74.3278 187.206 72.1745C186.332 70.0212 185.896 67.7155 185.922 65.3918C185.919 62.9698 186.388 60.5705 187.304 58.3283C188.184 56.1461 189.465 54.1479 191.08 52.4368C192.679 50.76 194.582 49.4014 196.687 48.4331C198.852 47.4331 201.212 46.9274 203.597 46.9526" fill="white"/>
<path d="M225.435 56.1381C225.425 53.813 225.873 51.5086 226.753 49.3566C227.634 47.2047 228.93 45.2474 230.568 43.5965C232.177 41.9878 234.09 40.7131 236.194 39.8457C238.402 38.935 240.77 38.4756 243.159 38.4947V42.6465C243.137 43.7476 242.796 44.8188 242.177 45.7299C241.558 46.641 240.689 47.3529 239.673 47.7791H239.636C238.555 48.2575 237.569 48.9261 236.724 49.7532C235.873 50.5763 235.186 51.554 234.701 52.6341C234.2 53.734 233.943 54.9295 233.948 56.1381V60.4195H243.122V69.673H233.942L233.905 83.0783H225.404L225.435 56.1381Z" fill="white"/>
<path d="M143.226 68.6799C142.82 69.7438 142.222 70.7244 141.462 71.5732C140.709 72.4024 139.793 73.0681 138.772 73.5287C137.691 74.0107 136.52 74.2547 135.336 74.2443C134.128 74.2479 132.932 73.9978 131.826 73.5102C130.751 73.0414 129.771 72.3808 128.933 71.5608C128.088 70.7278 127.406 69.7445 126.922 68.6614C126.422 67.5571 126.169 66.357 126.181 65.145C126.179 63.9162 126.438 62.7009 126.94 61.5793C127.409 60.4704 128.085 59.4611 128.933 58.6059C129.777 57.7633 130.768 57.0817 131.857 56.5947C132.96 56.0999 134.158 55.8495 135.367 55.8606C136.554 55.8478 137.728 56.103 138.803 56.6071C139.828 57.0835 140.745 57.7636 141.499 58.6059C142.256 59.4858 142.847 60.4953 143.245 61.5855C143.667 62.7242 143.876 63.9307 143.862 65.145C143.867 66.3459 143.645 67.5369 143.208 68.6552M151.758 58.0877C150.878 55.8948 149.596 53.886 147.976 52.1654C146.374 50.4723 144.465 49.099 142.35 48.1185C140.173 47.1126 137.802 46.5967 135.404 46.6071C132.972 46.5968 130.567 47.1124 128.353 48.1185C126.172 49.0811 124.189 50.4409 122.505 52.1284C120.818 53.8204 119.455 55.8066 118.482 57.9889C117.482 60.2224 116.964 62.6421 116.965 65.0895C116.943 67.4756 117.449 69.8369 118.445 72.005C119.403 74.1134 120.756 76.0189 122.431 77.6188C124.122 79.2242 126.099 80.4985 128.26 81.3758C130.493 82.3009 132.888 82.7728 135.305 82.7638C136.835 82.7604 138.361 82.6012 139.858 82.2888C141.274 82.0304 142.625 81.4982 143.837 80.7218V85.3239C143.837 86.5323 143.616 87.7305 143.183 88.8588C142.538 90.7389 141.18 92.29 139.402 93.1771C138.065 93.9357 136.564 94.3591 135.028 94.4109C134.082 94.4154 133.138 94.3286 132.208 94.1518C130.737 93.9001 129.347 93.2994 128.155 92.3998L127.724 92.0914L127.329 91.8508L126.835 91.567C125.826 91.2319 124.727 91.2935 123.761 91.7392C122.795 92.1848 122.035 92.9812 121.635 93.9667L121.32 94.6638C120.555 96.7737 121.542 98.8279 123.677 100.278L124.818 100.895L125.503 101.252C125.935 101.462 129.667 103.677 136.724 103.331C139.274 103.188 141.749 102.424 143.936 101.104C145.985 99.8795 147.807 98.3101 149.321 96.4652C150.841 94.5828 151.95 92.4039 152.579 90.0679C152.859 88.5172 153.026 86.9482 153.078 85.3733L153.128 65.2191C153.151 62.7744 152.686 60.3496 151.758 58.0877Z" fill="white"/>
<path d="M158.137 93.6952C158.137 93.4299 158.254 93.3188 158.519 93.3188H162.474C162.653 93.3188 162.727 93.4299 162.727 93.6952V93.8987C162.727 94.164 162.646 94.275 162.474 94.275H159.241V97.1375H162.245C162.418 97.1375 162.492 97.2547 162.492 97.52V97.7235C162.492 97.9826 162.418 98.0937 162.245 98.0937H159.241V101.863C159.241 102.036 159.093 102.141 158.741 102.141H158.637C158.285 102.141 158.137 102.036 158.137 101.857V93.6952Z" fill="white"/>
<path d="M171.555 97.7236C171.555 95.4102 170.592 94.2258 168.822 94.2258C167.051 94.2258 166.095 95.3979 166.089 97.7051C166.083 100.012 167.033 101.258 168.809 101.258C170.586 101.258 171.548 100.025 171.555 97.7236ZM168.828 93.2696C171.351 93.2696 172.702 94.7871 172.696 97.7298C172.69 100.672 171.326 102.221 168.803 102.208C166.28 102.196 164.941 100.648 164.948 97.7051C164.954 94.7625 166.311 93.2634 168.828 93.2696Z" fill="white"/>
<path d="M178.396 97.3412C178.813 97.3479 179.216 97.1897 179.518 96.901C179.819 96.6122 179.995 96.2162 180.006 95.799C180.006 94.7811 179.334 94.3246 178.316 94.3246H176.749V97.3351L178.396 97.3412ZM175.645 93.7694C175.645 93.5041 175.756 93.3931 176.021 93.3931H178.131C180.086 93.3931 181.153 94.0408 181.153 95.6201C181.172 96.0834 181.04 96.5403 180.778 96.9226C180.515 97.305 180.136 97.5925 179.698 97.7422V97.7916C180.228 97.9705 180.506 98.5319 180.827 99.3647L181.801 101.832L181.838 102.011C181.838 102.128 181.672 102.209 181.308 102.209H181.184C180.931 102.209 180.734 102.128 180.685 102.005L179.735 99.5374C179.631 99.1406 179.385 98.7956 179.044 98.5681C178.703 98.3406 178.29 98.2465 177.884 98.3036H176.755V101.919C176.755 102.098 176.601 102.196 176.249 102.19H176.15C175.793 102.19 175.645 102.091 175.645 101.912V93.7694Z" fill="white"/>
<path d="M184.213 93.6337C184.213 93.461 184.368 93.3623 184.719 93.3623H185.17C185.472 93.3623 185.626 93.4548 185.7 93.5844L188.063 97.7115L188.384 98.5073L188.717 97.7917L191.098 93.6029C191.172 93.4672 191.326 93.3746 191.629 93.3808H192.042C192.394 93.3808 192.542 93.4795 192.542 93.6584V101.943C192.542 102.122 192.387 102.221 192.036 102.221H191.949C191.598 102.221 191.443 102.116 191.45 101.943V95.1883L188.914 99.5745L188.637 99.7411H188.155L187.878 99.5807L185.33 95.0958V101.931C185.33 102.11 185.182 102.209 184.83 102.209H184.744C184.392 102.209 184.238 102.104 184.238 101.931L184.213 93.6337Z" fill="white"/>
<path d="M199.987 99.0254L198.68 95.2808L198.513 94.5528L198.316 95.2808L196.983 99.0192L199.987 99.0254ZM194.843 101.838L197.841 93.5905C197.89 93.4424 198.087 93.3931 198.34 93.3931H198.704C198.957 93.3931 199.161 93.4486 199.21 93.5966L202.165 101.869L202.202 102.036C202.202 102.159 202.036 102.246 201.659 102.246H201.561C201.308 102.246 201.11 102.196 201.061 102.042L200.321 99.9816H196.619L195.904 102.042C195.854 102.19 195.651 102.239 195.398 102.239H195.336C194.96 102.239 194.799 102.165 194.799 102.024L194.843 101.838Z" fill="white"/>
<path d="M206.286 94.3863H203.874C203.701 94.3863 203.627 94.2753 203.627 94.01V93.8064C203.627 93.5473 203.701 93.4301 203.88 93.4363H209.772C209.945 93.4363 210.019 93.5535 210.019 93.8126V94.01C210.019 94.2753 209.945 94.3925 209.766 94.3925H207.391V101.974C207.391 102.153 207.242 102.252 206.891 102.252H206.792C206.441 102.252 206.286 102.147 206.286 101.974V94.3863Z" fill="white"/>
<path d="M212.492 93.7078C212.492 93.535 212.646 93.4302 212.992 93.4302H213.097C213.448 93.4302 213.597 93.535 213.597 93.7078V101.999C213.597 102.178 213.442 102.277 213.091 102.277H212.992C212.64 102.277 212.486 102.178 212.486 101.999L212.492 93.7078Z" fill="white"/>
<path d="M223.128 97.853C223.128 95.5458 222.171 94.3613 220.401 94.3551C218.63 94.349 217.674 95.5273 217.668 97.8407C217.662 100.154 218.612 101.382 220.382 101.388C222.153 101.394 223.121 100.154 223.128 97.853ZM220.401 93.3989C222.93 93.3989 224.281 94.9165 224.269 97.853C224.257 100.789 222.905 102.35 220.382 102.338C217.859 102.326 216.514 100.777 216.527 97.8345C216.539 94.8919 217.89 93.3928 220.401 93.3989Z" fill="white"/>
<path d="M227.131 93.7695C227.131 93.5906 227.286 93.4919 227.631 93.4919H227.896C227.998 93.4779 228.101 93.4931 228.194 93.5357C228.286 93.5783 228.365 93.6466 228.421 93.7325L232.412 99.7966L232.788 100.5V93.7818C232.788 93.6091 232.943 93.5042 233.294 93.5042H233.381C233.732 93.5042 233.88 93.6091 233.88 93.7818V102.073C233.88 102.252 233.726 102.351 233.374 102.351H233.121C233.039 102.363 232.955 102.353 232.878 102.321C232.801 102.29 232.734 102.238 232.683 102.172L228.556 95.904L228.223 95.2871V102.073C228.223 102.252 228.069 102.351 227.717 102.351H227.637C227.286 102.351 227.131 102.246 227.131 102.067V93.7695Z" fill="white"/>
<path d="M199.303 141.931C195.817 141.931 192.344 141.777 188.902 141.468C189.519 141.765 190.086 142.085 190.685 142.338C193.564 142.556 196.442 142.663 199.321 142.659C218.587 142.659 237.946 137.995 252.301 129.235C259.151 125.152 265.716 120.607 271.949 115.633C272.159 115.158 272.357 114.676 272.566 114.195C266.638 119.18 259.611 123.918 251.931 128.618C237.742 137.255 218.489 141.931 199.346 141.931H199.303ZM186.965 141.271C164.448 138.847 143.689 129.624 133.368 112.715L132.869 112.585L132.751 113.091C143.541 130.734 165.349 140.043 188.698 142.172C188.112 141.882 187.539 141.555 186.965 141.271ZM208.692 13.7386C215.128 13.7559 221.542 14.4883 227.816 15.9225C227.199 15.5338 226.582 15.1575 225.965 14.7812C220.281 13.6182 214.494 13.0251 208.692 13.0107C202.862 12.9904 197.05 13.6572 191.376 14.9971C185.098 16.4766 179.09 18.9308 173.572 22.2704C164.833 27.6567 157.532 35.0828 152.295 43.9114L152.418 44.4111L152.918 44.2877C158.101 35.5575 165.324 28.2143 173.967 22.8873C180.096 19.1893 186.822 16.5862 193.843 15.1945C198.731 14.2115 203.706 13.7237 208.692 13.7386ZM280.438 49.735C280.376 49.2229 280.315 48.7171 280.247 48.2174C268.273 31.7769 248.735 19.9385 228.081 15.2439C228.702 15.6346 229.319 16.0294 229.932 16.4283C250.13 21.4993 269.05 33.4302 280.438 49.7411M292.412 80.395C292.412 72.2026 289.611 63.1217 283.313 52.8071C282.622 51.6782 281.9 50.5678 281.135 49.4697C281.197 49.9817 281.252 50.4876 281.302 51.0058C281.783 51.7214 282.252 52.4493 282.696 53.1896C288.945 63.424 291.684 72.3753 291.684 80.395C291.684 90.3272 287.483 98.8651 280.407 106.694C278.315 108.991 276.084 111.159 273.726 113.183C273.541 113.671 273.344 114.152 273.152 114.633C275.915 112.328 278.518 109.838 280.944 107.181C288.106 99.2661 292.418 90.5246 292.412 80.395Z" fill="white"/>
<path d="M177.588 135.391C178.297 135.607 179.013 135.811 179.728 136.008C175.598 133.163 171.718 129.97 168.131 126.465C167.514 126.193 166.897 125.91 166.243 125.62C169.752 129.187 173.546 132.461 177.588 135.41M281.832 64.1577C281.832 60.7215 281.733 57.3718 281.542 54.1083C281.48 53.0411 281.4 52.0047 281.302 50.9745C281.252 50.4686 281.203 49.9566 281.141 49.4445C279.377 34.5463 273.473 23.6765 264.324 16.4094C254.25 8.38965 240.265 4.78076 223.707 4.78076C221.376 4.78076 218.99 4.85273 216.551 4.99668C213.942 5.14473 211.277 5.39766 208.593 5.7493L210.062 6.29834C212.27 6.03924 214.448 5.84184 216.595 5.71845C219.017 5.57451 221.388 5.50459 223.707 5.50871C240.197 5.50871 253.979 9.11759 263.874 16.9769C272.579 23.9048 278.316 34.133 280.24 48.2169C280.314 48.7166 280.376 49.2225 280.438 49.7345C280.606 51.1739 280.734 52.6524 280.82 54.17C281.012 57.4088 281.11 60.7586 281.11 64.1824C281.11 80.7462 278.741 98.9387 272.542 114.195C272.35 114.676 272.147 115.157 271.925 115.632C271.666 116.249 271.406 116.835 271.135 117.421C263.893 133.3 252.184 145.391 234.121 148.266C229.984 148.936 225.801 149.278 221.61 149.29C210.919 149.315 200.359 146.946 190.703 142.356C190.086 142.073 189.506 141.783 188.92 141.486C185.743 139.877 182.679 138.055 179.747 136.033C179.031 135.829 178.316 135.626 177.606 135.416C180.587 137.578 183.712 139.534 186.959 141.271C187.526 141.585 188.112 141.887 188.698 142.171C198.897 147.341 210.175 150.024 221.61 150C225.848 149.992 230.078 149.651 234.263 148.982C252.603 146.07 264.522 133.732 271.814 117.73C272.278 116.705 272.722 115.677 273.146 114.645C273.35 114.158 273.541 113.676 273.726 113.189C279.599 98.0874 281.832 80.3637 281.832 64.1885" fill="white"/>
<path d="M150.259 103.64L150.123 104.127C154.173 111.381 159.107 118.105 164.812 124.145L166.663 125.021C160.436 118.678 155.084 111.533 150.746 103.775L150.259 103.64ZM208.513 6.49587L207.039 5.96533C193.963 7.83635 181.278 11.8222 169.482 17.7667C158.118 23.6026 148.279 31.3386 141.943 40.7463L142.042 41.246L142.548 41.1473C149.426 30.8944 160.592 22.6402 173.393 16.6809C184.535 11.5364 196.39 8.10266 208.556 6.49587" fill="white"/>
<path d="M263.948 73.9667C263.948 58.7107 258.279 42.8933 245.713 29.5497C240.978 24.5763 235.682 20.1689 229.932 16.4158C229.319 16.0045 228.702 15.6097 228.081 15.2313C222.383 11.6651 216.347 8.66895 210.062 6.28624L208.593 5.7372C198.597 2.03933 188.036 0.0983196 177.378 0C167.717 0 158.39 1.80136 150.136 5.76188C133.547 13.7014 125.46 27.6311 124.386 43.8125C124.379 43.9081 124.411 44.0025 124.473 44.0752C124.535 44.148 124.624 44.1932 124.719 44.2011C124.812 44.2013 124.901 44.1664 124.968 44.1034C125.036 44.0404 125.077 43.954 125.083 43.8618C126.151 27.8902 134.065 14.2505 150.426 6.41579C158.569 2.51696 167.785 0.727946 177.353 0.727946C187.446 0.825151 197.452 2.59499 206.965 5.96545L208.445 6.49599C214.526 8.70789 220.384 11.4902 225.941 14.8057C226.558 15.182 227.175 15.5583 227.791 15.9469C234.161 19.9055 240.005 24.6544 245.182 30.0802C257.619 43.2881 263.214 58.9143 263.214 73.9914C263.224 86.3909 259.428 98.4947 252.338 108.667C247.864 115.067 242.15 120.502 235.535 124.651C228.921 128.8 221.54 131.577 213.831 132.819C210.505 133.366 207.14 133.635 203.769 133.621C191.771 133.621 178.556 130.494 166.693 125.022C166.076 124.732 165.46 124.442 164.843 124.139C156.039 119.821 148.075 114.269 142.017 107.693H141.499V108.211C148.02 115.281 156.718 121.228 166.274 125.651C166.891 125.941 167.508 126.225 168.162 126.496C179.661 131.524 192.27 134.368 203.806 134.374C207.216 134.386 210.621 134.114 213.985 133.56C229.143 131.119 242.752 122.867 251.925 110.555C259.764 99.9868 263.991 87.1745 263.979 74.016" fill="white"/>
</g>
</g>
<defs>
<clipPath id="clip0_115_404">
<rect width="292.418" height="150" fill="white"/>
</clipPath>
</defs>
</svg>
