<svg width="315" height="315" viewBox="0 0 315 315" fill="none" xmlns="http://www.w3.org/2000/svg">
<g clip-path="url(#clip0_116_551)">
<path d="M157.5 294.935C231.705 294.935 291.86 234.779 291.86 160.574C291.86 86.3694 231.705 26.2144 157.5 26.2144C83.295 26.2144 23.1399 86.3694 23.1399 160.574C23.1399 234.779 83.295 294.935 157.5 294.935Z" fill="#F4F7FA"/>
<path d="M265.406 48.6671C259.314 49.5428 257.002 54.23 260.518 59.5661C293.297 109.311 293.826 43.0538 265.406 48.6671Z" fill="url(#paint0_linear_116_551)"/>
<path d="M67.0572 29.5657C60.102 31.8589 43.5834 37.4596 47.3382 48.2137C53.7705 66.6286 77.6664 39.337 83.9475 35.746C89.9325 32.3251 104.486 31.3612 106.653 23.4295C111.466 5.78324 72.0909 21.8671 67.0572 29.5657Z" fill="url(#paint1_linear_116_551)"/>
<path d="M19.4544 145.719C18.7425 154.356 18.5913 163.164 19.4922 171.807C20.0088 176.74 21.0042 181.843 22.1067 186.681C23.2722 191.797 30.4605 205.033 25.8111 209.771C25.0677 210.533 23.3415 210.117 22.4343 209.979C13.6017 208.605 12.096 193.939 10.8171 187.173C8.22778 173.483 6.86068 157.758 9.56968 143.993C10.2186 140.698 16.4241 128.482 20.3238 136.2C21.8862 139.287 18.4086 142.594 19.4607 145.725L19.4544 145.719Z" fill="url(#paint2_linear_116_551)"/>
<path d="M301.77 167.366C302.942 172.393 302.192 177.553 301.348 182.574C300.321 188.704 296.302 195.067 297.045 201.449C297.247 203.162 299.319 204.221 300.617 204.87C308.965 209.047 309.752 193.561 310.294 188.849C312.442 170.188 301.77 147.143 301.77 167.366Z" fill="url(#paint3_linear_116_551)"/>
<mask id="mask0_116_551" style="mask-type:luminance" maskUnits="userSpaceOnUse" x="0" y="0" width="315" height="315">
<path d="M314.458 0H0.5418C0.242572 0 0 0.242572 0 0.5418V314.458C0 314.757 0.242572 315 0.5418 315H314.458C314.757 315 315 314.757 315 314.458V0.5418C315 0.242572 314.757 0 314.458 0Z" fill="white"/>
</mask>
<g mask="url(#mask0_116_551)">
<path d="M214.37 240.168L215.158 259.711C215.158 259.711 225.445 320.594 225.175 327.814C224.904 335.034 220.506 340.553 220.506 340.553L188.994 406.079C188.994 406.079 182.02 406.69 174.604 401.524C167.196 396.358 161.545 384.35 161.545 384.35L192.137 325.326L172.998 250.563L214.364 240.168H214.37Z" fill="#141423"/>
<path d="M194.267 277.591L206.539 331.997L173.723 402.066L176.274 404.813L209.311 330.857L196.119 271.303L194.273 277.584L194.267 277.591Z" fill="#131C2F"/>
<path d="M152.479 259.736C152.479 259.736 149.222 268.361 148.68 275.228C148.138 282.095 154.3 301.209 155.604 308.467C156.908 315.724 160.058 359.799 159.944 369.753C159.837 379.707 158.861 390.688 157.122 394.418C155.383 398.141 157.721 396.969 157.336 401.675C156.958 406.381 156.605 409.714 155.925 413.5C155.245 417.287 158.558 417.337 164.966 418.206C171.373 419.076 180.816 417.23 183.261 416.335C185.705 415.441 186.272 415.334 186.19 411.226C186.108 407.118 186.707 364.808 188.389 348.755C190.071 332.703 190.373 320.292 191.211 310.388C192.056 300.478 197.751 268.449 197.751 268.449L200.573 263.724L199.105 246.046L162.836 246.242L152.466 259.743L152.479 259.736Z" fill="#2A2A4F"/>
<path d="M153.109 251.975C153.109 251.975 177.515 254.86 190.802 252.951C204.088 251.049 215.258 242.89 215.258 242.89L214.093 235.777L154.016 245.933L153.109 251.968V251.975Z" fill="#183C57"/>
<path d="M169.646 247.099C169.646 247.099 166.522 253.682 165.085 258.35C163.649 263.019 163.617 267.637 163.97 276.198C164.323 284.76 166.1 325.886 166.616 341.655C167.12 357.021 166.622 415.328 166.597 418.358C167.404 418.408 168.242 418.433 169.098 418.427C169.13 414.767 169.508 373.571 169.25 360.266C168.979 346.349 164.525 268.821 165.262 263.271C165.999 257.72 172.4 247.546 172.4 247.546L169.646 247.099Z" fill="#131C2F"/>
<path d="M164.537 275.763C164.537 275.763 171.379 275.656 175.342 272.28C179.304 268.909 178.87 254.173 178.87 254.173L181.774 254.356C181.774 254.356 182.07 266.301 178.082 272.217C174.094 278.126 164.619 277.924 164.619 277.924L164.537 275.763Z" fill="#131C2F"/>
<path d="M118.591 113.803L117.193 104.158C117.193 104.158 119.133 96.0435 118.875 93.6432C118.616 91.2429 117.627 86.5431 117.356 84.5334C117.086 82.5237 118.308 78.8256 117.558 77.9625C116.815 77.0994 114.95 79.0902 113.551 80.514C112.153 81.9378 111.775 83.7522 112.14 85.5729C112.505 87.3936 112.071 89.2773 111.611 90.3168C111.151 91.3626 110.156 89.7561 110.156 89.7561L106.924 82.278C106.924 82.278 103.244 81.9819 99.1305 84.5775C95.0166 87.1668 91.2177 95.7096 91.5327 96.7554C91.8477 97.8012 94.4937 103.131 96.5034 105.922C98.5131 108.713 99.4896 108.669 100.479 110.408C101.468 112.146 102.243 115.832 102.243 115.832C102.243 115.832 102.243 115.763 107.818 116.159C113.394 116.556 118.579 113.803 118.579 113.803H118.591Z" fill="url(#paint4_linear_116_551)"/>
<path d="M106.93 82.2778C106.93 82.2778 103.402 65.6269 102.123 65.3119C100.844 64.9969 99.4644 65.6269 99.477 67.1452C99.4896 68.6572 101.701 80.2555 101.392 80.9107C101.077 81.5722 100.391 81.0367 99.5841 80.0476C98.7777 79.0585 93.0699 66.4396 91.7532 66.0931C90.4365 65.7466 87.5889 66.7924 88.6977 68.3674C89.8128 69.9361 96.138 83.5 96.138 83.5C96.138 83.5 88.1685 71.5804 86.6376 70.9819C85.1067 70.3834 84.2625 73.8484 84.8736 74.9572C85.4847 76.066 93.5046 89.6992 93.5046 89.6992L88.2567 83.0023C88.2567 83.0023 86.5557 79.9972 85.0311 81.9628C83.8971 83.4244 84.798 84.9994 86.0769 87.4501C87.3558 89.9008 91.9926 98.1664 91.9926 98.1664C91.9926 98.1664 95.0481 98.431 98.9037 95.8165C102.759 93.202 106.924 82.2715 106.924 82.2715L106.93 82.2778Z" fill="url(#paint5_linear_116_551)"/>
<path d="M170.308 246.645C170.308 246.645 181.742 251.061 192.188 250.261C202.633 249.461 210.011 242.115 210.011 242.115C210.011 242.115 208.121 213.003 206.306 205.267C204.498 197.53 180.577 136.269 180.577 136.269L155.138 150.035C155.138 150.035 153.273 170.258 157.576 191.533C161.878 212.808 170.302 246.645 170.302 246.645H170.308Z" fill="#FFE1C3"/>
<path d="M209.57 235.859C206.432 237.712 200.863 240.439 192.767 242.392C184.149 244.471 174.731 243.022 169.098 241.731C169.772 244.49 170.308 246.651 170.308 246.651C170.308 246.651 181.742 251.068 192.188 250.267C202.633 249.467 210.011 242.122 210.011 242.122C210.011 242.122 209.84 239.526 209.57 235.859Z" fill="#FFB28A"/>
<path d="M188.527 217.205C190.915 226.019 189.901 249.858 189.517 256.542C189.132 263.233 187.293 266.439 187.293 266.439C187.293 266.439 172.954 271.845 158.388 265.721C143.829 259.598 131.764 251.036 131.764 251.036C131.764 251.036 142.84 227.008 143.608 220.109C144.377 213.211 145.939 213.482 141.466 207.698C137 201.908 126.277 189.756 119.202 175.329C112.127 160.902 115.555 155.685 120.79 149.303C126.025 142.922 141.466 145.019 141.466 145.019C141.466 145.019 182.681 129.792 186.6 132.048C190.518 134.303 195.048 138.524 197.543 148.894C200.038 159.257 207.799 205.424 211.938 212.915C216.077 220.405 218.793 227.405 224.746 231.821C230.7 236.237 235.576 234.977 233.875 240.03C232.174 245.076 223.127 257.789 218.081 260.467C213.034 263.144 207.301 260.801 207.301 260.801C207.301 260.801 203.629 238.518 202.665 228.57C201.707 218.622 200.145 212.612 200.145 212.612C200.145 212.612 189.504 169.224 186.763 158.294C184.023 147.363 176.205 140.042 176.205 140.042L145.328 151.225C145.328 151.225 164.083 175.461 169.816 184.678C175.549 193.895 188.515 217.205 188.515 217.205H188.527Z" fill="url(#paint6_linear_116_551)"/>
<path d="M142.922 177.962C142.922 177.962 158.968 204.498 160.196 210.64C161.425 216.783 153.651 263.409 153.651 263.409L151.005 262.616C151.005 262.616 159.107 219.744 158.949 214.269C158.798 208.795 156.782 207.163 155.32 204.378C153.859 201.594 140.981 179.222 140.981 179.222L142.922 177.962Z" fill="#131C2F"/>
<path d="M129.786 145.208C138.014 151.382 141.448 163.548 142.79 169.923C144.131 176.299 144.906 176.456 143.873 179.021C142.84 181.578 127.575 188.527 121.489 189.611C115.41 190.701 107.944 188.553 104.889 186.902C101.833 185.245 100.126 183.632 98.9038 178.649C97.6816 173.666 96.1507 164.171 103.793 158.835C111.434 153.499 120.651 148.157 123.568 147.143C126.485 146.128 129.786 145.215 129.786 145.215V145.208Z" fill="url(#paint7_linear_116_551)"/>
<path d="M188.528 217.205C188.528 217.205 168.809 191.476 158.993 180.06C149.178 168.644 137.687 155.874 133.491 150.62C129.295 145.366 133.05 136.489 135.986 129.912C138.921 123.335 145.662 109.538 159.157 112.461C172.645 115.384 186.304 124.91 190.008 130.674C193.712 136.439 195.823 148.396 197.442 156.92C199.061 165.444 200.157 212.612 200.157 212.612C200.157 212.612 188.477 169.646 183.046 157.367C177.616 145.089 178.385 145.114 171.858 142.405C165.331 139.696 157.79 143.262 157.928 146.468C158.067 149.675 164.317 158.835 171.587 170.78C178.851 182.725 183.872 200.73 185.762 205.764C187.652 210.798 188.534 217.205 188.534 217.205H188.528Z" fill="url(#paint8_linear_116_551)"/>
<path d="M171.851 142.405C171.851 142.405 178.019 146.519 180.886 154.684C183.752 162.848 186.713 176.154 186.946 178.964C187.179 181.774 191.948 181.692 193.952 181.389C195.955 181.087 197.543 180.148 197.379 177.326C197.215 174.497 197.53 166.414 193.379 158.52C189.227 150.626 186.001 143.621 184.168 140.641C182.328 137.661 180.59 136.281 180.59 136.281L171.858 142.411L171.851 142.405Z" fill="#38BBA3"/>
<path d="M148.378 140.987C149.203 145.725 150.148 147.193 154.426 154.822C158.703 162.445 166.465 171.775 172.166 182.095C177.868 192.408 177.503 208.719 179.09 209.928C180.678 211.138 187.973 210.672 188.66 209.953C189.347 209.235 186.839 190.972 182.284 180.01C177.729 169.054 173.401 164.297 169.741 156.983C166.081 149.669 164.613 146.021 164.613 146.021L148.378 140.994V140.987Z" fill="#38BBA3"/>
<path d="M148.378 140.987C148.951 144.295 149.594 146.015 151.376 149.347C156.139 152.239 156.511 153.449 161.545 153.411C164.323 153.392 166.32 153.046 167.643 152.693C165.52 148.258 164.613 146.015 164.613 146.015L148.378 140.987Z" fill="#13756C"/>
<path d="M180.59 136.281C180.59 136.281 180.571 136.294 180.558 136.3H180.552L174.441 140.597C173.294 141.598 172.664 142.247 172.381 142.802C173.363 143.558 175.581 145.441 177.673 148.447C179.588 147.029 178.989 145.372 180.879 143.142C182.045 141.762 183.223 141 184.118 140.578C182.309 137.667 180.615 136.313 180.583 136.288L180.59 136.281Z" fill="#13756C"/>
<path d="M176.274 122.157C181.994 124.236 182.624 123.36 182.001 126.863C181.377 130.366 180.772 131.682 182.089 135.488C183.406 139.299 183.784 136.955 181.742 140.509C179.695 144.062 168.361 150.419 164.512 150.853C160.663 151.288 153.178 146.009 148.245 143.999C143.312 141.989 142.727 143.199 142.235 139.438C141.744 135.677 143.495 136.37 142.538 132.331C141.58 128.293 141.259 127.562 143.835 125.552C146.412 123.543 176.274 122.157 176.274 122.157Z" fill="#38BBA3"/>
<path d="M128.696 177.439C128.696 177.439 130.246 168.393 128.885 159.226C127.531 150.06 125.477 145.549 124.205 140.213C122.926 134.877 123.461 131.487 122.573 129.692C121.691 127.896 120.16 126.239 120.16 126.239L100.504 127.153C100.504 127.153 96.8247 131.853 96.1884 134.322C95.5521 136.798 96.2451 158.754 95.5521 166.918C94.8591 175.083 96.2703 175.934 98.8344 179.298C101.399 182.662 99.9999 183.909 105.279 184.546C110.559 185.182 112.512 185.447 117.564 184.703C122.611 183.966 128.696 177.433 128.696 177.433V177.439Z" fill="url(#paint9_linear_116_551)"/>
<path d="M100.51 127.153C106.653 130.177 115.542 129.704 118.749 128.835C121.949 127.965 122.346 127.348 122.711 126.113C123.077 124.872 122.888 118.175 122.548 116.071C122.207 113.967 120.242 111.68 114.471 111.201C108.7 110.722 102.432 112.026 100.057 113.249C97.6815 114.471 97.2846 115.951 97.5618 119.801C97.8327 123.656 97.1523 123.826 97.6311 125.345C98.1036 126.863 100.517 127.153 100.517 127.153H100.51Z" fill="url(#paint10_linear_116_551)"/>
<path d="M132.445 249.537C132.256 249.952 131.765 251.042 131.765 251.042C131.765 251.042 143.829 259.604 158.388 265.728C172.948 271.851 187.293 266.44 187.293 266.44C187.293 266.44 187.715 265.69 188.187 264.203C185.705 264.883 181.705 265.734 175.751 266.307C164.405 267.397 157.998 263.258 153.311 260.587C148.945 258.098 134.461 250.582 132.439 249.537H132.445Z" fill="#131C2F"/>
<path d="M232.426 235.828C231.752 238.234 230.189 243.255 227.921 247.086C224.828 252.315 219.435 258.01 214.981 258.684C212.108 259.119 208.858 258.684 206.905 258.325C207.087 259.44 207.308 260.794 207.308 260.794C207.308 260.794 213.041 263.138 218.081 260.461C223.127 257.783 232.174 245.076 233.875 240.023C234.681 237.623 233.995 236.653 232.42 235.815L232.426 235.828Z" fill="#131C2F"/>
<path d="M160.625 233.61C168.229 234.933 183.45 235.311 183.45 235.311L182.719 237.05C182.719 237.05 174.617 236.767 168.437 236.111C162.257 235.45 160.007 234.952 160.007 234.952L160.619 233.617L160.625 233.61Z" fill="#131C2F"/>
<path d="M217.211 222.743C213.413 229.521 207.125 232.464 207.125 232.464L208.278 233.913C208.278 233.913 212.846 231.166 216.266 227.02C217.098 226.006 217.741 225.156 218.238 224.437C217.892 223.883 217.552 223.316 217.211 222.736V222.743Z" fill="#131C2F"/>
<path d="M145.883 125.061C143.659 125.332 142.6 126.97 144.623 128.255C146.645 129.54 147.666 130.454 151.2 131.808C154.734 133.169 160.247 134.02 164.827 133.371C169.407 132.715 173.074 129.484 176.198 128.677C179.329 127.871 179.878 127.115 180.085 125.735C180.293 124.355 181.043 123.631 178.246 123.549C175.449 123.473 158.168 123.681 153.531 123.782C148.894 123.883 145.883 125.055 145.883 125.055V125.061Z" fill="#13756C"/>
<path d="M144.169 106.841C144.169 106.841 142.556 103.137 140.263 103.578C137.964 104.025 136.937 106.747 137.472 109.059C138.008 111.371 139.312 114.559 141.139 115.844C142.972 117.136 144.925 115.756 144.925 115.756C144.925 115.756 144.957 115.283 144.988 112.467C145.013 109.651 144.175 106.841 144.175 106.841H144.169Z" fill="url(#paint11_linear_116_551)"/>
<path d="M177.169 106.419C177.169 106.419 178.781 102.715 181.075 103.156C183.374 103.603 184.401 106.325 183.865 108.637C183.33 110.949 182.026 114.137 180.199 115.422C178.366 116.714 176.413 115.334 176.413 115.334C176.413 115.334 176.381 114.861 176.35 112.045C176.324 109.229 177.162 106.419 177.162 106.419H177.169Z" fill="url(#paint12_linear_116_551)"/>
<path d="M140.465 105.997C138.411 105.884 138.827 109.884 139.539 111.863C140.251 113.841 141.794 115.126 142.676 115.164C143.558 115.202 143.886 113.331 143.388 110.71C142.89 108.089 141.882 105.878 140.471 105.997H140.465Z" fill="#A03C2F"/>
<path d="M178.586 107.307C179.821 105.707 181.232 105.562 181.969 106.375C182.706 107.188 182.921 108.586 181.856 110.691C180.785 112.795 180.23 114.275 179.027 114.912C177.824 115.554 177.37 114.502 177.37 114.502L178.592 107.314L178.586 107.307Z" fill="#A03C2F"/>
<path d="M160.719 86.417C160.719 86.417 147.118 90.6821 144.472 97.4483C141.826 104.214 142.468 109.198 142.468 109.198C142.468 109.198 144.037 122.163 145.152 124.828C146.267 127.493 152.573 131.601 154.646 132.615C156.713 133.629 160.726 133.434 160.726 133.434C160.726 133.434 164.739 133.635 166.805 132.615C168.872 131.601 175.178 127.493 176.293 124.828C177.408 122.163 178.725 108.996 178.725 108.996C178.725 108.996 179.613 104.214 176.967 97.4483C174.321 90.6821 160.719 86.417 160.719 86.417Z" fill="url(#paint13_linear_116_551)"/>
<path d="M180.274 105.739C178.441 106.495 177.219 106.949 175.6 105.248C173.981 103.547 174.686 103.32 173.407 100.453C172.129 97.5804 171.297 96.2952 169.577 96.1566C167.857 96.018 165.425 97.0827 162.288 96.4779C159.157 95.8794 158.458 95.3376 156.939 95.8038C155.427 96.2637 152.542 98.0403 151.395 99.3759C150.249 100.712 150.74 102.349 149.033 103.357C147.325 104.372 142.991 106.999 142.991 106.999C142.991 106.999 140.465 102.917 138.367 103.767C136.269 104.624 135.677 100.46 135.822 99.0483C135.967 97.6371 136.256 96.7047 136.256 96.7047C136.256 96.7047 132.256 91.8915 132.924 87.8847C133.591 83.8779 137.762 80.3121 137.762 80.3121C137.762 80.3121 138.524 78.0945 140.458 75.5115C142.393 72.9285 146.645 69.9549 153.14 69.2367C159.636 68.5185 161.935 69.5643 165.117 68.9406C168.298 68.3169 169.69 67.983 170.308 69.1611C170.925 70.3392 170.629 71.322 170.629 71.322C170.629 71.322 174.655 69.6021 176.356 69.2871C178.057 68.9721 178.731 70.6038 179.084 72.3111C179.443 74.0184 179.43 77.3133 179.43 77.3133C179.43 77.3133 181.169 76.1856 182.568 77.5968C183.966 79.0017 183.034 83.1975 182.492 84.5331C181.95 85.875 181.648 86.1081 181.648 86.1081C181.648 86.1081 183.437 84.9174 184.124 87.6894C184.81 90.4614 183.55 89.7243 182.416 92.8743C181.282 96.018 181.415 96.2763 180.917 99.5523C180.419 102.828 180.274 105.739 180.274 105.739Z" fill="#3B405E"/>
<path d="M168.676 68.3799C168.33 68.3862 167.914 68.4303 167.441 68.5059C167.87 68.9091 168.468 69.5139 169.193 70.3896C170.68 72.1914 170.056 72.897 171.284 72.5316C172.513 72.1662 176.671 70.0116 177.502 72.897C178.34 75.7887 177.502 78.9324 177.502 78.9324C177.502 78.9324 182.07 77.8236 181.717 81.0933C181.364 84.3693 180.287 86.5113 180.287 86.5113C180.287 86.5113 181.711 86.8389 182.209 88.0611C182.706 89.2833 182.19 89.0565 180.501 91.608C178.813 94.1532 178.819 95.9613 177.458 95.4258C176.098 94.8903 177.313 89.5101 177.446 87.8721C177.578 86.2341 176.917 86.4861 174.863 88.1682C172.809 89.8503 168.997 90.3417 168.594 88.7982C168.191 87.2547 170.591 85.4214 169.873 84.5205C169.155 83.6133 168.33 85.9884 164.298 89.1825C160.266 92.3829 156.158 91.7214 152.233 91.7277C148.308 91.7277 146.601 95.01 145.713 98.0655C144.831 101.121 142.928 102.652 142.462 101.297C141.989 99.9429 140.44 100.869 139.047 99.9366C137.655 98.9979 138.19 98.7333 139.135 95.6967C140.074 92.6664 140.881 91.8915 140.881 91.8915C140.881 91.8915 139.652 91.8033 138.348 93.1452C137.044 94.4871 136.987 94.9407 136.987 94.9407C136.987 94.9407 135.834 94.2099 134.045 93.2145C135.028 95.2179 136.263 96.7047 136.263 96.7047C136.263 96.7047 135.973 97.6308 135.834 99.0483C135.689 100.46 136.282 104.624 138.379 103.767C140.477 102.91 143.004 106.999 143.004 106.999C143.004 106.999 147.338 104.366 149.045 103.358C150.753 102.343 150.255 100.712 151.408 99.3759C152.561 98.0403 155.44 96.2637 156.952 95.8038C158.464 95.3439 159.163 95.8794 162.301 96.4779C165.432 97.0764 167.863 96.018 169.59 96.1566C171.31 96.2952 172.141 97.5804 173.42 100.453C174.699 103.326 174 103.547 175.612 105.248C177.232 106.949 178.454 106.489 180.287 105.739C180.287 105.739 180.432 102.822 180.93 99.5523C181.427 96.2763 181.301 96.0243 182.429 92.8743C183.563 89.7306 184.823 90.4614 184.136 87.6894C183.45 84.9174 181.66 86.1081 181.66 86.1081C181.66 86.1081 181.963 85.875 182.505 84.5331C183.046 83.1912 183.979 79.0017 182.58 77.5968C181.182 76.1919 179.443 77.3196 179.443 77.3196C179.443 77.3196 179.449 74.0184 179.096 72.3174C178.737 70.6101 178.069 68.9784 176.368 69.2934C174.667 69.6084 170.642 71.3283 170.642 71.3283C170.642 71.3283 170.938 70.3455 170.32 69.1674C170.012 68.5752 169.508 68.3673 168.689 68.3799H168.676Z" fill="#262A44"/>
</g>
</g>
<defs>
<linearGradient id="paint0_linear_116_551" x1="258.867" y1="63.2579" x2="285.957" y2="63.2579" gradientUnits="userSpaceOnUse">
<stop stop-color="#9D7FF4"/>
<stop offset="1" stop-color="#6265D2"/>
</linearGradient>
<linearGradient id="paint1_linear_116_551" x1="46.7901" y1="35.0026" x2="107.062" y2="35.0026" gradientUnits="userSpaceOnUse">
<stop stop-color="#9D7FF4"/>
<stop offset="1" stop-color="#6265D2"/>
</linearGradient>
<linearGradient id="paint2_linear_116_551" x1="8.08288" y1="171.952" x2="27.3609" y2="171.952" gradientUnits="userSpaceOnUse">
<stop stop-color="#9D7FF4"/>
<stop offset="1" stop-color="#6265D2"/>
</linearGradient>
<linearGradient id="paint3_linear_116_551" x1="296.957" y1="182.543" x2="310.584" y2="182.543" gradientUnits="userSpaceOnUse">
<stop stop-color="#9D7FF4"/>
<stop offset="1" stop-color="#6265D2"/>
</linearGradient>
<linearGradient id="paint4_linear_116_551" x1="91.5201" y1="96.9759" x2="118.9" y2="96.9759" gradientUnits="userSpaceOnUse">
<stop offset="0.02" stop-color="#EEBF50"/>
<stop offset="0.57" stop-color="#D77258"/>
<stop offset="1" stop-color="#D66F58"/>
</linearGradient>
<linearGradient id="paint5_linear_116_551" x1="84.5208" y1="81.7045" x2="106.93" y2="81.7045" gradientUnits="userSpaceOnUse">
<stop offset="0.35" stop-color="#EFC250"/>
<stop offset="1" stop-color="#D66F58"/>
</linearGradient>
<linearGradient id="paint6_linear_116_551" x1="115.202" y1="200.239" x2="234.221" y2="200.239" gradientUnits="userSpaceOnUse">
<stop stop-color="#9D7FF4"/>
<stop offset="1" stop-color="#6265D2"/>
</linearGradient>
<linearGradient id="paint7_linear_116_551" x1="97.8958" y1="167.555" x2="144.352" y2="167.555" gradientUnits="userSpaceOnUse">
<stop stop-color="#9D7FF4"/>
<stop offset="1" stop-color="#6265D2"/>
</linearGradient>
<linearGradient id="paint8_linear_116_551" x1="131.62" y1="164.631" x2="200.151" y2="164.631" gradientUnits="userSpaceOnUse">
<stop stop-color="#9D7FF4"/>
<stop offset="1" stop-color="#6265D2"/>
</linearGradient>
<linearGradient id="paint9_linear_116_551" x1="95.382" y1="155.698" x2="129.446" y2="155.698" gradientUnits="userSpaceOnUse">
<stop stop-color="#9D7FF4"/>
<stop offset="1" stop-color="#6265D2"/>
</linearGradient>
<linearGradient id="paint10_linear_116_551" x1="97.4484" y1="120.298" x2="122.907" y2="120.298" gradientUnits="userSpaceOnUse">
<stop stop-color="#9D7FF4"/>
<stop offset="1" stop-color="#6265D2"/>
</linearGradient>
<linearGradient id="paint11_linear_116_551" x1="137.334" y1="109.966" x2="144.988" y2="109.966" gradientUnits="userSpaceOnUse">
<stop stop-color="#EFC250"/>
<stop offset="1" stop-color="#D66F58"/>
</linearGradient>
<linearGradient id="paint12_linear_116_551" x1="176.35" y1="109.551" x2="184.004" y2="109.551" gradientUnits="userSpaceOnUse">
<stop stop-color="#EFC250"/>
<stop offset="1" stop-color="#D66F58"/>
</linearGradient>
<linearGradient id="paint13_linear_116_551" x1="142.399" y1="109.929" x2="178.87" y2="109.929" gradientUnits="userSpaceOnUse">
<stop stop-color="#EFC250"/>
<stop offset="1" stop-color="#D66F58"/>
</linearGradient>
<clipPath id="clip0_116_551">
<rect width="315" height="315" fill="white"/>
</clipPath>
</defs>
</svg>
