<?xml version="1.0" encoding="UTF-8"?><svg xmlns="http://www.w3.org/2000/svg" xmlns:xlink="http://www.w3.org/1999/xlink" viewBox="0 0 2887.4 2849.88"><defs><style>.cls-1{fill:url(#linear-gradient-38);}.cls-1,.cls-2,.cls-3,.cls-4,.cls-5,.cls-6,.cls-7,.cls-8,.cls-9,.cls-10,.cls-11,.cls-12,.cls-13,.cls-14,.cls-15,.cls-16,.cls-17,.cls-18,.cls-19,.cls-20,.cls-21,.cls-22,.cls-23,.cls-24,.cls-25,.cls-26,.cls-27,.cls-28,.cls-29,.cls-30,.cls-31,.cls-32,.cls-33,.cls-34,.cls-35,.cls-36,.cls-37,.cls-38,.cls-39,.cls-40,.cls-41,.cls-42,.cls-43,.cls-44,.cls-45,.cls-46,.cls-47,.cls-48,.cls-49,.cls-50,.cls-51,.cls-52,.cls-53,.cls-54,.cls-55,.cls-56,.cls-57{stroke-width:0px;}.cls-58,.cls-32{fill:url(#linear-gradient-2);}.cls-2{fill:url(#linear-gradient-12);}.cls-3{fill:url(#linear-gradient-17);}.cls-4{fill:url(#linear-gradient-5);}.cls-4,.cls-14,.cls-39,.cls-42,.cls-53,.cls-57{mix-blend-mode:multiply;}.cls-4,.cls-14,.cls-42,.cls-53,.cls-57{opacity:.3;}.cls-5{fill:url(#linear-gradient-19);}.cls-6{fill:url(#linear-gradient-33);}.cls-7,.cls-59{fill:url(#linear-gradient);}.cls-8{fill:url(#linear-gradient-21);}.cls-9{fill:#beb8f2;}.cls-10{fill:url(#linear-gradient-6);}.cls-11{fill:#d8dee8;}.cls-60,.cls-61,.cls-62{mix-blend-mode:soft-light;}.cls-60,.cls-40{opacity:.7;}.cls-12{fill:#f4f7fa;}.cls-13{fill:#26264f;}.cls-63{clip-path:url(#clippath-2);}.cls-64{isolation:isolate;}.cls-14{fill:url(#linear-gradient-42);}.cls-15{fill:url(#linear-gradient-15);}.cls-16{fill:url(#linear-gradient-11);}.cls-17{fill:none;}.cls-18{fill:url(#linear-gradient-31);}.cls-65{clip-path:url(#clippath-1);}.cls-19{fill:url(#linear-gradient-41);}.cls-62{opacity:.5;}.cls-20{fill:url(#linear-gradient-40);}.cls-21{fill:url(#linear-gradient-13);}.cls-22{fill:url(#linear-gradient-23);}.cls-23{fill:url(#linear-gradient-25);}.cls-24{fill:url(#linear-gradient-43);}.cls-25{fill:url(#linear-gradient-16);}.cls-26,.cls-40{fill:#fff;}.cls-27{fill:url(#linear-gradient-35);}.cls-28{fill:#fcfdfe;}.cls-29{fill:url(#linear-gradient-32);}.cls-30{fill:url(#linear-gradient-20);}.cls-31{fill:url(#linear-gradient-14);}.cls-33{fill:url(#linear-gradient-45);}.cls-34{fill:url(#linear-gradient-7);}.cls-35{fill:url(#linear-gradient-39);}.cls-36{fill:url(#linear-gradient-3);}.cls-66{clip-path:url(#clippath);}.cls-37{fill:url(#linear-gradient-9);}.cls-38{fill:url(#linear-gradient-27);}.cls-39{fill:url(#linear-gradient-37);opacity:.2;}.cls-41{fill:url(#linear-gradient-36);}.cls-42{fill:url(#linear-gradient-22);}.cls-43{fill:url(#linear-gradient-8);}.cls-44{fill:url(#linear-gradient-47);}.cls-45{fill:url(#linear-gradient-24);}.cls-46{fill:url(#linear-gradient-26);}.cls-47{fill:url(#linear-gradient-18);}.cls-48{fill:url(#linear-gradient-30);}.cls-49{fill:#c3ccd8;}.cls-50{fill:url(#linear-gradient-44);}.cls-51{fill:url(#linear-gradient-29);}.cls-52{fill:url(#linear-gradient-46);}.cls-53{fill:url(#linear-gradient-48);}.cls-54{fill:url(#linear-gradient-28);}.cls-55{fill:url(#linear-gradient-10);}.cls-56{fill:url(#linear-gradient-4);}.cls-57{fill:url(#linear-gradient-34);}</style><linearGradient id="linear-gradient" x1="1987.09" y1="1436.73" x2="1899.41" y2="3620.58" gradientUnits="userSpaceOnUse"><stop offset="0" stop-color="#e38ddd"/><stop offset="1" stop-color="#9571f6"/></linearGradient><clipPath id="clippath"><path class="cls-7" d="m1677.3,1992.77c-25.38,31.2-49.75,53.99-75.96,83.31,162.06,49.39,309.24,126.7,473.46,177.07-35.89-218.51-103.97-333.87,44.9-543.07,69.86-98.17,236.31-271.19,231.9-393.79-5.03-139.67-103.13-141.04-39.78-240.99,99.02-156.22,83.76-365.88-173.16-380.9-253.57-14.83-474.65,606.34-407.6,823.1,20.1,195.88,78.76,312.37-53.75,475.26Z"/></clipPath><clipPath id="clippath-1"><polygon class="cls-17" points="1337.56 2527.96 1639.37 2587.1 1807.39 2587.1 2384.92 2527.96 2384.92 1621.53 1337.56 1621.53 1337.56 2527.96"/></clipPath><linearGradient id="linear-gradient-2" x1="2079.15" y1="1746.37" x2="1658.37" y2="2942.25" gradientUnits="userSpaceOnUse"><stop offset="0" stop-color="#ff9085"/><stop offset="1" stop-color="#fb6fbb"/></linearGradient><clipPath id="clippath-2"><path class="cls-32" d="m1526.56,2913.71c-64.99-32.69-129.44-66.64-193.31-101.85-1.4.43,20.16-130.2,113.3-169.34,183.27-74.8,129.78-220.17,126.81-296-8.87-108.53,49.48-201.66,164.47-162.08,128.27,41.84,213.63-124.35,247.34-291.3,9.87-83.78,131.38-146.12,226.81-136.08,98.09,8.38,170.11,89.14,142.38,253.24-22.35,193.5-217.84,244.87-307.98,313.56-88.62,67.38,19.03,186.27-115.91,225.72-114.82,36.88-246.15,45.88-235.68,147.72,11.96,101.27-23.37,167.87-168.22,216.41Z"/></clipPath><linearGradient id="linear-gradient-3" x1="1671.01" y1="-324.39" x2="1444.72" y2="1117.17" gradientTransform="translate(-114.27 -1081.97) rotate(-2.07) scale(1.08 1.85)" gradientUnits="userSpaceOnUse"><stop offset="0" stop-color="#444b8c"/><stop offset=".48" stop-color="#35396e"/><stop offset="1" stop-color="#26264f"/></linearGradient><linearGradient id="linear-gradient-4" x1="1516.16" y1="1670.51" x2="1549.42" y2="3715.9" gradientTransform="translate(-50.49 -1065.7) rotate(-2.07) scale(1 1.82)" gradientUnits="userSpaceOnUse"><stop offset="0" stop-color="#444b8c"/><stop offset="1" stop-color="#26264f"/></linearGradient><linearGradient id="linear-gradient-5" x1="1001.45" y1="441.65" x2="813.04" y2="1641.85" gradientTransform="translate(-57.06 -1247.59) rotate(-2.07) scale(1 1.93)" xlink:href="#linear-gradient-4"/><linearGradient id="linear-gradient-6" x1="1066.88" y1="1747.25" x2="1568.5" y2="1747.25" xlink:href="#linear-gradient-2"/><linearGradient id="linear-gradient-7" x1="2098.96" y1="535.74" x2="1207.76" y2="2371.91" xlink:href="#linear-gradient-2"/><linearGradient id="linear-gradient-8" x1="2128.7" y1="1107.99" x2="1218.18" y2="2983.97" gradientUnits="userSpaceOnUse"><stop offset="0" stop-color="#ffc444"/><stop offset="1" stop-color="#f36f56"/></linearGradient><linearGradient id="linear-gradient-9" x1="1263.19" y1="1255.16" x2="960.03" y2="2708.62" gradientTransform="translate(3476.98) rotate(-180) scale(1 -1)" gradientUnits="userSpaceOnUse"><stop offset="0" stop-color="#aa80f9"/><stop offset="1" stop-color="#6165d7"/></linearGradient><linearGradient id="linear-gradient-10" x1="378.99" y1="2787.21" x2="469.78" y2="2787.21" gradientTransform="translate(2080.59 -19.53) rotate(1.66)" xlink:href="#linear-gradient-4"/><linearGradient id="linear-gradient-11" x1="2437.48" y1="2748.86" x2="2470.03" y2="2748.86" xlink:href="#linear-gradient-8"/><linearGradient id="linear-gradient-12" x1="895.8" y1="2832.62" x2="992.26" y2="2832.62" gradientTransform="translate(1971.39 -216.17) rotate(15.37)" xlink:href="#linear-gradient-4"/><linearGradient id="linear-gradient-13" x1="2147.29" y1="2738.12" x2="2187.49" y2="2738.12" xlink:href="#linear-gradient-8"/><linearGradient id="linear-gradient-14" x1="1158.22" y1="1233.27" x2="855.07" y2="2686.72" xlink:href="#linear-gradient-9"/><linearGradient id="linear-gradient-15" x1="897.51" y1="2476.32" x2="1012.56" y2="1929.82" xlink:href="#linear-gradient-9"/><linearGradient id="linear-gradient-16" x1="950.55" y1="1189.96" x2="647.4" y2="2643.41" xlink:href="#linear-gradient-9"/><linearGradient id="linear-gradient-17" x1="1209" y1="2001.42" x2="1159.95" y2="1862.43" gradientTransform="translate(3476.98) rotate(-180) scale(1 -1)" gradientUnits="userSpaceOnUse"><stop offset="0" stop-color="#311944"/><stop offset="1" stop-color="#893976"/></linearGradient><linearGradient id="linear-gradient-18" x1="994.7" y1="1800.04" x2="1012.69" y2="1924.31" xlink:href="#linear-gradient-17"/><linearGradient id="linear-gradient-19" x1="2381.47" y1="1819.55" x2="2483.13" y2="1819.55" xlink:href="#linear-gradient-8"/><linearGradient id="linear-gradient-20" x1="1351.1" y1="1810.92" x2="1255.46" y2="1675.12" gradientTransform="translate(3476.98) rotate(-180) scale(1 -1)" xlink:href="#linear-gradient-4"/><linearGradient id="linear-gradient-21" x1="1167.65" y1="2035.69" x2="1376.95" y2="1610.54" xlink:href="#linear-gradient-17"/><linearGradient id="linear-gradient-22" x1="1065.4" y1="1762.81" x2="1525.22" y2="1762.81" xlink:href="#linear-gradient-17"/><linearGradient id="linear-gradient-23" x1="1944.62" y1="1871.55" x2="2013.2" y2="1871.55" xlink:href="#linear-gradient-8"/><linearGradient id="linear-gradient-24" x1="2377.01" y1="1393.6" x2="2548.27" y2="1393.6" xlink:href="#linear-gradient-8"/><linearGradient id="linear-gradient-25" x1="242.37" y1="1285.88" x2="177.71" y2="1121.66" gradientTransform="translate(2258.87 164.44) rotate(.21)" gradientUnits="userSpaceOnUse"><stop offset="0" stop-color="#311944"/><stop offset="1" stop-color="#6b3976"/></linearGradient><linearGradient id="linear-gradient-26" x1="2438.18" y1="1328.02" x2="2444.45" y2="1515.04" xlink:href="#linear-gradient-8"/><linearGradient id="linear-gradient-27" x1="-741.85" y1="-288.24" x2="-69.65" y2="-288.24" gradientTransform="translate(902.98 814.49) rotate(-28.49)" xlink:href="#linear-gradient-4"/><linearGradient id="linear-gradient-28" x1="-472.88" y1="-258.36" x2="-69.65" y2="-258.36" gradientTransform="translate(902.98 814.49) rotate(-28.49)" xlink:href="#linear-gradient-4"/><linearGradient id="linear-gradient-29" x1="-714.68" y1="-286.68" x2="-42.47" y2="-286.68" gradientTransform="translate(902.98 814.49) rotate(-28.49)" xlink:href="#linear-gradient-9"/><linearGradient id="linear-gradient-30" x1="641.82" y1="162.66" x2="1128.31" y2="162.66" gradientTransform="translate(67.89 359.57) rotate(-13.36)" xlink:href="#linear-gradient-4"/><linearGradient id="linear-gradient-31" x1="836.48" y1="184.28" x2="1128.31" y2="184.28" gradientTransform="translate(67.89 359.57) rotate(-13.36)" xlink:href="#linear-gradient-4"/><linearGradient id="linear-gradient-32" x1="661.49" y1="163.78" x2="1147.98" y2="163.78" gradientTransform="translate(67.89 359.57) rotate(-13.36)" xlink:href="#linear-gradient-9"/><linearGradient id="linear-gradient-33" x1="524.71" y1="1285.41" x2="603.93" y2="1576.28" xlink:href="#linear-gradient-2"/><linearGradient id="linear-gradient-34" x1="621.31" y1="1270.44" x2="695.93" y2="1544.4" xlink:href="#linear-gradient-2"/><linearGradient id="linear-gradient-35" x1="1280.58" y1="402.04" x2="307.54" y2="2406.85" gradientUnits="userSpaceOnUse"><stop offset="0" stop-color="#ab316d"/><stop offset="1" stop-color="#792d3d"/></linearGradient><linearGradient id="linear-gradient-36" x1="1297.57" y1="403.33" x2="326.77" y2="2403.5" xlink:href="#linear-gradient-8"/><linearGradient id="linear-gradient-37" x1="1167.55" y1="671.21" x2="472.35" y2="2103.56" xlink:href="#linear-gradient-8"/><linearGradient id="linear-gradient-38" x1="-895.18" y1="1360.21" x2="-855.09" y2="1645.14" gradientTransform="translate(190.56) rotate(-180) scale(1 -1)" xlink:href="#linear-gradient-8"/><linearGradient id="linear-gradient-39" x1="-88.92" y1="2631.48" x2="-28.34" y2="2811.79" gradientTransform="translate(190.56) rotate(-180) scale(1 -1)" xlink:href="#linear-gradient-8"/><linearGradient id="linear-gradient-40" x1="-166.51" y1="2658.21" x2="-106.38" y2="2837.18" gradientTransform="translate(190.56) rotate(-180) scale(1 -1)" xlink:href="#linear-gradient-8"/><linearGradient id="linear-gradient-41" x1="78.26" y1="2539.03" x2="-206.19" y2="2218.31" gradientTransform="translate(190.56) rotate(-180) scale(1 -1)" xlink:href="#linear-gradient-9"/><linearGradient id="linear-gradient-42" x1="78.26" y1="2539.03" x2="-206.19" y2="2218.31" gradientTransform="translate(190.56) rotate(-180) scale(1 -1)" xlink:href="#linear-gradient-9"/><linearGradient id="linear-gradient-43" x1="-279.44" y1="2356.21" x2="-699.43" y2="2277.94" gradientTransform="translate(190.56) rotate(-180) scale(1 -1)" xlink:href="#linear-gradient-9"/><linearGradient id="linear-gradient-44" x1="-617.92" y1="1094.12" x2="-356.39" y2="2054.37" gradientTransform="translate(190.56) rotate(-180) scale(1 -1)" xlink:href="#linear-gradient-2"/><linearGradient id="linear-gradient-45" x1="-360.97" y1="1427.14" x2="-313.72" y2="1566.5" gradientTransform="translate(190.56) rotate(-180) scale(1 -1)" xlink:href="#linear-gradient-8"/><linearGradient id="linear-gradient-46" x1="-280.23" y1="3159.59" x2="-232.98" y2="3298.95" gradientTransform="translate(-324.02) rotate(-180) scale(1 -1)" xlink:href="#linear-gradient-8"/><linearGradient id="linear-gradient-47" x1="738.69" y1="4003.26" x2="860.39" y2="4199.42" gradientTransform="translate(-324.02) rotate(-180) scale(1 -1)" xlink:href="#linear-gradient-8"/><linearGradient id="linear-gradient-48" x1="-664.85" y1="1106.9" x2="-403.31" y2="2067.15" gradientTransform="translate(190.56) rotate(-180) scale(1 -1)" xlink:href="#linear-gradient-2"/></defs><g class="cls-64"><g id="Calque_2"><g id="Illustration"><path class="cls-12" d="m1205.1,2730.84C488.81,2622.36-93.3,1945.12,12.46,1192.39,102.68,550.43,665.51,50.84,1340.45,3.67c48.87-3.43,98.31-4.48,148.2-3.04,376.53,10.88,711.07,161.48,958.49,389.38,246.26,226.81,406.26,530.17,435.39,848.43,77.58,846.77-786.53,1627.33-1677.43,1492.4Z"/><path class="cls-59" d="m1677.3,1992.77c-25.38,31.2-49.75,53.99-75.96,83.31,162.06,49.39,309.24,126.7,473.46,177.07-35.89-218.51-103.97-333.87,44.9-543.07,69.86-98.17,236.31-271.19,231.9-393.79-5.03-139.67-103.13-141.04-39.78-240.99,99.02-156.22,83.76-365.88-173.16-380.9-253.57-14.83-474.65,606.34-407.6,823.1,20.1,195.88,78.76,312.37-53.75,475.26Z"/><g class="cls-66"><g class="cls-60"><path class="cls-28" d="m1856.69,2149.48l-3.61-.55c9.46-61.76,14.18-125.01,18.74-186.18l1.74-23.24c3.73-49.2,7.94-93.14,11.66-131.91,2.08-21.72,4.06-42.36,5.81-62.32,5.35-61.09,8.99-103.85,10.79-125.11l1.2-14.04c14.74-167.51,96.39-389.7,140.25-509.07,4.75-12.92,8.99-24.47,12.58-34.41,61.67-170.88,105.37-356.08,129.9-550.43l3.63.46c-24.56,194.62-68.33,380.08-130.09,551.21-3.59,9.95-7.83,21.5-12.59,34.43-43.81,119.21-125.35,341.11-140.04,508.13l-1.2,14.03c-1.8,21.26-5.44,64.02-10.79,125.12-1.75,19.98-3.73,40.62-5.82,62.35-3.72,38.75-7.93,82.67-11.65,131.84l-1.74,23.23c-4.57,61.24-9.29,124.56-18.77,186.46Z"/><path class="cls-28" d="m1881.46,1839.59l-3.62-.49c15-110.23,77.03-233.67,179.39-356.97,85.25-102.69,196.15-201.6,304.25-271.35l1.98,3.07c-209.53,135.2-449.74,388.68-482,625.74Z"/><path class="cls-28" d="m2039.11,1118.19l-3.01-2.07c54.63-79.16,119.59-151.87,182.41-222.19,42.99-48.12,87.45-97.89,128.23-149.31l2.86,2.27c-40.85,51.5-85.34,101.31-128.37,149.47-62.75,70.24-127.63,142.86-182.13,221.83Z"/><path class="cls-28" d="m1939.71,1412.9c-5.4-133.61-73.22-310.05-145.13-377.58l2.5-2.66c72.49,68.08,140.84,245.69,146.27,380.1l-3.65.15Z"/></g></g><g class="cls-65"><path class="cls-58" d="m1526.56,2913.71c-64.99-32.69-129.44-66.64-193.31-101.85-1.4.43,20.16-130.2,113.3-169.34,183.27-74.8,129.78-220.17,126.81-296-8.87-108.53,49.48-201.66,164.47-162.08,128.27,41.84,213.63-124.35,247.34-291.3,9.87-83.78,131.38-146.12,226.81-136.08,98.09,8.38,170.11,89.14,142.38,253.24-22.35,193.5-217.84,244.87-307.98,313.56-88.62,67.38,19.03,186.27-115.91,225.72-114.82,36.88-246.15,45.88-235.68,147.72,11.96,101.27-23.37,167.87-168.22,216.41Z"/><g class="cls-63"><g class="cls-61"><path class="cls-9" d="m1429.67,2887.12c.37-1.1,157.52-235.87,359.34-446.91,29.98-35.09,61.44-70.08,91.86-103.91,169.42-188.4,329.45-366.35,320.24-631.39l4.27.33c9.25,266.28-151.18,444.68-321.02,633.55-30.41,33.81-61.85,68.78-91.87,103.91-202.91,212.18-357.99,444.45-358.76,445.97l-4.06-1.55Z"/><path class="cls-9" d="m2036.39,2161.19l-2.23-3.36c100.7-42.69,227.59-109.19,295.75-144.92,55.17-28.91,55.34-28.84,57.32-27.81l-.91,1.56.43,1.81c-2.65.58-25.45,12.53-54.33,27.67-68.21,35.75-195.18,102.3-296.04,145.05Z"/><path class="cls-9" d="m2092.49,2072.86c12.89-85.29-7.8-151.94-27.42-192.83-21.37-44.54-47.16-70.75-50.79-72.7l.74-1.2-.8-2.29c1.22-.2,2.3.46,3.86,1.75,22.38,18.49,101.3,118.18,78.64,268.16l-4.23-.9Z"/><path class="cls-9" d="m1667.62,2582.27l-3.92-1.86c79.83-151.22,2.59-346.77-34.33-423.83-1.98-4.14-2.62-5.48-2.8-6.13l4.15-.43-2.07.22,2.07-.23c.14.46,1.27,2.8,2.56,5.51,26.62,55.57,45.98,110.89,57.54,164.42,22.2,102.83,14.4,191.09-23.21,262.32Z"/><path class="cls-9" d="m1726.1,2515l-2.84-3.04c120.35-79.93,294.47-26.34,297.16-25.08.01,0,.02,0,.02.01l.95,2.14-1.99,1.16-.08-1.83-.74,1.62c-1.61-.62-173.34-54.12-292.49,25.01Zm293.15-28.49l.08,1.84-.08-1.84Z"/><path class="cls-9" d="m1456.08,2849.03c12.99-31.84,18.76-92-27.55-197.86q-2.63-6.01-2.16-6.83l3.87,1.94-1.94-.97,2.1-.04c.12.43,1.04,2.53,2.1,4.96,46.78,106.94,40.84,168,27.62,200.39l-4.05-1.59Z"/><path class="cls-9" d="m1499.14,2795.82l-3.59-2.36c40.77-50.48,152.84-57.88,216.02-57.8,2,0,3.29,0,3.76-.02l.79,3.69c-.51.03-1.89.03-4.05.03-62.43-.08-173.11,7.15-212.93,56.45Z"/></g></g></g><path class="cls-36" d="m2151.32,429.28l70.29,1946.85c6.19,171.38-70,322-171.75,336.09l-984.04,136.39c-17.92,2.48-37.92,1.32-54.8-3.51-89.05-25.23-161.45-145.56-166.99-298.98l-74.9-2074.56c-1.6-44.31,5.44-83.9,14-122.78,26.58-121.23,99.03-204.63,184.56-206l988.04-15.89c102.2-1.64,189.41,131.01,195.59,302.4Z"/><path class="cls-56" d="m2215.01,2334.1c6.06,167.91-63.22,314.94-156.36,328.49l-899.76,131.17c-103.01,14.99-190.93-117.73-197.39-296.6l-73.35-2031.51c-6.46-178.88,71.71-325.16,175.21-326.69l904.32-13.37c93.59-1.38,172.42,133.63,178.48,301.54l68.85,1906.98Z"/><path class="cls-40" d="m2125.04,421.63c-2.55-128.37-63.73-229.64-135.17-226.23l-906.31,43.29c-78.82,3.77-140.99,117.2-138.28,253.37l40.11,2020.61c2.7,136.17,68.31,235.66,146.93,222.25l905.29-154.16c71.26-12.15,127.79-126,125.24-254.36l-37.81-1904.77Z"/><path class="cls-11" d="m2088.9,478.15c-2.41-121.35-58.1-216.94-125.7-213.48l-854.67,43.77c-74.16,3.8-134.88,110.96-132.33,239.24l37.74,1901.6c2.55,128.29,67.6,222.25,141.59,209.89l851.02-142.06c67.45-11.27,120.46-118.74,118.05-240.1l-35.71-1798.87Z"/><path class="cls-4" d="m999.76,2849.38c-82.37-26.67-150.29-152.59-156.06-312.47l-78.06-2161.97c-1.67-46.17,4.56-90.42,12.3-130.9,26.88,83.43,52.47,211.92,48.66,401.14-8.17,404.88,14.8,518.26,58.39,804.56,43.45,285.38-9.62,596.78-.47,809.24,7.81,181.88-11.16,479.95,115.24,590.39Z"/><g class="cls-62"><path class="cls-26" d="m1864.47,1795.97c-171.79-167.4-380.9-108.6-472.9-279.27-98.68-183.08,88.42-349.96,14.89-580.88-20.69-64.97-57.41-120.43-103.33-167.87l-219.57,5.77c-78.82,2.07-140.99,64.43-138.28,139.29l40.11,1110.87c2.7,74.86,68.31,129.56,146.93,122.19l875.72-81.99c-30.93-128.8-85.98-211.99-143.57-268.1Z"/></g><path class="cls-49" d="m1524.82,895.91c-.97-23.42-18.3-41.93-38.76-41.34l-408.47,11.88c-21.85.64-38.75,20.86-37.69,45.16l20.38,468.69c1.05,24.21,19.6,42.58,41.36,41.04l406.88-28.84c20.38-1.44,36.07-21.53,35.1-44.86l-18.79-451.73Z"/><path class="cls-10" d="m1549.75,1495.07c-.97-23.31-18.22-40.97-38.6-39.42l-406.7,30.83c-21.75,1.65-38.58,22.6-37.53,46.79l20.29,466.44c1.05,24.09,19.51,41.55,41.17,39.01l405.12-47.63c20.29-2.39,35.92-23.14,34.95-46.37l-18.71-449.64Z"/><path class="cls-26" d="m1196.55,1687.5c-11.59-.04-19.75,4.44-24.49,13.44-4.73,8.98-5.68,21.52-2.84,37.61,5.91,33.5,20.97,50.45,45.29,50.85,10.25.17,22.24-2.28,35.97-7.37l4.76,26.97c-11.16,4.95-24.14,7.27-38.92,6.98-21.15-.42-38.42-7.36-51.86-20.81-13.41-13.4-22.27-32.44-26.63-57.14-2.74-15.56-2.44-29.17.92-40.85,3.36-11.7,9.58-20.67,18.68-26.92,9.12-6.26,20.59-9.4,34.42-9.4s29.04,3.56,44.68,10.69l-5.44,26.11c-5.96-2.72-11.88-5.09-17.77-7.11-5.88-2.02-11.47-3.04-16.78-3.06Z"/><path class="cls-26" d="m1379.44,1774.45c2.45,13.92-.55,24.8-9,32.63-8.43,7.81-21.38,11.53-38.81,11.19-15.99-.32-30.62-3.66-43.9-10.01l-5.29-30c10.84,4.74,19.91,8.11,27.22,10.1,7.32,2,13.89,3.04,19.71,3.14,6.99.12,12.12-1.16,15.38-3.83,3.27-2.67,4.43-6.7,3.47-12.1-.53-3.01-1.83-5.7-3.89-8.07-2.06-2.37-4.88-4.65-8.46-6.86-3.57-2.21-10.67-5.75-21.28-10.61-9.91-4.49-17.5-8.78-22.76-12.86-5.26-4.08-9.71-8.8-13.36-14.18-3.65-5.37-6.11-11.63-7.37-18.79-2.38-13.47.2-24.06,7.74-31.76,7.56-7.72,19.24-11.59,35.07-11.59,7.8,0,15.43.95,22.88,2.84,7.46,1.9,15.4,4.57,23.81,8.02l-5.88,25.37c-8.66-3.4-15.74-5.78-21.23-7.13-5.48-1.35-10.76-2.03-15.83-2.05-6.02-.02-10.37,1.39-13.07,4.24-2.7,2.85-3.64,6.57-2.83,11.17.5,2.86,1.59,5.36,3.26,7.49,1.67,2.14,4.1,4.21,7.28,6.22,3.18,2.01,10.54,5.64,22.08,10.9,15.31,6.99,26.22,13.98,32.69,20.95,6.48,6.98,10.61,15.5,12.38,25.56Z"/><path class="cls-26" d="m1509.82,1777.95c2.4,13.63-.81,24.28-9.61,31.94-8.78,7.64-22.2,11.28-40.19,10.94-16.51-.32-31.58-3.59-45.24-9.81l-5.18-29.36c11.15,4.64,20.49,7.94,28.02,9.89,7.54,1.95,14.31,2.98,20.32,3.08,7.22.11,12.52-1.13,15.92-3.74,3.4-2.61,4.63-6.56,3.7-11.84-.52-2.95-1.83-5.58-3.94-7.9-2.11-2.32-5-4.56-8.67-6.72-3.67-2.16-10.97-5.62-21.88-10.38-10.19-4.4-17.98-8.6-23.38-12.59-5.39-3.99-9.95-8.62-13.66-13.88-3.72-5.26-6.19-11.38-7.43-18.39-2.33-13.19.43-23.54,8.29-31.08,7.88-7.56,19.97-11.34,36.33-11.34,8.06,0,15.93.93,23.6,2.78,7.68,1.86,15.86,4.47,24.52,7.85l-6.32,24.83c-8.92-3.33-16.2-5.66-21.86-6.98-5.65-1.32-11.1-1.99-16.33-2.01-6.21-.02-10.72,1.36-13.54,4.15-2.82,2.79-3.82,6.43-3.03,10.94.49,2.8,1.59,5.24,3.3,7.33,1.71,2.09,4.19,4.12,7.46,6.09,3.27,1.97,10.83,5.52,22.69,10.67,15.74,6.84,26.94,13.68,33.56,20.51,6.63,6.84,10.81,15.18,12.55,25.02Z"/><path class="cls-34" d="m2038.03,879.29c-.89-22.49-16.86-40.28-35.72-39.73l-375.98,10.94c-20.08.58-35.62,19.95-34.66,43.25l18.58,449.39c.96,23.22,18,40.88,38.01,39.46l374.58-26.55c18.79-1.33,33.26-20.57,32.37-42.98l-17.18-433.78Z"/><path class="cls-43" d="m2060.82,1454.65c-.89-22.39-16.79-39.39-35.57-37.97l-374.42,28.38c-20,1.52-35.47,21.55-34.52,44.75l18.5,447.32c.96,23.11,17.92,39.93,37.85,37.59l373.03-43.85c18.71-2.2,33.12-22.06,32.24-44.37l-17.11-431.85Z"/><path class="cls-26" d="m1763.11,1508.08c5.03,0,10.06,0,15.09,0,.33.12.66.27,1.01.34,2,.44,4.02.79,6,1.29,9.93,2.5,19.1,6.9,27.91,12.13,12.07,7.17,23.1,15.76,33.56,25.12,1.94,1.74,3.87,3.49,5.87,5.29.46-.41.86-.75,1.24-1.1,3.99-3.74,7.9-7.57,11.99-11.19,9.8-8.68,20.29-16.44,31.93-22.6,7.07-3.74,14.46-6.7,22.36-8.4,1.2-.26,2.39-.58,3.59-.88,5.03,0,10.06,0,15.09,0,.39.13.78.31,1.18.39,3.19.68,6.31,1.6,9.3,2.99,9.41,4.38,15.92,11.61,20.46,20.76,4.58,9.21,6.72,19.02,7.47,29.06.46,6.14.5,12.32.37,18.47-.1,5.11-.62,10.21-1.13,15.29-.8,7.88-2.25,15.64-3.84,23.36-.1.5-.08,1.02-.13,1.58.59.21,1.03.39,1.49.52,10.1,2.93,20.07,6.29,29.77,10.45,11.01,4.72,21.59,10.23,31.21,17.54,7.23,5.5,13.66,11.77,18.28,19.66,6.46,11.02,7.86,22.43,3.56,34.2-2.48,6.78-6.54,12.53-11.47,17.66-7.37,7.66-16.09,13.53-25.43,18.56-12.51,6.73-25.78,11.73-39.43,15.84-1.07.32-2.13.64-3.33.99.14.73.23,1.31.38,1.88.54,2.04,1.11,4.07,1.64,6.11,3,11.51,5.29,23.13,6.34,34.92.78,8.78.96,17.57-.11,26.29-.82,6.65-2.32,13.1-5.01,19.2-3.29,7.45-8.07,13.66-14.98,18.09-4.38,2.81-9.22,4.45-14.37,5.35-4.8,0-9.6-.02-14.4-.03-4.28-.7-8.5-1.68-12.64-3.07-9.7-3.26-18.69-8.02-27.32-13.55-11.71-7.5-22.43-16.29-32.67-25.7-.61-.56-1.25-1.1-1.91-1.69-.48.42-.84.72-1.17,1.04-3.2,3.03-6.33,6.14-9.6,9.09-9.88,8.93-20.41,17.03-32.12,23.53-8.98,4.98-18.41,8.8-28.73,10.37-4.8,0-9.6-.01-14.4-.02-.94-.19-1.89-.37-2.83-.59-11.47-2.71-20.02-9.45-26.15-19.48-4.77-7.81-7.09-16.41-8.8-25.18-.65-3.35-.85-6.79-1.06-10.19-.48-7.82-.52-15.63.2-23.4.28-3.01.48-6.05.95-9.03,1.18-7.51,2.5-15,3.76-22.5.07-.45.11-.9.17-1.44-.82-.25-1.5-.46-2.19-.66-11.38-3.32-22.57-7.21-33.41-12.15-10.14-4.61-19.84-10-28.63-16.96-6.3-4.99-11.86-10.65-16.11-17.52-3.37-5.46-5.59-11.3-6.26-17.62-.95-8.98,1.2-17.16,5.71-24.72,3.97-6.66,9.25-12.16,15.23-17,8.98-7.27,19.03-12.81,29.6-17.5,9.3-4.13,18.88-7.55,28.67-10.43.9-.26,1.78-.57,2.75-.89-.24-.91-.43-1.66-.64-2.41-3.08-10.68-5.24-21.53-7.01-32.44-.61-3.73-.83-7.51-1.09-11.27-.48-7-.5-13.99.2-20.95.72-7.22,2.19-14.22,5.06-20.84,5.38-12.4,14.33-20.66,27.86-23.56.39-.08.76-.27,1.13-.41Zm74.12,261.59c-.11.07-.21.14-.32.22.32.44.62.9.96,1.33,7.08,8.84,14.48,17.4,22.25,25.65.28.3.63.52,1.06.86.5-.51.98-.94,1.38-1.43,5.3-6.52,10.63-13.03,15.88-19.6,1.76-2.2,3.31-4.57,4.95-6.86l.04-.14s-.14.01-.14.01c-4.41.15-8.82.44-13.24.43-10.4-.03-20.8-.21-31.21-.33-.54,0-1.07-.08-1.61-.13Zm-37.74-20.69c.55-.14.4-.41.09-.69-.17-.32-.33-.65-.53-.95-7.99-11.99-15.55-24.24-22.54-36.81-.34-.61-.73-1.21-1.26-2.08-4.42,11.41-8.22,22.69-11.45,34.36,11.94,2.71,23.79,4.61,35.69,6.18Zm119.7,0c11.85-1.5,23.61-3.46,35.2-6.12-.41-3.65-12.01-32.13-13.84-34-.39.76-.76,1.48-1.14,2.2-4.65,8.8-9.26,17.63-13.97,26.39-2.03,3.78-4.28,7.45-6.43,11.17.06.12.13.24.19.35Zm-42.07-143.25c.49-.19.4-.45.07-.74-.24-.35-.44-.73-.71-1.05-6.33-7.39-12.65-14.77-19.01-22.14-1.22-1.41-2.57-2.72-4.02-4.25-7.87,8.87-15.14,17.98-21.94,27.48-.24.24-.51.47.05.68,2.51-.09,5.01-.24,7.52-.27,12.68-.19,25.35-.29,38.05.29Zm-17.6,147.02c6.36-.16,12.58-.26,18.79-.48,5.31-.19,10.62-.53,15.92-.77,1.35-.06,2.25-.56,3.01-1.75,12.32-19.29,23.18-39.39,32.72-60.26.57-1.25.55-2.23-.12-3.49-7.54-14.35-15.66-28.38-24.55-41.98-4.09-6.26-8.4-12.38-12.57-18.58-.64-.95-1.34-1.37-2.5-1.43-5.56-.25-11.13-.76-16.69-.9-8.2-.2-16.4-.21-24.59-.22-9.64-.02-19.24.45-28.83,1.12-1.26.09-2.01.5-2.69,1.56-12.34,19.34-23.27,39.47-32.79,60.42-.58,1.27-.56,2.28.14,3.52,4.41,7.83,8.64,15.76,13.16,23.52,7.36,12.66,15.4,24.91,23.87,36.88.66.94,1.37,1.42,2.5,1.48,4.49.24,8.97.64,13.46.8,7.3.26,14.61.38,21.77.56Zm-105.02-137.08c2.25-.48,4.2-.95,6.18-1.3,9.6-1.67,19.19-3.41,28.83-4.9,5.52-.86,11.11-1.35,16.68-1.9,1.31-.13,2.14-.56,2.88-1.64,8.37-12.4,17.35-24.34,27.07-35.7,1.48-1.73,2.98-3.46,4.54-5.28-.5-.51-.9-.96-1.34-1.36-1.25-1.15-2.52-2.29-3.79-3.43-8.49-7.61-17.39-14.7-27-20.83-7.87-5.02-16.06-9.36-25-12.04-4.65-1.4-9.39-2.17-14.19-1.94-5.52.26-10.29,2.23-14.06,6.24-3.64,3.88-5.65,8.63-7.02,13.72-1.61,5.99-2.17,12.16-2.19,18.39-.02,6.45.38,12.9,1.35,19.32.46,3.01.86,6.04,1.47,9.02,1.03,5.07,2.17,10.12,3.35,15.16.64,2.74,1.45,5.46,2.26,8.47Zm217.13,122.72c.74-.18,1.37-.31,1.98-.49,10.6-3.09,20.94-6.82,30.88-11.53,8.56-4.06,16.72-8.76,23.89-14.98,4.16-3.6,7.87-7.6,10.46-12.53,3.68-6.99,3.75-14.07-.18-21.26-1.91-3.5-4.4-6.56-7.22-9.36-6.7-6.63-14.56-11.57-22.83-15.87-11.73-6.09-24.05-10.59-36.65-14.33-1.26-.37-2.52-.7-3.92-1.09-.39,1.34-.72,2.53-1.07,3.71-4.48,15.43-9.87,30.51-16.13,45.26-.5,1.17-.56,2.16.04,3.38,7.59,15.41,14.33,31.15,20.02,47.31.19.55.45,1.09.73,1.76Zm-122.43,72.07c-.49-.54-.86-.94-1.22-1.34-3.12-3.41-6.29-6.79-9.36-10.25-8.5-9.57-16.53-19.51-24.15-29.77-.51-.69-1.06-1.01-1.93-1.11-5.79-.63-11.57-1.3-17.35-2.02-11.09-1.38-22.11-3.32-33.06-5.71-.81-.18-1.62-.29-2.5-.44-.16.58-.31,1.02-.4,1.48-.86,4.61-1.74,9.21-2.54,13.83-.55,3.15-1.11,6.31-1.44,9.5-.33,3.13-.34,6.31-.57,9.45-.45,6.26-.29,12.54.13,18.82.13,1.91.21,3.84.54,5.72.43,2.48,1.04,4.94,1.67,7.38,1.39,5.41,3.37,10.59,6.82,15.14,3.46,4.56,7.94,7.44,13.54,8.53,4.84.94,9.55.42,14.2-.68,8.3-1.96,15.79-5.69,22.95-10.09,12.52-7.7,23.56-17.19,33.91-27.53.24-.24.44-.53.77-.93Zm16.24-245.49c.38.44.67.82,1,1.17,8.42,8.9,16.44,18.13,24.05,27.72,3.22,4.05,6.34,8.18,9.49,12.27.49.63.92,1.25,1.83,1.34,2.25.23,4.5.54,6.75.78,3.76.41,7.52.7,11.27,1.21,11.26,1.52,22.46,3.42,33.58,5.88.5.11,1.03.09,1.54.12.16-.57.31-.95.39-1.36.72-3.79,1.49-7.56,2.13-11.36,1.31-7.8,2.2-15.66,2.53-23.6.36-8.98.07-17.92-1.77-26.82-1.1-5.34-2.77-10.5-5.6-15.25-3.46-5.82-8.28-9.84-14.98-11.25-4.68-.99-9.3-.59-13.87.42-8.28,1.84-15.76,5.45-22.89,9.76-12.79,7.72-24.03,17.35-34.55,27.84-.32.32-.58.71-.9,1.12Zm94.51,194.91c-.42.05-.76.07-1.1.14-4.71.95-9.4,2.03-14.14,2.84-7.38,1.25-14.79,2.38-22.21,3.44-4.83.69-9.69,1.18-14.55,1.68-1.05.11-1.7.5-2.28,1.36-9.6,14.14-19.89,27.73-31.24,40.5-.18.21-.3.48-.63,1.01.46.32.96.59,1.36.96,8.04,7.38,16.36,14.4,25.33,20.62,8.02,5.56,16.36,10.54,25.48,14.01,6.61,2.51,13.35,4.25,20.43,3.57,4.86-.47,9.05-2.29,12.47-5.7,3.77-3.77,5.85-8.49,7.28-13.57,2.3-8.2,2.68-16.67,2.21-25.17-.33-5.97-1.07-11.94-1.95-17.88-1.33-9.04-3.55-17.93-6.01-26.77-.09-.34-.28-.65-.45-1.03Zm-216.98-122.85c-.52.12-.92.18-1.31.3-10.26,2.98-20.3,6.51-29.96,10.99-8.38,3.88-16.43,8.32-23.6,14.13-4.6,3.72-8.75,7.86-11.75,13.03-3.86,6.65-4.57,13.59-1.15,20.89,1.91,4.06,4.66,7.53,7.83,10.69,5.13,5.11,11,9.22,17.23,12.82,14.25,8.24,29.52,13.79,45.18,18.29.33.09.69.06,1.1.09.16-.44.34-.81.45-1.2,4.53-16.23,10.21-32.03,16.73-47.49.55-1.31.55-2.36-.11-3.69-7.6-15.34-14.26-31.05-19.96-47.14-.2-.56-.43-1.1-.67-1.71Zm30.87,30.06c6.79-13.99,14.01-27.26,21.98-40.55-1.08.06-1.77.06-2.45.15-1.3.17-2.58.4-3.88.58-9.49,1.31-18.9,3.01-28.22,5.06-.43.09-.83.3-1.3.48,4.08,11.61,8.62,22.85,13.87,34.28Zm165.34-.21c2.51-4.52,11.41-31.69,11.26-34.31-11.75-2.66-23.62-4.56-35.66-5.91,8.56,13.13,16.72,26.38,24.39,40.23Z"/><path class="cls-26" d="m1790.4,1867.24c0,.11,0,.21,0,.32h-14.37c0-.11-.01-.22-.02-.34,4.8,0,9.6.01,14.4.02Z"/><path class="cls-26" d="m1936.57,1867.56c0-.11,0-.23-.02-.34,4.8,0,9.6.02,14.4.03,0,.1,0,.21-.01.31h-14.37Z"/><path class="cls-26" d="m1831.5,1605.05c.02.23.03.45.05.68-.56-.2-.29-.44-.05-.68Z"/><path class="cls-26" d="m1877.12,1605.74c.02-.25.04-.49.07-.74.33.29.43.55-.07.74Z"/><path class="cls-26" d="m1799.48,1748.98c.03-.23.06-.46.09-.69.31.29.46.55-.09.69Z"/><path class="cls-26" d="m1919,1748.63c.06.12.13.24.19.35-.06-.12-.13-.24-.19-.35Z"/><path class="cls-26" d="m1837.23,1769.68c-.11.07-.21.14-.32.22.11-.07.21-.14.32-.22Z"/><polygon class="cls-26" points="1883.29 1769.71 1883.43 1769.7 1883.39 1769.83 1883.29 1769.81 1883.29 1769.71"/><path class="cls-26" d="m1858.42,1723.64c-19.62.17-36.47-16.27-37.1-36.05-.61-18.87,14.13-35.86,34.86-35.84,19.82.02,36.5,16.23,37.1,36.1.63,20.74-15.99,36.13-34.85,35.78Z"/><path class="cls-26" d="m1908.04,1151.54l79.49-49.89-79.49-52.74v-41.19s114.72,82.93,114.72,82.93v24.08s-114.72,77.83-114.72,77.83v-41.02Z"/><path class="cls-26" d="m1818.49,976.48l65.38,251.91-33.06,1.37-66.1-253.27h33.77Z"/><path class="cls-26" d="m1760.06,1197.82l-125.17-74.1v-25.64s125.17-89.6,125.17-89.6v42.19s-85.68,57.52-85.68,57.52l85.68,47.61v42.02Z"/><g class="cls-62"><path class="cls-26" d="m1864.47,2098.14c-171.79-304.5-380.9-197.53-472.9-507.98-98.68-333.01,88.42-636.56,14.89-1056.6-20.69-118.18-57.41-219.05-103.33-305.36l-219.57,10.49c-78.82,3.77-140.99,117.2-138.28,253.37l40.11,2020.61c2.7,136.17,68.31,235.66,146.93,222.26l875.72-149.13c-30.93-234.28-85.98-385.59-143.57-487.66Z"/></g><path class="cls-37" d="m2146.13,1671.85c-26.37-28.16,46.64-133.95,85.72-180.3,34.14-40.5,69.23-82.12,112.32-76.85,37.83,4.63,74.65,44.52,76.85,82.76,5.93,102.87-237.4,214.42-274.89,174.39Z"/><path class="cls-55" d="m2462.79,2758.94c4.96,4.04,5.88,14.11,6.47,20.7.27,2.94.4,4.41.07,5.45-2.4,7.58-17.1,8.38-40.16,10.74-36.44,3.72-47.28,6.59-50.13,1.17-2.67-5.08,3.79-13.4,4.52-14.32,3.92-4.93,8.72-6.73,18.01-9.78,17.19-5.66,28.81-8.76,32.32-9.69,21.96-5.86,25.63-6.91,28.89-4.26Z"/><path class="cls-16" d="m2441.13,2725.65l-3.65,41.52c1.04,2,13.38,8.02,23.18,2.86l9.37-40.81-28.9-3.57Z"/><path class="cls-2" d="m2173.82,2753.6c5.95,6.57,7.31,18.67,2.13,24.63-5.09,5.86-12.73,1.47-34.42,2.11-23.23.69-29.3,6.18-45.09,1.83-6.38-1.76-17.64-6.04-17.43-10.59.15-3.2,5.89-4.86,25.04-11.27,27.19-9.11,27.07-9.61,32.84-10.56,14.5-2.4,29.07-4.82,36.92,3.86Z"/><path class="cls-21" d="m2158.94,2715.71l-11.65,38.76c.88,2.08,12.73,9.02,22.89,4.62l17.31-37.62-28.55-5.76Z"/><path class="cls-13" d="m2262.48,1866.76c-1.67,130.27-10.56,276.74-31.89,435.88-21.08,157.28-50.62,299.39-82.85,424.36,14.87,4,29.74,8,44.6,12,37.72-35.17,85.3-90.54,108.26-168.78,14.25-48.56,9.5-73.51,18.54-133.24,14.39-95.1,43.54-144.93,73.68-221.62,27.08-68.91,59.08-170.05,76.24-305.24-68.86-14.45-137.72-28.9-206.58-43.36Z"/><path class="cls-13" d="m2396.68,1854.33c9.1,165.68,16.58,334.45,22.26,506.2,4.26,128.88,7.38,256.14,9.46,381.71,15.19,1.88,30.37,3.75,45.56,5.62,14.67-27.32,34.17-69.09,47.52-122.63,16.22-65.02,12.46-103.64,19.57-171.03,7.98-75.59,19.57-92.05,40.1-187.4,41.67-193.51,62.51-290.27,16.02-350.45-15.09-19.54-62.4-68.55-200.49-62.02Z"/><path class="cls-31" d="m2618.02,1437.92c-35.57-10-87.69-21.7-151.53-25.31-91.05-5.15-136.57-7.72-168.83,13.96-74.51,50.08-16.82,165.66-47.32,452.17-4.36,40.92-5.33,82.12-8.49,123.15-5.22,67.93-6.41,71.62-1.69,78.5,29.64,43.16,140.22-21.94,302.29,3.79,90.68,14.4,131.81,47.57,156.66,23.65,28.97-27.9,4.12-102.96-17.27-167.57-24.56-74.16-39.73-75.12-53.67-130.97-14.57-58.38-5.76-88.44-3.49-180.49,1.09-44.05.85-109.6-6.67-190.88Z"/><path class="cls-15" d="m2397.62,1975.81c42.36-3.31,69.84,20.63,106.41,1.97,50.14-25.59,66.25-105.22,63.06-161.58-4.86-85.63-53.75-108.2-45.32-163.55,4.56-29.93,25.93-69.68,102.66-110.28,1.02,34.17.83,63.3.26,86.44-2.27,92.06-11.08,122.12,3.49,180.49,13.94,55.85,29.11,56.81,53.67,130.97,21.39,64.61,46.25,139.66,17.27,167.57-24.84,23.93-65.97-9.25-156.66-23.65-139.65-22.17-241.02,23.04-285.37,8.37,53.59-88.56,102.2-113.75,140.53-116.75Z"/><path class="cls-25" d="m2560.24,1443.8c30.25-24.86,91.09,3.28,107.35,10.8,90.68,41.95,172.1,154.98,151.93,274.43-3.03,17.92-17.06,101.71-88.01,142.31-64.02,36.64-150.47,27.21-219.74-24.67-9.46-8.4-18.93-16.8-28.4-25.2-9.31-10.07-18.63-20.13-27.94-30.2,14.64-12.18,39.51-29.74,74.44-41.02,46.06-14.86,79.59,11.81,100.95-8.47,14.75-13.99,14.78-38.7,11.14-53.68-7.34-30.19-33.95-38.68-56.16-60.1-52.18-50.34-61.79-154.44-25.57-184.21Z"/><polygon class="cls-3" points="2125.46 1833.76 2530.98 1827.71 2423.14 1879.75 2124.42 1860.2 2125.46 1833.76"/><path class="cls-47" d="m2545.29,1838.49h0c0,7.59-4.75,14.37-11.88,16.96l-129.58,50.8-.59-35.22,127.74-43.32c7.17-2.06,14.31,3.32,14.31,10.78Z"/><path class="cls-5" d="m2482.85,1814.49c2.49-.56-12.12-29.67-23.6-26.31-11.47,3.36-67.58,35.88-72.68,49.27l-5.1,13.39s24.48,1.91,39.65-3.19c15.18-5.1,41.49-28.64,61.72-33.16Z"/><path class="cls-30" d="m2392.48,1623.93l28.58,260.26c.99,8.98-11.59,22.36-20.61,21.93l-419.33-25.74c-6.89-.33-12.63-5.4-13.79-12.2l-52.63-251.37c-1.57-9.15,14.87-18.59,24.15-18.34l439.43,12.36c7.34.21,13.4,5.79,14.2,13.09Z"/><path class="cls-8" d="m2382.9,1631.52l28.59,260.26c.99,8.98-6.28,16.72-15.31,16.29l-424.63-20.1c-6.89-.33-12.63-5.4-13.79-12.2l-43.38-252.52c-1.57-9.15,5.62-17.45,14.9-17.19l439.43,12.36c7.34.2,13.4,5.79,14.2,13.09Z"/><path class="cls-42" d="m2133.56,1826.98c37.08-15.71,23.99-45.68,67.77-83.02,57.76-49.26,116.63-27.9,137.24-66.08,6.42-11.89,9.48-30.4-1.7-60.35l31.82.89c7.34.2,13.4,5.79,14.2,13.09l28.59,260.26c.98,8.98-6.29,16.72-15.31,16.29l-424.63-20.1c-6.89-.33-12.63-5.4-13.79-12.2l-5.99-34.84c12.88-7.17,28.28-13.69,46.24-17.33,62.3-12.64,92.86,21.48,135.55,3.39Z"/><path class="cls-22" d="m1944.79,1851.57c-.69-2.1.77-4.26,2.98-4.37,8.97-.46,29.79-.64,41.28,6.39,14.93,9.14,34.23,25.83,17.97,34.25l-15.18,7.86c-.7.36-1.46.47-2.22.31-5.39-1.19-28.09-6.22-30.57-7.47-2.26-1.14-10.92-26.82-14.26-36.97Z"/><path class="cls-45" d="m2464.85,1322c-.21,25.42,2.62,45.58,5.31,59.39,3.07,15.82,5.29,19.91,8.11,23.22,4.25,4.99,10.7,9.18,47.13,18.21,19.82,4.91,22.37,4.78,22.81,6.75,2.14,9.6-51.92,42.3-107.76,34.42-34.18-4.82-65.27-24.32-63.36-34.56,1.92-10.3,40.66-1.73,50.83-20.37,7.08-12.97,5.26-33.85-4.12-49.1,9.08-17.02,31.97-20.94,41.05-37.96Z"/><path class="cls-23" d="m2401.42,1332.05c-8.07-10.71-8.56-29.42.73-41.24,8-10.17,20.58-11.62,28.12-12.5,21.83-2.52,49.38,6.59,58.97,26.69,5.68,11.91-6.6,36.65-8.53,41.1-2.18,5.03-6.13,6.76-9.78,10.56-5.06,5.27-12.99,13.66-25.92,27.69-1.01-4.14-2.53-9.26-4.96-14.82-.93-2.14-4.69-10.49-10.37-17.41-11.38-13.88-20.61-9.92-28.25-20.07Z"/><path class="cls-46" d="m2463.46,1372.55s-14.35,23.55-42.93,21.69c-25.59-1.67-29.33-59.05-12.99-71.22,5.45-4.06,16.37-5.75,25.25-3.26,5.24,1.47,7.02,3.65,15.64,5.88,7.95,2.06,10.19,1.18,12.59,3.2,3,2.53,5.2,8.72.19,25.49,4.88-4.94,10.74-6.84,14.89-4.88.66.31,2.42,1.51,3.41,3.32,3.58,6.55-2.41,14.92-16.04,19.78Z"/><path class="cls-38" d="m688.64,801.23c28.33-.78,50.61-26.28,49.77-56.95-.84-30.67-24.49-54.91-52.82-54.13-1.47.04-2.91.19-4.34.36-3.1-15.55-7.26-30.65-12.46-45.19,1.27-.7,2.54-1.41,3.77-2.23,24.11-16.01,31.58-50.21,16.69-76.39-14.89-26.18-46.52-34.42-70.63-18.4-1.26.84-2.45,1.75-3.62,2.68-9.77-11.68-20.35-22.52-31.65-32.44.79-1.31,1.57-2.65,2.27-4.06,13.43-26.95,4.1-60.69-20.86-75.35-24.95-14.66-56.08-4.7-69.51,22.25-.69,1.38-1.28,2.79-1.85,4.2-13.7-4.82-27.85-8.49-42.36-10.98.08-1.56.13-3.13.09-4.71-.84-30.67.85-65.6-27.46-64.38-65.5,2.83-75.97,36.53-75.13,67.2.04,1.59.19,3.15.35,4.7-14.35,3.28-28.28,7.73-41.69,13.29-.65-1.38-1.31-2.75-2.08-4.09-14.89-26.18-14.82-44.76-40.52-31.45-56.05,29.03-61.69,63.26-46.8,89.43.78,1.37,1.63,2.66,2.49,3.93-10.74,10.52-20.71,21.93-29.82,34.13-1.22-.87-2.45-1.71-3.76-2.48-24.95-14.66-56.08-4.7-69.51,22.26-13.43,26.96-4.09,60.69,20.86,75.35,1.28.75,2.58,1.4,3.89,2.02-4.39,14.81-7.72,30.12-9.96,45.81-1.44-.09-2.89-.16-4.35-.12-28.33.78-50.61,26.28-49.77,56.95.84,30.67,24.49,54.91,52.82,54.13,1.47-.04,2.91-.19,4.34-.36,3.1,15.55,7.26,30.64,12.46,45.19-1.27.69-2.54,1.41-3.77,2.23-24.11,16.01-31.58,50.21-16.69,76.39,14.89,26.18,46.52,34.41,70.63,18.4,1.26-.84,2.45-1.75,3.62-2.68,9.77,11.68,20.34,22.52,31.65,32.44-.8,1.31-1.57,2.65-2.27,4.06-13.43,26.95-4.1,60.69,20.86,75.35,24.95,14.66,73.91,1.19,87.35-25.76.69-1.38-16.56.72-15.99-.7,13.7,4.82,27.85,8.49,42.36,10.98-.08,1.56-.13,3.13-.09,4.71.84,30.67,24.49,54.91,52.82,54.13,28.33-.78,50.61-26.28,49.77-56.95-.04-1.59-.19-3.15-.35-4.7,14.35-3.28,28.28-7.73,41.69-13.29.65,1.38,1.31,2.75,2.08,4.09,14.89,26.18,46.52,34.41,70.63,18.4,24.11-16.01,31.58-50.21,16.69-76.39-.78-1.37-1.63-2.66-2.49-3.93,10.74-10.52,20.71-21.93,29.82-34.13,1.22.87,2.45,1.71,3.76,2.48,24.95,14.66,56.08,4.7,69.51-22.25,13.43-26.95,4.1-60.69-20.86-75.35-1.28-.75-2.58-1.39-3.89-2.02,4.39-14.81,7.72-30.12,9.96-45.81,1.44.09,2.89.16,4.35.12Zm-274.94,153.78c-102.86,2.83-188.72-85.16-191.78-196.54-3.06-111.37,77.84-203.95,180.69-206.78,102.86-2.83,188.72,85.16,191.78,196.54,3.06,111.37-77.84,203.95-180.69,206.77Z"/><path class="cls-54" d="m672.56,643.09c24.11-16.01,31.58-50.21,16.69-76.39-14.89-26.18-46.52-34.42-70.63-18.4-1.26.84-2.45,1.75-3.62,2.68-9.77-11.68-20.34-22.52-31.65-32.44.8-1.31,1.57-2.65,2.27-4.06,13.43-26.95,20.34-78.21-5.99-90.23-49.97-22.82-70.94,10.18-84.38,37.13-.69,1.38-1.28,2.79-1.85,4.2-13.7-4.82-27.85-8.49-42.36-10.98.08-1.56.13-3.12.09-4.71-.46-16.69-7.7-31.44-18.75-41.33-.94,48.22-1.5,96.44-1.6,144.66,89.91,12.22,160.81,94,163.59,195.02,2.35,85.61-44.92,160.05-113.62,191.23,1.2,9.25,2.48,18.52,3.44,27.81,2.59,25.22,3.78,50.64,4.95,76.05,6.76-2.17,13.41-4.61,19.94-7.31.65,1.38,1.31,2.75,2.07,4.09,14.89,26.18,43.17,39.94,87.76,12.58,24.67-15.14,14.45-44.39-.45-70.56-.78-1.37-1.63-2.66-2.49-3.93,10.74-10.52,20.71-21.93,29.82-34.13,1.22.87,2.45,1.71,3.76,2.48,24.96,14.66,75.52-.8,88.96-27.75,13.44-26.95-15.35-55.19-40.31-69.86-1.28-.75-2.58-1.39-3.89-2.02,4.39-14.81,7.72-30.12,9.96-45.81,1.44.09,2.89.16,4.35.12,28.33-.78,50.61-26.28,49.77-56.95-.84-30.67-24.49-54.91-52.82-54.13-1.47.04-2.91.19-4.34.36-3.1-15.55-7.26-30.65-12.46-45.19,1.27-.7,2.54-1.41,3.77-2.23Z"/><path class="cls-51" d="m714,790.98c28.33-.78,50.61-26.28,49.77-56.95-.84-30.67-24.49-54.91-52.82-54.13-1.47.04-2.91.19-4.34.36-3.1-15.55-7.26-30.65-12.46-45.19,1.27-.7,2.54-1.41,3.77-2.23,24.11-16.01,31.58-50.21,16.69-76.39-14.89-26.18-46.52-34.42-70.63-18.4-1.26.84-2.45,1.75-3.62,2.68-9.77-11.68-20.35-22.52-31.65-32.44.8-1.31,1.57-2.65,2.27-4.06,13.43-26.95,4.1-60.69-20.86-75.35-24.96-14.66-56.08-4.7-69.51,22.25-.69,1.38-1.28,2.79-1.85,4.2-13.7-4.82-27.85-8.49-42.36-10.98.08-1.56.13-3.13.09-4.71-.84-30.67-24.49-54.91-52.82-54.13-28.33.78-50.61,26.28-49.77,56.95.04,1.59.19,3.15.35,4.7-14.35,3.28-28.28,7.73-41.69,13.29-.65-1.38-1.31-2.75-2.07-4.09-14.89-26.17-46.52-34.41-70.63-18.4-24.11,16.01-31.58,50.21-16.69,76.39.78,1.37,1.63,2.66,2.49,3.93-10.74,10.52-20.71,21.93-29.82,34.13-1.22-.87-2.45-1.71-3.76-2.48-24.96-14.66-56.08-4.7-69.51,22.26-13.43,26.96-4.1,60.69,20.86,75.35,1.28.75,2.58,1.4,3.89,2.02-4.39,14.81-7.72,30.12-9.96,45.81-1.44-.09-2.89-.16-4.35-.12-28.33.78-50.61,26.28-49.77,56.95.84,30.67,24.49,54.91,52.82,54.13,1.47-.04,2.91-.19,4.34-.36,3.1,15.55,7.26,30.64,12.46,45.19-1.27.69-2.54,1.41-3.77,2.23-24.11,16.01-31.58,50.21-16.69,76.39,14.89,26.18,46.52,34.41,70.63,18.4,1.26-.84,2.45-1.75,3.62-2.68,9.76,11.68,20.34,22.52,31.65,32.44-.8,1.31-1.57,2.65-2.27,4.06-13.43,26.95-4.1,60.69,20.86,75.35,24.96,14.66,56.08,4.7,69.51-22.25.69-1.38,1.28-2.79,1.85-4.2,13.7,4.82,27.85,8.49,42.36,10.98-.08,1.56-.13,3.13-.09,4.71.84,30.67,24.49,54.91,52.82,54.13,28.33-.78,50.61-26.28,49.77-56.95-.04-1.59-.19-3.15-.35-4.7,14.35-3.28,28.27-7.73,41.69-13.29.65,1.38,1.31,2.75,2.07,4.09,14.9,26.17,46.52,34.41,70.63,18.4,24.11-16.01,31.58-50.21,16.69-76.39-.78-1.37-1.63-2.66-2.49-3.93,10.74-10.52,20.71-21.93,29.82-34.13,1.22.87,2.45,1.71,3.76,2.48,24.96,14.66,56.08,4.7,69.51-22.25,13.43-26.95,4.1-60.69-20.86-75.36-1.28-.75-2.58-1.39-3.89-2.02,4.39-14.81,7.72-30.12,9.96-45.81,1.44.09,2.89.16,4.35.12Zm-274.94,153.78c-102.86,2.83-188.72-85.16-191.78-196.54-3.06-111.37,77.84-203.95,180.69-206.77,102.86-2.83,188.72,85.16,191.78,196.54,3.06,111.37-77.84,203.95-180.69,206.77Z"/><path class="cls-48" d="m1153.19,398.73c19.94,4.81,40.32-8.79,45.53-30.38,5.21-21.59-6.73-42.99-26.67-47.8-1.03-.25-2.07-.42-3.1-.57.77-11.45.72-22.78-.16-33.93,1.02-.25,2.04-.51,3.06-.85,19.87-6.63,31.55-29.11,26.09-50.21-5.46-21.1-25.99-32.83-45.86-26.2-1.04.35-2.04.76-3.03,1.19-4.62-10-9.96-19.58-15.98-28.64.8-.77,1.6-1.55,2.36-2.4,14.48-16.29,14.33-41.62-.33-56.58-14.66-14.96-38.29-13.88-52.76,2.41-.74.84-1.42,1.71-2.08,2.59-8.66-5.95-17.85-11.19-27.51-15.68.35-1.07.68-2.16.95-3.28,5.21-21.59,12.99-45.67-7.02-50.16-46.29-10.4-59.97,11.16-65.18,32.75-.27,1.12-.47,2.24-.64,3.35-10.64-.42-21.21.06-31.64,1.41-.19-1.09-.4-2.17-.68-3.25-5.46-21.1-1.89-34.07-22.36-29.62-44.64,9.69-55.05,32.53-49.59,53.63.28,1.1.63,2.16,1,3.21-9.49,5.32-18.61,11.41-27.28,18.2-.69-.84-1.39-1.66-2.16-2.44-14.66-14.96-38.29-13.88-52.76,2.41-14.48,16.29-14.33,41.62.33,56.58.75.77,1.54,1.46,2.34,2.15-5.86,9.52-11.08,19.58-15.61,30.12-.99-.34-1.99-.66-3.02-.91-19.94-4.81-40.32,8.79-45.53,30.38-5.21,21.59,6.73,42.99,26.67,47.8,1.03.25,2.07.42,3.1.57-.77,11.45-.72,22.78.16,33.93-1.02.25-2.04.5-3.06.84-19.87,6.63-31.55,29.11-26.09,50.21,5.46,21.1,25.99,32.83,45.86,26.2,1.04-.35,2.04-.76,3.03-1.19,4.62,10,9.96,19.58,15.98,28.64-.8.77-1.6,1.55-2.36,2.4-14.48,16.29-14.33,41.62.33,56.58,14.66,14.96,51.41,14.8,65.89-1.49.74-.83-11.7-2.63-11.04-3.51,8.66,5.95,17.85,11.19,27.52,15.68-.35,1.07-.68,2.16-.95,3.28-5.21,21.59,6.73,42.99,26.67,47.8,19.94,4.81,40.32-8.79,45.53-30.38.27-1.12.47-2.24.64-3.35,10.64.42,21.21-.06,31.64-1.41.19,1.09.4,2.17.68,3.25,5.46,21.1,25.99,32.83,45.86,26.2,19.87-6.63,31.55-29.11,26.09-50.21-.28-1.1-.63-2.16-1-3.21,9.49-5.32,18.61-11.41,27.28-18.21.69.84,1.39,1.66,2.16,2.44,14.66,14.96,38.29,13.88,52.76-2.41,14.48-16.29,14.33-41.62-.33-56.58-.75-.77-1.54-1.46-2.34-2.14,5.86-9.52,11.08-19.58,15.61-30.12.99.34,1.99.66,3.02.9Zm-221.13,55.48c-72.39-17.46-115.74-95.15-96.84-173.53,18.91-78.38,92.91-127.77,165.3-110.31,72.39,17.46,115.74,95.15,96.84,173.54-18.91,78.38-92.91,127.77-165.3,110.31Z"/><path class="cls-18" d="m1171.84,285.21c19.87-6.63,31.55-29.11,26.09-50.21-5.46-21.1-25.99-32.83-45.86-26.2-1.04.35-2.04.76-3.03,1.19-4.61-10-9.96-19.58-15.98-28.64.8-.77,1.6-1.55,2.36-2.41,14.48-16.29,28.98-50.79,12.86-64.17-30.59-25.39-51.48-6.29-65.96,10-.74.84-1.42,1.71-2.08,2.59-8.66-5.95-17.85-11.19-27.51-15.68.35-1.07.68-2.16.95-3.28,2.83-11.75.56-23.42-5.29-32.41-9.76,33.51-19.27,67.08-28.45,100.75,60.5,25.53,94.58,96.05,77.43,167.15-14.53,60.25-61.63,103.32-115.51,112.12-.91,6.69-1.77,13.4-2.85,20.08-2.96,18.1-6.93,36.09-10.91,54.06,5.13-.24,10.24-.68,15.31-1.34.19,1.09.4,2.17.68,3.25,5.46,21.1,22.61,36.06,58.93,25.37,20.09-5.91,18.48-28.28,13.02-49.38-.28-1.1-.63-2.16-1-3.21,9.49-5.32,18.61-11.41,27.28-18.21.69.84,1.39,1.66,2.16,2.44,14.66,14.96,52.91,13.71,67.39-2.58,14.48-16.29-.3-41.46-14.96-56.42-.75-.77-1.54-1.46-2.34-2.14,5.86-9.52,11.08-19.58,15.61-30.12.99.34,1.99.66,3.02.9,19.94,4.81,40.32-8.79,45.53-30.38,5.21-21.59-6.73-42.99-26.67-47.8-1.03-.25-2.07-.42-3.1-.57.77-11.45.72-22.78-.16-33.92,1.02-.25,2.04-.51,3.06-.85Z"/><path class="cls-29" d="m1172.84,396.37c19.94,4.81,40.32-8.79,45.53-30.38,5.21-21.59-6.73-42.99-26.67-47.8-1.03-.25-2.07-.42-3.1-.57.77-11.45.72-22.78-.16-33.93,1.02-.25,2.04-.51,3.06-.85,19.87-6.63,31.55-29.11,26.09-50.21-5.46-21.1-25.99-32.83-45.86-26.2-1.04.35-2.04.76-3.03,1.19-4.62-10-9.96-19.58-15.98-28.64.8-.77,1.6-1.55,2.36-2.4,14.48-16.29,14.33-41.62-.33-56.58-14.66-14.96-38.29-13.88-52.76,2.41-.74.84-1.42,1.71-2.08,2.59-8.66-5.95-17.85-11.2-27.51-15.68.35-1.07.68-2.16.95-3.28,5.21-21.59-6.73-42.99-26.67-47.8-19.94-4.81-40.32,8.79-45.53,30.38-.27,1.12-.47,2.23-.64,3.35-10.64-.42-21.21.06-31.64,1.41-.19-1.09-.4-2.17-.68-3.25-5.46-21.1-25.99-32.83-45.86-26.2-19.87,6.63-31.55,29.11-26.09,50.21.29,1.1.64,2.16,1,3.21-9.49,5.32-18.61,11.41-27.28,18.2-.69-.84-1.39-1.66-2.16-2.44-14.66-14.96-38.29-13.88-52.76,2.41-14.48,16.29-14.33,41.62.33,56.58.75.77,1.54,1.46,2.34,2.15-5.86,9.52-11.08,19.58-15.61,30.12-.99-.33-1.99-.66-3.02-.9-19.94-4.81-40.32,8.79-45.53,30.38-5.21,21.59,6.73,42.99,26.67,47.8,1.03.25,2.07.42,3.1.57-.77,11.45-.72,22.78.16,33.93-1.02.24-2.04.5-3.06.84-19.87,6.63-31.55,29.11-26.09,50.21,5.46,21.1,25.99,32.83,45.86,26.2,1.04-.35,2.04-.76,3.03-1.19,4.62,10,9.96,19.58,15.98,28.64-.8.77-1.6,1.55-2.36,2.4-14.48,16.29-14.33,41.62.33,56.58,14.66,14.96,38.29,13.88,52.76-2.41.74-.83,1.42-1.71,2.08-2.59,8.66,5.95,17.85,11.2,27.51,15.68-.35,1.07-.68,2.16-.95,3.28-5.21,21.59,6.73,42.99,26.67,47.8,19.94,4.81,40.32-8.79,45.53-30.38.27-1.12.47-2.24.64-3.35,10.64.42,21.21-.06,31.64-1.41.19,1.09.4,2.17.68,3.25,5.46,21.1,25.99,32.83,45.86,26.2,19.87-6.63,31.55-29.11,26.09-50.21-.29-1.1-.64-2.16-1-3.21,9.49-5.32,18.61-11.41,27.28-18.21.69.84,1.39,1.66,2.16,2.44,14.66,14.96,38.29,13.88,52.76-2.41,14.48-16.29,14.33-41.62-.33-56.58-.75-.77-1.54-1.46-2.34-2.14,5.86-9.52,11.08-19.58,15.61-30.12.99.34,1.99.66,3.02.9Zm-221.13,55.48c-72.39-17.46-115.74-95.15-96.84-173.54,18.91-78.38,92.91-127.77,165.3-110.31,72.39,17.46,115.74,95.15,96.84,173.54-18.91,78.38-92.91,127.77-165.3,110.31Z"/><path class="cls-6" d="m720.06,1579.52c-24.68,15.71-54.84,27.01-91.67,31.82-243.82,31.78-318.65,56.5-338.6-74.15,0,0,68.29-100.21,308.41-128.67,240.12-28.46,157.14-164.06,173.03-158.76,5.26,1.66,10.42,1.41,15.32,4.94h.04c21.29,7.06,37.61,9.22,37.61,9.22,0,0,34.64,227.41-104.13,315.61Z"/><path class="cls-57" d="m720.06,1579.52c-92.2,2.86-249.09-7.38-245.13-111.09,0,0,124.83-37.96,195.84-45.23,71.05-7.24,106.36-11.76,109.89-94.07,1.59-36.97,3.88-60.31,5.9-74.44h.04c21.29,7.06,37.61,9.22,37.61,9.22,0,0,34.64,227.41-104.13,315.61Z"/><path class="cls-27" d="m1265.58,800.34c0-22.75-17.9-41.74-40.9-42.41l-476.79-13.87c-26.23-.76-47.3,18.48-47.3,43v476.22c0,24.51,21.39,43.47,47.62,42.36l476.72-20.24c22.99-.98,40.64-20.19,40.64-42.94v-442.11Z"/><path class="cls-41" d="m1283.24,800.74v441.09c0,1.16-.06,2.33-.17,3.47-1.74,21.17-19.46,38.48-41.18,39.41l-475.26,20.15c-26.11,1.11-48.38-17.8-48.38-42.25v-475.07c0-22.84,19.26-41.13,43.01-42.79,1.68-.13,3.71-.17,5.42-.12l475.04,13.81c22.89.67,41.52,19.62,41.52,42.32Z"/><path class="cls-26" d="m1195.1,1131.48l-90.23-123.61c-.92-1.26-2.48-2.01-4.15-2.01-1.67,0-3.23.78-4.16,2.04l-53.01,73.02-88.46-119.34c-.96-1.29-2.58-2.07-4.32-2.07-1.74,0-3.36.77-4.32,2.06l-132.46,178.1c-1.09,1.46-1.18,3.9-.25,5.4.93,1.49,2.75,3,4.72,2.95l180.18-4.06,89.27-2.01,103.13-2.33c1.79-.04,3.43-1.54,4.27-3,.85-1.46.76-3.78-.22-5.12Z"/><path class="cls-26" d="m1128.96,929.22c0,21.15-17.55,38.28-39.31,38.27-21.89-.01-39.72-17.35-39.72-38.73s17.84-38.51,39.72-38.27c21.76.24,39.31,17.57,39.31,38.72Z"/><path class="cls-39" d="m1283.07,1245.29c-1.74,21.17-19.46,38.48-41.18,39.41l-475.26,20.15c-26.11,1.11-48.38-17.8-48.38-42.25v-475.07c0-22.84,19.26-41.13,43.01-42.79,8.95,99.93,46.55,264.39,191.76,278.76,155.11,15.32,296.08,121.73,330.05,221.81Z"/><path class="cls-1" d="m1081.39,1291.47l13.81-53.36s-13.28-20.47-6.9-41.38c6.37-20.9,2.54-13.46,7.68,0,5.14,13.46,15.28-9.33,23.21-30.09,7.93-20.76,11.99,11.15,10.06,30.09-1.93,18.94-2.65,30.21-13.96,44.03-11.31,13.82-9.04,62.96-9.04,62.96l-24.85-12.24Z"/><path class="cls-13" d="m297.83,2760.54c-.44-11.76-28.78-9.39-47.34-7.61-18.57,1.78-26.74,9.23-29.65,16.19-2.9,6.96-.72,24.14,16.43,16.94,14.08-5.91,60.95-15.12,60.56-25.52Z"/><path class="cls-35" d="m263.69,2714.99l-13.21,45.55s-13.22,9.08-17.56,4.56l4.92-52.5,25.84,2.39Z"/><polygon class="cls-20" points="357 2688.04 313.26 2707.12 320.6 2729.25 364.4 2717.86 357 2688.04"/><path class="cls-13" d="m359.49,2773.93s-29.14,7.54-42.03-9.68c-8.29-11.07-15.19-29.88-19.06-41.9-2.1-6.53,1.2-13.53,7.57-16.07,9.25-3.69,21.82-7.66,27.18-4.65,8.97,5.04.56,38.57,4.48,47.31,3.92,8.74,22.98,14.34,21.86,24.99Z"/><path class="cls-19" d="m427.46,2006.26c-6.59,105.67-21.14,228.08-50.11,362.24-30.2,139.85-69.43,261.77-108.82,363.67-3.8,1.82-10.57,4.45-19.38,4.7-10.31.3-18.2-2.82-22.14-4.7-7.15-54.47-10.84-100.44-12.89-134.59-5.41-90.18-7.86-136.36,4.42-190.01,11.52-50.35,20.78-46.42,32.81-102.07,10.69-49.49,10.93-87.55,10.95-143.29.01-38.27-1.74-89.96-9.13-151.3,58.1-1.55,116.2-3.1,174.3-4.65Z"/><path class="cls-14" d="m262.8,2694.95c11.58-37.3-11.25-54.33-8.59-101.66,3.25-57.82,38.86-59.55,50.11-124.57,9.04-52.25-12.98-56.76-7.16-120.27,6.18-67.5,32.77-81.18,27.2-121.7-3.09-22.53-16.23-53.26-62.29-86.72-.62-35.23-2.86-78.87-8.92-129.12,58.1-1.55,116.2-3.1,174.3-4.65-6.59,105.67-21.14,228.08-50.11,362.24-30.2,139.85-69.43,261.77-108.82,363.67-3.8,1.82-10.57,4.45-19.38,4.7-4.68.14-8.76-.48-12.3-1.31,10.99-10.65,20.78-23.97,25.95-40.62Z"/><path class="cls-24" d="m569.2,1987.64c2.11,25.46,6.26,64.02,15.18,110.32,20.1,104.4,43.17,137.84,49.25,206.11,7.09,79.6-14.64,142.26-22.91,166.09-56.44,162.69-211.41,238.41-252.42,256.96-4.63-15.02-9.26-30.03-13.89-45.05,10.32-13.8,25.6-36.01,40.01-65.43,24.6-50.23,26.26-79.83,43.04-129.29,30.27-89.24,53.28-76.61,58.81-122.05,8.76-72.01-49.35-101.09-101.76-238.77-15.02-39.45-23.8-72.66-28.64-93.07,71.11-15.27,142.22-30.55,213.34-45.82Z"/><path class="cls-50" d="m249.44,1690.11c.05,128.52-2.39,209.56-6.8,258.06-.53,5.85-5.09,54.92,1.55,118.22,2.02,19.29,3.09,29.04,5.73,34.36,36.61,73.89,246.51,15.33,303.21-9.17,14.74-6.37,29.72-15.23,36.12-30.92,8.23-20.16.34-38.43-2.86-54.41-7.87-39.24,15.46-68.85,62.23-144.97,19.78-32.19,48.5-80.51,82.04-143.24,38.83,11.33,130.33,31.63,219.91-11.11,131.62-62.79,206.74-236.7,168.45-425.16-13.36-3.82-26.73-7.64-40.09-11.45-8.85,36.57-25.9,85.82-60.83,135.49-21.19,30.13-38.84,55.23-69.46,69.26-48.08,22.03-90.78-.34-153.2-15.75-98.36-24.28-180.52,6.05-280.5-4.21-235.7-24.2-273.41,132.69-265.48,235.01Z"/><path class="cls-33" d="m538.86,1369.54s6.54,26.2-2.67,37.94c-9.22,11.74-40,56.74-50.02,58.94-5.71,1.25-20.02,3.42-31.27,5.05-5.92.86-7.18,9.01-1.69,11.39,11.19,4.86,30.93,9.75,64.83,9.38,48.99-.53,88.4-19.17,105.58-28.83,2.44-1.37,1.28-5.07-1.51-4.86l-22.05,1.66c-18.88,1.42-34.41-14.68-32.3-33.49l1.37-12.26-30.26-44.92Z"/><path class="cls-52" d="m559.08,1422.28c3.03-1.66,27.66-4.66,31.06-17.9,4.61-17.98-11.55-39.86-13.56-43.38-8.43-14.74-10.55-16.73-14.47-19.23l-5.44-3.19s-.31-.12-.64-.23c-3.47-1.15-15.22-1.24-17.58-.68-7.56,1.79-14.95,32.92-11.65,76.61-.28,1.67-.54,3.36-.8,5.06-.66,4.42,33.31,4.49,33.09,2.93Z"/><path class="cls-13" d="m582.24,1335.8c1.07,5.34-13.07,15.98-19.12,20.57-.74.56-2.86,2.44-4.79,5.47-.28.44-.52.96-.74,1.62-2.78,8.61,11.03,18.35,8.5,22.24-1.84,2.82-11.15-.68-12.19,1.74-.98,2.28,6.79,6.77,5.68,9.5-.84,2.06-5.6.3-8.51,3.49-1.45,1.59-.98,2.81-2.45,7.6-.83,2.71-2.01,5.68-2.93,7.34-4.51,8.06-17.7,11.27-20.33,8.14-.73-.87-.14-1.63-.93-4.59,0,0-.74-2.75-2.73-5.89-2.85-4.5-9.54-7.61-16.34-12.27-12.58-8.63-16.12-16.15-17.18-18.7-.12-.29-.23-.55-.32-.79-.18-.43-.34-.86-.47-1.3-2.66-8.67,8.35-23.74,8.35-23.74,8.84-11.89,20-19.87,28.92-24.94,16.32-3.21,29.6-2.81,38.8-1.79,7.49.83,17.92,2.07,18.77,6.3Z"/><path class="cls-13" d="m587.33,1380.78s-10.43,12.52-24.21-2.52l-6.8,2.01s16.63,36.59,20.19,36.59,13.94-2.37,13.94-2.37c3.89-1.63,6.09-5.8,5.19-9.93-1.63-7.52-5.91-18.49-8.31-23.79Z"/><path class="cls-44" d="m559.81,1382.62c-3.42-4.49-9.16-.07-9.07,5.84.1,5.9,5.96,11.92,11.48,10.62,5.53-1.29,2.19-10.42-2.42-16.46Z"/><path class="cls-53" d="m305.75,2079.28c71.11,25.06,153.98-11.58,174.68-61.57,15.3-36.95-17.39-72.2,5.73-110.25,22.26-36.64,62.47-20.22,90.2-57.27,30.23-40.38-5.35-76.14,21.48-130.29,20.18-40.74,68.5-77.4,115.98-77.32,56.43.1,77.51,52.05,126,41.52,25.33-5.49,24.74-20.79,60.14-45.82,61.42-43.43,102.61-25.24,153.2-55.84,14.86-8.99,31.45-22.78,46.88-44.95-30.22,76.75-82.5,137.49-149.47,169.44-89.58,42.73-181.08,22.44-219.91,11.11-33.54,62.73-62.26,111.05-82.04,143.24-46.77,76.12-70.1,105.74-62.23,144.97,3.2,15.98,11.09,34.25,2.86,54.41-6.41,15.69-21.38,24.55-36.12,30.92-56.7,24.5-266.6,83.06-303.21,9.17-2.64-5.32-3.7-15.08-5.73-34.36-1.26-12.01-2.12-23.51-2.67-34.3,14.64,18.76,35.3,36.99,64.24,47.19Z"/></g></g></g></svg>