<?xml version="1.0" encoding="UTF-8"?><svg id="Calque_2" xmlns="http://www.w3.org/2000/svg" xmlns:xlink="http://www.w3.org/1999/xlink" viewBox="0 0 1498.59 2028.63"><defs><style>.cls-1{fill:url(#Dégradé_sans_nom_3);}.cls-1,.cls-2,.cls-3,.cls-4,.cls-5,.cls-6{stroke-width:0px;}.cls-7{clip-path:url(#clippath-2);}.cls-2{fill:url(#Dégradé_sans_nom_4);}.cls-3{fill:none;}.cls-8{clip-path:url(#clippath-1);}.cls-9{clip-path:url(#clippath-4);}.cls-4{fill:#fff;}.cls-5{fill:url(#Dégradé_sans_nom_2);}.cls-10{clip-path:url(#clippath);}.cls-11{clip-path:url(#clippath-3);}.cls-6{fill:url(#Dégradé_sans_nom);}.cls-12{clip-path:url(#clippath-5);}</style><clipPath id="clippath"><rect class="cls-3" width="1498.59" height="2028.63"/></clipPath><clipPath id="clippath-1"><path class="cls-3" d="m4.48,1956.21c-5.81,5.81-5.81,15.22,0,21.03l26.63,26.57,18.39,18.46c5.81,5.81,15.22,5.81,21.03,0,5.81-5.8,5.81-15.22,0-21.03l-45.02-45.02c-2.9-2.9-6.71-4.35-10.51-4.35s-7.61,1.45-10.51,4.35"/></clipPath><radialGradient id="Dégradé_sans_nom" cx="0" cy="2028.63" fx="0" fy="2028.63" r="1" gradientTransform="translate(2.87 169631.69) scale(82.65 -82.65)" gradientUnits="userSpaceOnUse"><stop offset="0" stop-color="#3498db"/><stop offset=".17" stop-color="#3498db"/><stop offset=".38" stop-color="#329ad6"/><stop offset=".59" stop-color="#2da1ca"/><stop offset=".8" stop-color="#25acb6"/><stop offset="1" stop-color="#1abc9c"/></radialGradient><clipPath id="clippath-2"><path class="cls-3" d="m49.5,1911.16l-45.02,45.02c-5.69,5.68-6.04,14.58-.59,20.41l.23.24.3.3s.04.05.06.07c.02.02.05.04.07.07l26.56,26.53c-14.3-14.3,4.9-37.1,4.9-37.1h0l34.52-34.52c5.8-5.81,5.81-15.22,0-21.03-2.9-2.9-6.71-4.35-10.51-4.35s-7.61,1.45-10.51,4.35"/></clipPath><linearGradient id="Dégradé_sans_nom_2" x1="0" y1="2028.63" x2="1" y2="2028.63" gradientTransform="translate(15.42 214150.09) scale(104.6 -104.6)" gradientUnits="userSpaceOnUse"><stop offset="0" stop-color="#17dcb8"/><stop offset=".02" stop-color="#18d8b9"/><stop offset=".23" stop-color="#24bcc8"/><stop offset=".43" stop-color="#2da8d2"/><stop offset=".63" stop-color="#329cd8"/><stop offset=".83" stop-color="#3498db"/><stop offset="1" stop-color="#3498db"/></linearGradient><clipPath id="clippath-3"><path class="cls-3" d="m372.78,1914.7c-5.73,5.73-5.73,15.01,0,20.74l44.4,44.4c5.73,5.73,15.01,5.73,20.74,0,5.73-5.73,5.73-15.01,0-20.74l-26.27-26.2-18.14-18.2c-2.86-2.86-6.62-4.29-10.37-4.29s-7.51,1.43-10.37,4.29"/></clipPath><linearGradient id="Dégradé_sans_nom_3" x1="0" y1="2028.64" x2="1" y2="2028.64" gradientTransform="translate(442.22 -147620.31) rotate(-180) scale(73.73 -73.73)" gradientUnits="userSpaceOnUse"><stop offset="0" stop-color="#a40054"/><stop offset="0" stop-color="#a40054"/><stop offset=".18" stop-color="#a3055a"/><stop offset=".41" stop-color="#a1156b"/><stop offset=".67" stop-color="#9f2e87"/><stop offset=".95" stop-color="#9b52ae"/><stop offset="1" stop-color="#9b59b6"/></linearGradient><clipPath id="clippath-4"><path class="cls-3" d="m406.82,1969.49h0s-34.04,34.04-34.04,34.04c-5.73,5.73-5.73,15.01,0,20.74,5.73,5.73,15.01,5.72,20.74,0l44.4-44.4c5.61-5.61,5.96-14.38.59-20.13l-.23-.24-.3-.29s-.04-.05-.06-.07c-.02-.02-.05-.04-.07-.07l-26.19-26.16c14.1,14.1-4.83,36.59-4.83,36.59"/></clipPath><linearGradient id="Dégradé_sans_nom_4" x1="0" y1="2028.63" x2="1" y2="2028.63" gradientTransform="translate(427.13 -207291.89) rotate(-180) scale(103.16 -103.16)" gradientUnits="userSpaceOnUse"><stop offset="0" stop-color="#9b59b6"/><stop offset=".05" stop-color="#9b52ae"/><stop offset=".33" stop-color="#9f2e87"/><stop offset=".59" stop-color="#a1156b"/><stop offset=".82" stop-color="#a3055a"/><stop offset=".99" stop-color="#a40054"/><stop offset="1" stop-color="#a40054"/></linearGradient><clipPath id="clippath-5"><rect class="cls-3" width="1498.59" height="2028.63"/></clipPath></defs><g id="Calque_1-2"><g class="cls-10"><path class="cls-4" d="m140.36,1967.72c0-35,27.26-60.91,64.44-60.91s64.45,25.75,64.45,60.91-27.43,60.91-64.45,60.91-64.44-25.91-64.44-60.91m101.29,0c0-22.38-15.82-37.69-36.85-37.69s-36.85,15.31-36.85,37.69,15.82,37.69,36.85,37.69,36.85-15.31,36.85-37.69"/><polygon class="cls-4" points="587.27 2004.74 587.27 2026.61 496.07 2026.61 496.07 1908.83 585.08 1908.83 585.08 1930.7 523.16 1930.7 523.16 1956.28 577.85 1956.28 577.85 1977.48 523.16 1977.48 523.16 2004.74 587.27 2004.74"/><polygon class="cls-4" points="749.81 2026.61 749.65 1955.94 714.98 2014.16 702.7 2014.16 668.21 1957.46 668.21 2026.61 642.63 2026.61 642.63 1908.83 665.18 1908.83 709.27 1982.03 752.67 1908.83 775.06 1908.83 775.39 2026.61 749.81 2026.61"/><path class="cls-4" d="m836.97,1908.83h53.51c38.53,0,64.95,23.22,64.95,58.89s-26.41,58.89-64.95,58.89h-53.51v-117.78Zm52.16,95.4c23.39,0,38.7-13.96,38.7-36.51s-15.31-36.52-38.7-36.52h-24.9v73.02h24.9Z"/><path class="cls-4" d="m1002.21,1967.72c0-35,27.26-60.91,64.45-60.91s64.44,25.75,64.44,60.91-27.43,60.91-64.44,60.91-64.45-25.91-64.45-60.91m101.3,0c0-22.38-15.82-37.69-36.85-37.69s-36.85,15.31-36.85,37.69,15.82,37.69,36.85,37.69,36.85-15.31,36.85-37.69"/><path class="cls-4" d="m1184.27,1974.78v-65.95h27.26v64.95c0,22.38,9.76,31.63,26.25,31.63s26.24-9.25,26.24-31.63v-64.95h26.93v65.95c0,34.66-19.86,53.84-53.34,53.84s-53.34-19.18-53.34-53.84"/><polygon class="cls-4" points="1458.71 2026.61 1458.55 1955.94 1423.89 2014.16 1411.6 2014.16 1377.1 1957.46 1377.1 2026.61 1351.53 2026.61 1351.53 1908.83 1374.08 1908.83 1418.16 1982.03 1461.57 1908.83 1483.96 1908.83 1484.29 2026.61 1458.71 2026.61"/></g><g class="cls-8"><rect class="cls-6" x="-1.33" y="1951.86" width="77.66" height="76.21"/></g><g class="cls-7"><rect class="cls-5" x="-1.56" y="1906.81" width="77.9" height="97"/></g><g class="cls-11"><rect class="cls-1" x="367.06" y="1910.41" width="76.59" height="75.16"/></g><g class="cls-9"><rect class="cls-2" x="367.06" y="1932.9" width="76.82" height="97.09"/></g><g class="cls-12"><path class="cls-4" d="m354.59,2021.48c-1.65,5.27-7.26,8.21-12.53,6.56-5.27-1.65-8.21-7.26-6.56-12.53l32.35-101.69c1.65-5.27,7.26-8.21,12.53-6.56,5.27,1.65,8.21,7.26,6.56,12.53l-32.35,101.69Z"/></g></g></svg>