<?xml version="1.0" encoding="UTF-8"?><svg id="Calque_2" xmlns="http://www.w3.org/2000/svg" xmlns:xlink="http://www.w3.org/1999/xlink" viewBox="0 0 1484.28 121.83"><defs><style>.cls-1{fill:url(#Dégradé_sans_nom_3);}.cls-1,.cls-2,.cls-3,.cls-4,.cls-5{stroke-width:0px;}.cls-2{fill:url(#Dégradé_sans_nom_4);}.cls-3{fill:#fff;}.cls-4{fill:url(#Dégradé_sans_nom_2);}.cls-5{fill:url(#Dégradé_sans_nom);}</style><radialGradient id="Dégradé_sans_nom" cx="2.87" cy="-1077.91" fx="2.87" fy="-1077.91" r="82.65" gradientTransform="translate(0 -1021.71) scale(1 -1)" gradientUnits="userSpaceOnUse"><stop offset=".17" stop-color="#3498db"/><stop offset=".38" stop-color="#329ad7"/><stop offset=".59" stop-color="#2da1cb"/><stop offset=".8" stop-color="#25acb7"/><stop offset="1" stop-color="#1abc9c"/></radialGradient><linearGradient id="Dégradé_sans_nom_2" x1="15.42" y1="-1070.22" x2="120.02" y2="-1070.22" gradientTransform="translate(0 -1021.71) scale(1 -1)" gradientUnits="userSpaceOnUse"><stop offset="0" stop-color="#17dcb8"/><stop offset=".03" stop-color="#18d7ba"/><stop offset=".23" stop-color="#24bbc8"/><stop offset=".43" stop-color="#2da7d2"/><stop offset=".63" stop-color="#329bd8"/><stop offset=".83" stop-color="#3498db"/></linearGradient><linearGradient id="Dégradé_sans_nom_3" x1="-1368.88" y1="1011.1" x2="-1295.14" y2="1011.1" gradientTransform="translate(-926.66 -970.63) rotate(-180) scale(1 -1)" gradientUnits="userSpaceOnUse"><stop offset="0" stop-color="#a40054"/><stop offset=".18" stop-color="#a3055a"/><stop offset=".41" stop-color="#a1156b"/><stop offset=".67" stop-color="#9f2e87"/><stop offset=".95" stop-color="#9b52ae"/><stop offset="1" stop-color="#9b59b6"/></linearGradient><linearGradient id="Dégradé_sans_nom_4" x1="-1353.8" y1="1044.57" x2="-1250.64" y2="1044.57" gradientTransform="translate(-926.66 -970.63) rotate(-180) scale(1 -1)" gradientUnits="userSpaceOnUse"><stop offset="0" stop-color="#9b59b6"/><stop offset=".05" stop-color="#9b52ae"/><stop offset=".33" stop-color="#9f2e87"/><stop offset=".59" stop-color="#a1156b"/><stop offset=".82" stop-color="#a3055a"/><stop offset=".99" stop-color="#a40054"/></linearGradient></defs><g id="Calque_2-2"><g id="Calque_1-2"><path class="cls-3" d="m140.36,60.92C140.36,25.92,167.62,0,204.8,0s64.45,25.75,64.45,60.92-27.43,60.91-64.45,60.91-64.44-25.91-64.44-60.91Zm101.29,0c0-22.38-15.82-37.7-36.85-37.7s-36.85,15.31-36.85,37.7,15.82,37.69,36.85,37.69,36.85-15.31,36.85-37.69Z"/><path class="cls-3" d="m587.27,97.94v21.87h-91.2V2.03h89.01v21.87h-61.92v25.58h54.69v21.2h-54.69v27.26h64.11Z"/><path class="cls-3" d="m749.81,119.81l-.16-70.67-34.67,58.22h-12.28l-34.5-56.71v69.16h-25.57V2.03h22.55l44.09,73.2L752.68,2.03h22.38l.33,117.78h-25.58Z"/><path class="cls-3" d="m836.97,2.03h53.51c38.53,0,64.95,23.22,64.95,58.89s-26.41,58.89-64.95,58.89h-53.51V2.03Zm52.16,95.4c23.39,0,38.7-13.96,38.7-36.51s-15.31-36.52-38.7-36.52h-24.9v73.02h24.9Z"/><path class="cls-3" d="m1002.21,60.92c0-35,27.26-60.92,64.45-60.92s64.44,25.75,64.44,60.92-27.43,60.91-64.44,60.91-64.45-25.91-64.45-60.91h0Zm101.3,0c0-22.38-15.82-37.7-36.85-37.7s-36.85,15.31-36.85,37.7,15.82,37.69,36.85,37.69,36.85-15.31,36.85-37.69Z"/><path class="cls-3" d="m1184.27,67.98V2.03h27.26v64.95c0,22.38,9.76,31.63,26.25,31.63s26.24-9.25,26.24-31.63V2.03h26.93v65.95c0,34.66-19.86,53.84-53.34,53.84s-53.34-19.18-53.34-53.84h0Z"/><path class="cls-3" d="m1458.71,119.81l-.16-70.67-34.66,58.22h-12.29l-34.49-56.71v69.16h-25.58V2.03h22.55l44.08,73.2,43.41-73.2h22.38l.33,117.78h-25.58.01Z"/><path class="cls-5" d="m49.5,115.46c5.81,5.81,15.22,5.81,21.03,0h0c5.81-5.8,5.81-15.22,0-21.02L25.51,49.42c-5.81-5.81-15.22-5.81-21.03,0h0c-5.81,5.81-5.81,15.22,0,21.03l26.63,26.57,18.39,18.45h0Z"/><path class="cls-4" d="m70.53,4.36c-5.81-5.81-15.22-5.81-21.03,0L4.48,49.38c-5.69,5.68-6.04,14.58-.59,20.41l.23.25.3.3s.04.05.06.07c.02.02.05.04.07.07l26.56,26.53c-14.3-14.3,4.9-37.1,4.9-37.1h0l34.52-34.52c5.8-5.81,5.81-15.22,0-21.03Z"/><path class="cls-1" d="m393.52,7.9c-5.73-5.73-15.01-5.73-20.74,0h0c-5.73,5.73-5.73,15.01,0,20.74l44.4,44.4c5.73,5.73,15.01,5.73,20.74,0h0c5.73-5.73,5.73-15.01,0-20.74l-26.27-26.2-18.14-18.2h0Z"/><path class="cls-2" d="m372.78,117.47c5.73,5.73,15.01,5.73,20.74,0l44.4-44.4c5.61-5.61,5.96-14.38.59-20.13l-.23-.24-.3-.29s-.04-.05-.06-.07c-.02-.02-.05-.04-.07-.07l-26.19-26.16c14.1,14.1-4.83,36.59-4.83,36.59h0l-34.04,34.04c-5.73,5.73-5.73,15.01,0,20.74h0Z"/><path class="cls-3" d="m354.59,114.69c-1.65,5.27-7.26,8.21-12.53,6.56h0c-5.27-1.65-8.21-7.26-6.56-12.53L367.85,7.03c1.65-5.27,7.26-8.21,12.53-6.56h0c5.27,1.65,8.21,7.26,6.56,12.53l-32.35,101.69Z"/></g></g></svg>