<?xml version="1.0" encoding="UTF-8"?><svg id="Calque_2" xmlns="http://www.w3.org/2000/svg" xmlns:xlink="http://www.w3.org/1999/xlink" viewBox="0 0 376.53 121.83"><defs><style>.cls-1{fill:url(#Dégradé_sans_nom_3);}.cls-1,.cls-2,.cls-3,.cls-4,.cls-5{stroke-width:0px;}.cls-2{fill:url(#Dégradé_sans_nom_4);}.cls-3{fill:#fff;}.cls-4{fill:url(#Dégradé_sans_nom_2);}.cls-5{fill:url(#Dégradé_sans_nom_5);}</style><radialGradient id="Dégradé_sans_nom_5" cx="2.89" cy="1919.81" fx="2.89" fy="1919.81" r="82.65" gradientTransform="translate(-.02 -1863.61)" gradientUnits="userSpaceOnUse"><stop offset=".17" stop-color="#3498db"/><stop offset=".38" stop-color="#329ad7"/><stop offset=".59" stop-color="#2da1cb"/><stop offset=".8" stop-color="#25acb7"/><stop offset="1" stop-color="#1abc9c"/></radialGradient><linearGradient id="Dégradé_sans_nom_2" x1="15.44" y1="1912.12" x2="120.04" y2="1912.12" gradientTransform="translate(-.02 -1863.61)" gradientUnits="userSpaceOnUse"><stop offset="0" stop-color="#17dcb8"/><stop offset=".03" stop-color="#18d7ba"/><stop offset=".23" stop-color="#24bbc8"/><stop offset=".43" stop-color="#2da7d2"/><stop offset=".63" stop-color="#329bd8"/><stop offset=".83" stop-color="#3498db"/></linearGradient><linearGradient id="Dégradé_sans_nom_3" x1="1910.78" y1="1137.82" x2="1984.51" y2="1137.82" gradientTransform="translate(2287.19 1178.29) rotate(-180)" gradientUnits="userSpaceOnUse"><stop offset="0" stop-color="#a40054"/><stop offset=".18" stop-color="#a3055a"/><stop offset=".41" stop-color="#a1156b"/><stop offset=".67" stop-color="#9f2e87"/><stop offset=".95" stop-color="#9b52ae"/><stop offset="1" stop-color="#9b59b6"/></linearGradient><linearGradient id="Dégradé_sans_nom_4" x1="1925.85" y1="1104.35" x2="2029.01" y2="1104.35" gradientTransform="translate(2287.19 1178.29) rotate(-180)" gradientUnits="userSpaceOnUse"><stop offset="0" stop-color="#9b59b6"/><stop offset=".05" stop-color="#9b52ae"/><stop offset=".33" stop-color="#9f2e87"/><stop offset=".59" stop-color="#a1156b"/><stop offset=".82" stop-color="#a3055a"/><stop offset=".99" stop-color="#a40054"/></linearGradient></defs><g id="Calque_1-2"><g id="Calque_2-2"><g id="Calque_1-2"><path class="cls-3" d="m124.33,60.92C124.33,25.92,151.59,0,188.77,0s64.45,25.75,64.45,60.92-27.43,60.91-64.45,60.91-64.44-25.91-64.44-60.91Zm101.29,0c0-22.38-15.82-37.7-36.85-37.7s-36.85,15.31-36.85,37.7,15.82,37.69,36.85,37.69,36.85-15.31,36.85-37.69Z"/><path class="cls-5" d="m49.5,115.46c5.81,5.81,15.22,5.81,21.03,0h0c5.81-5.8,5.81-15.22,0-21.02L25.51,49.42c-5.81-5.81-15.22-5.81-21.03,0h0c-5.81,5.81-5.81,15.22,0,21.03l26.63,26.57,18.39,18.45h0Z"/><path class="cls-4" d="m70.53,4.36c-5.81-5.81-15.22-5.81-21.03,0L4.48,49.38c-5.69,5.68-6.04,14.58-.59,20.41l.23.25.3.3s.04.05.06.07.05.04.07.07l26.56,26.53c-14.3-14.3,4.9-37.1,4.9-37.1h0l34.52-34.52c5.8-5.81,5.81-15.22,0-21.03Z"/><path class="cls-1" d="m327.71,7.9c-5.73-5.73-15.01-5.73-20.74,0h0c-5.73,5.73-5.73,15.01,0,20.74l44.4,44.4c5.73,5.73,15.01,5.73,20.74,0h0c5.73-5.73,5.73-15.01,0-20.74l-26.27-26.2-18.14-18.2h0Z"/><path class="cls-2" d="m306.97,117.47c5.73,5.73,15.01,5.73,20.74,0l44.4-44.4c5.61-5.61,5.96-14.38.59-20.13l-.23-.24-.3-.29s-.04-.05-.06-.07-.05-.04-.07-.07l-26.19-26.16c14.1,14.1-4.83,36.59-4.83,36.59h0l-34.04,34.04c-5.73,5.73-5.73,15.01,0,20.74h0Z"/><path class="cls-3" d="m288.78,114.69c-1.65,5.27-7.26,8.21-12.53,6.56h0c-5.27-1.65-8.21-7.26-6.56-12.53L302.04,7.03c1.65-5.27,7.26-8.21,12.53-6.56h0c5.27,1.65,8.21,7.26,6.56,12.53l-32.35,101.69Z"/></g></g></g></svg>