<svg enable-background="new 0 0 1024 1024" viewBox="0 0 1024 1024" xmlns="http://www.w3.org/2000/svg"><circle class="cls-2" cx="57.66" cy="57.66" fill="#ffffff" r="57.66"/><path fill="#0a66c2"  class="cls-1" d="m57.66,0C25.82,0,0,25.82,0,57.66s25.82,57.66,57.66,57.66,57.66-25.82,57.66-57.66S89.51,0,57.66,0ZM25.23,35.14h64.87c.72,0,1.44.27,1.98.63l-34.42,29.46-34.42-29.46c.54-.36,1.26-.63,1.98-.63Zm68.47,41.44c0,1.98-1.62,3.6-3.6,3.6H25.23c-1.98,0-3.6-1.62-3.6-3.6v-37.39l33.7,28.74c1.35,1.17,3.33,1.17,4.68,0l33.7-28.83v37.48Z"/></svg>