<?xml version="1.0" encoding="UTF-8"?><svg id="Calque_2" xmlns="http://www.w3.org/2000/svg" viewBox="0 0 1012.53 1012.53"><defs><style>.cls-1{fill:#fff;}.cls-1,.cls-2{stroke-width:0px;}.cls-2{fill:#0a66c2;}</style></defs><g id="Calque_1-2"><circle class="cls-1" cx="506.27" cy="506.27" r="506.27"/><path class="cls-2" d="m506.27,0C226.71,0,0,226.71,0,506.27s226.71,506.27,506.27,506.27,506.27-226.71,506.27-506.27S785.92,0,506.27,0ZM221.52,308.54h569.57c6.32,0,12.64,2.37,17.38,5.53l-302.22,258.67L204.05,314.07c4.74-3.16,11.06-5.53,17.38-5.53h.09Zm601.18,363.85c0,17.38-14.22,31.61-31.61,31.61H221.52c-17.38,0-31.61-14.22-31.61-31.61v-328.29l295.89,252.34c11.85,10.27,29.24,10.27,41.09,0l295.89-253.13v329.08h-.09Z"/></g></svg>