<?xml version="1.0" encoding="UTF-8"?><svg id="Calque_2" xmlns="http://www.w3.org/2000/svg" viewBox="0 0 526.81 143.21"><defs><style>.cls-1{fill:#c0bdba;stroke-width:0px;}</style></defs><g id="svg2"><path class="cls-1" d="m34.89,8.35c-2.05-2.87-4.12-7.96-4.12-7.96v.07c-.05-.19-.1-.34-.15-.45-.21,2.86-.32,3.97-3.04,6.86C23.39,10.14,1.83,28.21.07,64.95c-1.64,34.28,24.81,54.69,28.37,57.28,2.56,5.96,2.31,16.15,2.31,16.15l3.75,1.24s-.76-9.89.3-14.67c.32-1.45,1.06-2.72,1.94-3.78.58-.41,2.29-1.65,4.56-3.72.1-.05.17-.09.17-.09,0-.02,0-.04,0-.06,8.79-8.1,25.7-28.51,19.98-61.92-7.34-32.34-24.68-42.97-26.54-47.03Zm1.72,112.91s0,.05,0,.07c-3.58,2.45-7.77,1.2-7.77,1.2l2.27-100.11c.31,1.39.63,3.04.96,4.99.01.83.03,1.67.05,2.52.48,19.91,3.32,41.7,3.43,46,.41,16.03,1.85,33.42,1.07,45.33Z"/><path class="cls-1" d="m431.32,61.31c-5.45-4.67-13.06-7.11-22.11-7.11-10.79,0-14.8.3-20.56.3-3.09,0-9.73-.3-11.48-.3-.51.61-2.1,3.35-1.89,3.96,2.57.3,4.42.61,5.76.91,2.67.61,4.01,1.42,4.32,4.57.21,3.76.1,15.64.1,21.73,0,8.53.1,16.04-.21,22.34-.21,3.35-.65,4.3-2.52,5.07-1.11.46-1.76.55-4.15.82-.72.08-1.89,3.25-1.48,4.06h.12c8.84.1,19.43.3,25.6.3,11.62,0,19.74-2.64,26.01-7.31,6.27-4.47,12.54-12.39,12.54-26.1,0-9.65-3.49-17.57-10.08-23.25Zm-8.84,46.61c-4.73,4.26-9.56,5.18-14.5,5.18-3.81,0-8.12-.71-10.28-2.44-1.34-.91-1.95-3.05-2.06-4.26-.21-1.42-.21-13.2-.21-21.63s0-22.14.21-23.96c0-.41.62-1.22.93-1.42,1.13-.51,3.09-.61,5.04-.61,6.68,0,12.54,1.12,17.07,3.96,8.02,4.87,11.93,13.2,11.93,23.46s-3.29,17.36-8.12,21.73Z"/><path class="cls-1" d="m488.37,82.03c-.31-.1-.31-.3,0-.41,5.35-2.23,9.46-6.91,9.46-12.69,0-11.78-10.9-14.62-18.82-14.62-6.38,0-11.72.2-18.3.2-6.99,0-9.73-.3-10.65-.3-.51.41-2.1,3.45-1.58,3.96,2.06.3,4.63.61,6.17.91,1.95.51,2.98,1.42,3.09,4.27.1,3.66,0,11.07,0,22.03,0,8.02,0,19.29-.21,22.44-.31,3.66-.6,4.45-3.07,5.06-1.75.51-3.02.63-4.66.73-.61.51-2,3.76-1.27,4.06,6.89-.1,19.29.4,23.91.4,6.07,0,12.03-.71,16.86-2.84,7.92-3.45,13.37-8.94,13.37-17.67s-6.68-13.61-14.29-15.54Zm-20.67-21.22c0-.51.51-1.52.92-1.62,1.34-.2,3.09-.2,3.7-.2,9.15,0,15.32,3.35,15.32,12.19,0,3.86-1.54,7.41-4.83,9.04-1.23.61-3.5,1.12-7.4,1.12-2.78,0-6.07-.1-7.4-.2-.21,0-.51-.3-.51-.51,0-6.6.1-16.14.2-19.8Zm10.9,52.29c-2.57,0-6.27-.2-7.92-1.12-1.54-.71-2.78-3.15-2.98-4.87-.31-4.06-.2-14.32-.2-20.71,0-.2.31-.41.61-.51.92-.2,4.73-.1,5.24-.1,12.03,0,18.61,5.08,18.61,14.01h0c0,9.34-6.27,13.3-13.37,13.3Z"/><path class="cls-1" d="m158.16,114.48c-2.24-.39-4.02-.69-5.25-1.29-1-.27-1.66-1.65-1.66-2.14,0-2.04.02-4.99.05-8.13.03-3.58.06-7.42.06-10.45,0-10.54-5.03-16.83-13.45-16.83-3.56,0-8.88,2.43-14.24,6.49-.12.18-.33.3-.56.3-.23,0-.44-.12-.6-.35-2.66-4.33-6.09-6.44-10.51-6.44-2.69,0-7.91,1.63-13.75,6.2-.15.15-.33.23-.53.23-.39,0-.76-.32-.76-.66,0-1.15.1-2.31.19-3.33.03-.35.06-.68.08-1,.06-.76-.23-1.24-.41-1.46-3.06,1.41-10.87,3.27-13.85,3.58-1.12.22-1.66.86-1.69,1.37-.03.53.45.98,1.31,1.24,2.25.67,4.03,1.45,5.45,2.39.97.75.96,1.81.95,2.58v.21c.11,7.22.09,17.49-.21,22.97-.11,2.32-.79,3.31-2.61,3.76-1.09.29-2.01.5-3.95.8-.14.16-.29.63-.31,1.37-.04.97.14,1.78.31,2.05h0c1.04,0,2.09-.06,3.29-.11,1.8-.08,4.03-.19,7.25-.19,2.73,0,5.13.11,7.05.19,1.26.06,2.36.11,3.25.11.36-.68.48-2.88.28-3.44-.58-.1-1.14-.2-1.66-.28-.9-.15-1.67-.28-2.11-.4-2.04-.48-2.42-1.76-2.52-2.85-.16-3.52-.14-11.66-.12-18.2,0-1.98.01-3.83.01-5.38,0-.83.37-1.73.85-2.09,2.9-2.17,6.44-3.52,9.25-3.52,4.79,0,7.77,2.65,8.86,7.88.64,3.26.41,16.28.11,20.8-.11,1.94-.68,2.78-2.21,3.25-.9.22-1.83.38-2.91.58-.39.07-.8.14-1.24.22-.16.19-.32.79-.32,1.65,0,.93.18,1.57.3,1.77.88,0,2.42-.05,4.05-.09,2.01-.05,4.29-.11,5.68-.11,4.6,0,7.8.09,10.91.2.08-.08.23-.32.36-.87.23-1,.22-2.16.05-2.55-1.24-.2-2.07-.4-2.88-.59-.42-.1-.83-.2-1.36-.32-.96-.38-2.16-.85-2.16-2.84-.07-2.91-.05-6.75-.02-10.83.01-2.01.02-4.03.02-5.93,0-3.34,0-5.55-.4-7.45v-.07c0-.26.12-.66.33-.87,3.43-2.6,7.03-3.52,9.25-3.52,6,0,8.75,4.26,9.27,7.89.57,3.51.25,18.29.21,19.97-.1,2.36-.62,3.17-2.4,3.75-.98.29-1.78.49-3.41.8-.26.47-.18,2.72.03,3.41,2.79-.18,5.71-.29,11.31-.29,2.79,0,5.18.12,6.93.21.96.05,1.73.09,2.29.09.34-.48.7-2.83.53-3.43h-.09Z"/><path class="cls-1" d="m187.83,75.63c-4.58,0-9.65,1.5-13.9,4.11-5.98,4.01-9.01,9.79-9.01,17.19,0,10.59,5.5,21.91,20.95,21.91,4.3,0,9.48-1.98,12.46-3.8,6.22-4.07,9.52-10.57,9.52-18.81,0-12.12-8.23-20.59-20.02-20.59Zm6.9,36.57c-1.71,1.49-3.77,2.21-6.29,2.21-8.55,0-14.52-8.32-14.52-20.23,0-6.36,1.82-10.69,5.39-12.86,1.3-.89,3.05-1.38,4.92-1.38h0c8.69,0,14.52,7.88,14.52,19.62,0,6.12-1.39,10.5-4.02,12.64Z"/><path class="cls-1" d="m347.79,75.63c-4.58,0-9.65,1.5-13.9,4.11-5.98,4.01-9.01,9.79-9.01,17.19,0,10.59,5.5,21.91,20.95,21.91,4.3,0,9.48-1.98,12.46-3.81,6.22-4.06,9.52-10.57,9.52-18.81,0-12.12-8.23-20.59-20.02-20.59Zm6.9,36.57c-1.71,1.49-3.77,2.22-6.29,2.22-8.55,0-14.52-8.32-14.52-20.23,0-6.36,1.82-10.69,5.39-12.86,1.3-.89,3.05-1.38,4.92-1.38,8.68,0,14.52,7.89,14.52,19.62,0,6.12-1.39,10.49-4.02,12.63Z"/><path class="cls-1" d="m310.16,83.67s.77.24,2.39.4c.15.02.3.02.46.02,1.57,0,3.23-.72,3.95-1.71.9-1.25,1.22-2.99,1.14-4.17-.08-1.16-.26-1.66-.34-1.82-1.32,1.28-2.85,2.39-6.36,2.39-2.38,0-4.08-.27-5.88-.93-3.31-1.22-5.7-2.11-9.95-2.21h-.24c-4.12,0-10.49,2.4-13.03,4.41-3.7,2.65-5.83,6.81-5.83,11.41,0,7.13,3.17,11.8,9.48,13.92.18.09.31.27.34.48.04.21-.02.43-.17.57-.94.8-2.64,1.81-4.14,2.69-1.02.6-1.97,1.17-2.57,1.59-.77.55-.66,1.09-.53,1.66.02.09.04.17.04.22.39,1.45,1.67,4.12,5.93,5.75.19.04.32.21.32.42,0,.19-.11.35-.27.41-5.17,3.55-7.41,5.6-8.38,6.7-1.64,1.86-1.82,3.81-1.82,4.57,0,2.62,1.49,6.42,4.81,8.98,3.41,2.62,7.41,3.79,12.95,3.79,4.26,0,8.2-.89,12.07-2.71,7.99-3.85,12.77-10.16,12.77-16.86,0-4.49-2.6-8.22-6.77-9.74-3.03-1.03-9.48-1.48-14.64-1.83-.89-.06-1.74-.12-2.53-.18-3.91-.29-4.73-1.94-4.73-3.27,0-1.6,1.81-2.46,2.51-2.65h.09c.09-.01.71-.07,1.2-.11.77-.07,1.15-.1,1.23-.1h0c4.01-.42,7.57-1.8,10.61-4.1,3.19-2.41,6.14-5.67,6.14-13.14,0-.67-.37-3.07-.57-3.89,0-.04-.03-.1-.06-.16-.1-.26-.18-.46-.06-.64l.4-.14Zm-18.27,35.98h0c5.57,0,10.12.55,12.85,1.54,3.54,1.3,5.25,3.59,5.25,7.01,0,4.92-4.14,9.88-13.37,9.88-4.7,0-8.26-1.09-10.91-3.33-2.18-1.85-3.2-3.93-3.2-6.54,0-2.77,1.75-5.19,5.52-7.6.78-.44,2.08-.96,3.87-.96Zm7.63-19.66c-1.15,1.27-3.47,1.84-4.75,1.84-7.46,0-10.1-6.85-10.1-12.72s3.08-9.57,7.84-9.57c6.18,0,9.88,4.53,9.88,12.11,0,3.47-1.13,6.75-2.86,8.34Z"/><path class="cls-1" d="m261.28,112.83c-.31-.2-.72-1.12-.72-1.42-.21-3.15-.21-12.29-.21-18.28,0-4.87-.82-9.14-2.88-12.19-2.47-3.45-5.96-5.48-10.49-5.48-4.01,0-9.36,2.74-13.78,6.5-.1.1-.78.75-.77-.25.02-1,.17-3.03.26-4.31.09-1.28-.67-1.88-.67-1.88-2.88,1.42-10.99,3.35-13.98,3.66-2.19.42-2.74,2.52-.41,3.25h0s.02,0,.04.01c2.44.73,4.08,1.52,5.31,2.32.93.71.82,1.73.82,2.54.1,6.8.1,17.26-.21,22.95-.1,2.23-.72,3.05-2.36,3.45l.15-.05c-1.23.3-2.26.51-3.8.71-.52.51-.52,3.45,0,4.06,1.03,0,6.27-.31,10.59-.31,5.96,0,9.05.31,10.59.31.62-.71.82-3.45.41-4.06-1.75-.1-2.98-.3-4.22-.61-1.65-.41-2.06-1.22-2.16-3.05-.21-4.77-.21-14.93-.21-21.83,0-1.93.51-2.84,1.13-3.35,2.05-1.83,5.45-3.04,8.43-3.04s4.83.91,6.27,2.13c1.95,1.62,2.67,3.96,2.88,5.69.41,3.86.31,11.58.31,18.28,0,3.66-.31,4.57-1.64,4.98-.62.31-2.26.61-4.22.81-.62.61-.41,3.45,0,4.06,2.67,0,5.76-.31,10.28-.31,5.66,0,9.25.31,10.69.31.62-.71.82-3.35.41-4.06-2.26-.3-3.91-.61-5.86-1.52Z"/><path class="cls-1" d="m518.89,101.84c-4.48,0-7.96,3.46-7.96,7.94s3.48,7.94,7.94,7.94h0c4.46,0,7.94-3.53,7.94-8.05s-3.54-7.83-7.92-7.83Zm-.02,15.17c-4.02,0-7.23-3.21-7.23-7.21s3.21-7.25,7.25-7.25,7.18,3.17,7.18,7.25-3.21,7.21-7.21,7.21Z"/><path class="cls-1" d="m522.01,107.58c0-1.83-.91-2.81-3.12-2.81h-2.97v10.04h1.21v-4.42h1.65l2.05,4.42h1.32l-2.12-4.55c1.29-.27,1.98-1.21,1.98-2.68Zm-4.89,1.76v-3.48h1.58c1.58,0,2.1.43,2.1,1.72s-.53,1.76-1.94,1.76h-1.74Z"/></g></svg>