<?xml version="1.0" encoding="UTF-8"?><svg id="Calque_2" xmlns="http://www.w3.org/2000/svg" viewBox="0 0 1154.8 1003.17"><defs><style>.cls-1{fill:#fff;stroke-width:0px;}</style></defs><g id="Layer_1"><path class="cls-1" d="m718.6,742.97c-8,27.6-20.8,47.6-35.2,63.6v-140.4c0-9.6-8.4-17.6-21.6-17.6-5.6,0-10.4,2.8-10.4,6.8,0,2.8,1.6,5.2,1.6,12.8v64.4c-4.8,28-16.8,54-32.8,54-11.6,0-18.4-11.6-18.4-33.2,0-33.6,4.4-51.2,11.6-80.8,1.6-6,13.2-22-6.4-22-21.2,0-18.4,8-21.2,14.8,0,0-13.4,47.6-13.4,90,0,34.8,14.6,57.6,41.4,57.6,17.2,0,29.6-11.6,39.2-27.6v50.8c-26.4,23.2-49.6,43.6-49.6,84,0,25.6,16,46,38.4,46,20.4,0,41.6-14.8,41.6-56.8v-69.2c21.6-18.8,44.8-42.4,58.4-88.8.4-1.6.4-3.6.4-4,0-7.6-7.6-16.4-14-16.4-4,0-7.2,3.6-9.6,12h0Zm-76.8,198c-6.4,0-10.4-9.6-10.4-22,0-24,8.8-39.2,21.6-52.4v42.8c0,7.6,1.6,31.6-11.2,31.6h0Z"/><path class="cls-1" d="m833.4,786.17c-9.6,0-13.6-9.6-13.6-18.4v-66c0-9.6-8.4-17.6-21.6-17.6-5.6,0-10.4,2.8-10.4,6.8,0,2.8,1.6,5.2,1.6,12.8v61.6c-4.4,11.2-11.6,20.8-22.4,20.8-14,0-22.8-12-22.8-32.8,0-57.6,35.6-83.6,66-83.6,4,0,8,.8,11.6.8,4,0,5.2-2.4,5.2-9.2,0-10.4-7.6-16.8-18.4-16.8-48.8,0-95.2,40.8-95.2,107.6,0,34,16.4,60.4,47.6,60.4,15.2,0,26.4-7.2,34.4-16.4,6,9.6,16.8,16.4,30.8,16.4,34.4,0,50.4-36,57.2-62.4.4-1.6.4-2.4.4-2.8,0-7.6-7.6-16.4-14-16.4-4,0-8,3.6-9.6,12-3.6,17.6-10.8,43.2-26.8,43.2h0Z"/><path class="cls-1" d="m949,812.57c34.4,0,50-36,57.2-62.4,0-.8.4-1.6.4-2.8,0-7.6-7.6-16.4-14-16.4-4,0-8,3.6-9.6,12-3.6,17.6-10.4,43.2-28.8,43.2-10.8,0-16-10.4-16-21.6,0-40,18-87.2,18-92,1.6-9.2-14.4-22.4-19.2-22.4h-20.8c-4,0-8,0-21.2-1.6-4.4-16.4-15.6-21.2-25.2-21.2-10.4,0-20,7.2-20,18.4s7.2,20,17.2,25.6c-.4,20.4-2,53.6-6.4,69.6-3.6,13.6,17.2,28,22.4,11.2,7.2-23.2,9.6-58,10-73.6h34.8c-12.8,34.4-20,62.8-20,88.4,0,35.2,22.4,45.6,41.2,45.6h0Z"/><path class="cls-1" d="m259,485.17C116,485.17,0,601.17,0,744.17s116,259,259,259,259-116,259-259-116-259-259-259Zm155.8,366.9c-14,3.4-20.5,6-39.3,18.2-26.6,17.2-54.8,26.8-65,30-3.2,2.7-8.1,5.7-15.2,7.4-15.9,3.9-70.5,6.8-74.8,6.8h-1c-16.9,0-26.2-5.2-31.3-10.6-14.2,7.1-32.6,4.1-45.8-2.9-6.7-3.6-11.1-9.3-12.4-16.3-.6-3-.5-5.9-.1-8.6-1.2-1.3-2.3-2.6-3.3-4.2-3.5-5.4-11.4-20.2-9.8-42,1.2-15.6,12-29.5,19-36.9-.3-10.3.6-29.3,8.8-48.7,6.6-15.7,19.1-29.1,28.5-37.5-6.9-11.6-13.9-29.5-7.1-47.7,4.9-13,8.9-20.2,17.7-23.3h-.1c4.3-1.6,8.4-3.3,10.5-5.6,16.9-18.3,36.9-22.9,49.6-23.8.8-2,1.7-4,2.7-6.1,6.7-14.2,13.8-22.2,22.1-25.2,6.2-2.3,12.8-1.5,18.4,2.1,2.7,1.8,6.2,4,16.3,24.9,6.7-1.9,10.1-.9,11.9-.4,4.4,1.2,7.9,4.1,10,8.1,10.3,19.8,11.7,55.1,7.2,77.8-5.2,26.6-16.3,43.8-24.4,55.6,7,7.1,16.8,19.4,24.1,39.4,6,16.7,6.7,31.9,5.9,43.5,3.7-1.7,8-4,13-7.1,12.8-7.9,32.1-19.8,55.1-20.1,15.4-.2,27.4,9.6,29.2,23.8h0c1.7,13.7-6.8,26.1-20.4,29.4Z"/><path class="cls-1" d="m406.2,813.97c-18.1.2-34,9.5-47.4,17.8-25.1,15.5-37.6,14.5-37.6,14.5,0,0-.1-.2-.4-.7-1.7-2.8,8-27.9-2.9-57.8-11.8-32.7-30.5-40.6-29-43.1,6.4-10.8,22.4-28,28.8-60,3.8-19.4,2.8-51.3-5.8-68-1.6-3.1-15.8,5.2-15.8,5.2,0,0-13.3-29.6-17-32-12-7.7-25,31.8-25,31.8,0,0-27.4-4.4-48.9,18.8-4.3,4.7-10.1,7.2-16.1,9.5-1.7.6-3.8.5-9,14.5-8,21.4,13.5,45.2,13.5,45.2,0,0-25.6,18.1-35.1,40.6-10.5,24.7-7.3,48.8-7.3,48.8,0,0-18.2,15.8-19.4,32.1-1.1,14.3,3,25.9,7.4,32.7,4.9,7.4,11,3.8,11,3.8,0,0-12.1,14.1-.8,20.1,10.3,5.4,27.7,8.5,36.9-.8,6.7-6.7,8-21.6,10.5-27.7.6-1.4,2.6,2.4,4.5,4.3,2.1,2,5.7,4.2,5.7,4.2,0,0-16.3,7-9.6,23,2.2,5.3,10.1,8.7,23,8.6,4.8-.1,57.5-3,71.5-6.4,8.1-1.9,10.9-6.1,10.9-6.1,0,0,33.8-9.3,64.7-29.3,19.8-12.9,27.9-16.4,43.9-20.2h0c13.2-3.2,12.3-23.7-5.2-23.4Z"/><path class="cls-1" d="m1140.8,730.97c-4,0-8,3.6-9.6,12-3.6,17.6-11.8,43.2-27.8,43.2-10.4,0-10.4-14.8-10.4-18.4v-82.8c0-18.4-6.4-40.4-33.2-40.4-19.6,0-34,17.2-44.8,39.6v-18c0-9.6-8.4-17.6-21.6-17.6-5.6,0-10.4,2.8-10.4,6.8,0,2.8,1.6,5.2,1.6,12.8v126.8h0c0,14.8,11.2,17.6,19.2,17.6,11.6,0,11.2-9.6,11.2-17.2v-58.4c2.8-31.6,27.6-66,39.2-66,7.6,0,8.4,10.4,8.4,22.8v81.2c0,20.4,12.4,37.6,33.6,37.6,34.4,0,51.4-36,58.2-62.4.4-1.6.4-2.4.4-2.8,0-7.6-7.6-16.4-14-16.4Z"/><path class="cls-1" d="m0,0h1154.8v384.93h-577.4v64.16h-256.62v-64.16H0V0Zm64.16,320.78h128.31v-192.47h64.16v192.47h64.16V64.16H64.16v256.62ZM384.93,64.16v320.78h128.31v-64.16h128.31V64.16h-256.62Zm128.31,64.16h64.16v128.31h-64.16v-128.31Zm192.47-64.16v256.62h128.31v-192.47h64.16v192.47h64.16v-192.47h64.16v192.47h64.16V64.16h-384.93Z"/></g></svg>